<?xml version="1.0" encoding="utf-8"?>
<!-- Generator: Adobe Illustrator 21.0.0, SVG Export Plug-In . SVG Version: 6.00 Build 0)  -->
<svg version="1.1" id="Calque_1" xmlns="http://www.w3.org/2000/svg" xmlns:xlink="http://www.w3.org/1999/xlink" x="0px" y="0px"
	 viewBox="0 0 100 100" style="enable-background:new 0 0 100 100;" xml:space="preserve">
<style type="text/css">
	.st0{fill:#A5A5A5;}
	.st1{fill-rule:evenodd;clip-rule:evenodd;fill:#A5A5A5;}
</style>
<g>
	<g>
		<g>
			<g>
				<g>
					<path class="st0" d="M186.5,28.5c-1.9,0.9-4.1,1.4-6.2,1.8c1-0.2,2.5-2,3.1-2.7c0.9-1.1,1.6-2.4,2.1-3.8c0.1-0.1,0.1-0.2,0-0.3
						c-0.1-0.1-0.2,0-0.3,0c-2.3,1.3-4.8,2.2-7.4,2.8c-0.2,0.1-0.4,0-0.5-0.1c-0.2-0.2-0.4-0.5-0.6-0.7c-1.1-0.9-2.2-1.6-3.6-2.2
						c-1.7-0.7-3.6-1-5.5-0.9c-1.8,0.1-3.6,0.6-5.2,1.5c-1.6,0.8-3,2-4.2,3.4c-1.2,1.5-2.1,3.2-2.5,5c-0.4,1.8-0.4,3.5-0.1,5.3
						c0,0.3,0,0.3-0.3,0.3c-10.1-1.5-18.5-5.1-25.3-12.9c-0.3-0.3-0.5-0.3-0.7,0c-3,4.5-1.5,11.6,2.2,15.1c0.5,0.5,1,0.9,1.6,1.4
						c-0.2,0-2.7-0.2-4.9-1.4c-0.3-0.2-0.4-0.1-0.5,0.3c0,0.5,0,0.9,0.1,1.4c0.6,4.5,3.7,8.7,8,10.3c0.5,0.2,1.1,0.4,1.6,0.5
						c-1,0.2-2,0.4-4.8,0.1c-0.3-0.1-0.5,0.1-0.3,0.4c2.1,5.7,6.6,7.4,10,8.4c0.5,0.1,0.9,0.1,1.4,0.2c0,0-0.1,0-0.1,0.1
						c-1.1,1.7-5,3-6.9,3.6c-3.3,1.2-6.9,1.7-10.4,1.3c-0.6-0.1-0.7-0.1-0.8,0c-0.2,0.1,0,0.2,0.2,0.4c0.7,0.5,1.4,0.9,2.2,1.3
						c2.2,1.2,4.5,2.1,7,2.8c12.5,3.5,26.6,0.9,36-8.4c7.4-7.3,10-17.4,10-27.6c0-0.4,0.5-0.6,0.7-0.8c1.9-1.4,3.4-3.2,4.9-5.1
						c0.3-0.4,0.3-0.8,0.3-1c0,0,0-0.1,0-0.1C186.8,28.3,186.8,28.4,186.5,28.5z"/>
				</g>
			</g>
			<g>
				<g>
					<path class="st1" d="M143.7,72.7C148.9,72.7,143.9,72.7,143.7,72.7C144.4,72.7,143.7,72.7,143.7,72.7z"/>
				</g>
			</g>
			<g>
				<g>
					<path class="st1" d="M143.7,72.7C143.6,72.7,142.7,72.7,143.7,72.7C143.7,72.7,143.5,72.7,143.7,72.7z"/>
				</g>
			</g>
			<g>
				<g>
					<path class="st1" d="M145.7,72.7C145.7,72.6,146.8,72.7,145.7,72.7C145.7,72.7,145.9,72.7,145.7,72.7z"/>
				</g>
			</g>
			<g>
				<g>
					<path class="st1" d="M167.4,22.5c-0.1,0.1-0.2,0.1-0.3,0C167.3,22.5,167.3,22.5,167.4,22.5z"/>
				</g>
			</g>
		</g>
	</g>
</g>
<g>
	<g>
		<g>
			<g>
				<path class="st1" d="M-74.1,47.9v30.5c0,0.4,0.4,0.8,0.8,0.8H-62c0.4,0,0.8-0.4,0.8-0.8v-31h8.2c0.4,0,0.8-0.3,0.8-0.7l0.8-9.3
					c0-0.5-0.3-0.9-0.8-0.9h-9v-6.6c0-1.6,1.3-2.8,2.8-2.8h6.3c0.4,0,0.8-0.4,0.8-0.8V17c0-0.4-0.4-0.8-0.8-0.8h-10.7
					c-6.3,0-11.3,5.1-11.3,11.3v9h-5.7c-0.4,0-0.8,0.4-0.8,0.8v9.3c0,0.4,0.4,0.8,0.8,0.8h5.7V47.9z"/>
			</g>
		</g>
	</g>
</g>
<g>
	<g>
		<path class="st0" d="M29.2,17.5c-4,0-7.3,3.3-7.3,7.3c0,4,3.2,7.3,7.3,7.3c4,0,7.3-3.3,7.3-7.3C36.4,20.8,33.2,17.5,29.2,17.5z"/>
	</g>
	<g>
		<rect x="22.9" y="37.5" class="st0" width="12.5" height="40.3"/>
	</g>
	<g>
		<path class="st0" d="M67.3,36.5c-6.1,0-10.2,3.3-11.8,6.5h-0.2v-5.5h-12h0v40.3h12.5V57.9c0-5.3,1-10.3,7.5-10.3
			c6.4,0,6.5,6,6.5,10.7v19.6h12.5V55.7C82.3,44.9,80,36.5,67.3,36.5z"/>
	</g>
</g>
</svg>
