<?xml version="1.0" encoding="utf-8"?>
<!-- Generator: Adobe Illustrator 21.0.0, SVG Export Plug-In . SVG Version: 6.00 Build 0)  -->
<svg version="1.1" id="Calque_1" xmlns="http://www.w3.org/2000/svg" xmlns:xlink="http://www.w3.org/1999/xlink" x="0px" y="0px"
	 viewBox="0 0 500 304" style="enable-background:new 0 0 500 304;" xml:space="preserve">
<style type="text/css">
	.st0{fill:#6200EE;}
	.st1{fill:#FF9750;}
	.st2{fill:#10DCC1;}
	.st3{fill:#F7E514;}
</style>
<path class="st0" d="M49.7,279.8c1.1,0,1.7,0.7,1.7,1.7v6.3c0,1-0.7,1.7-1.7,1.7H34c-16.8,0-28-13.1-28-29.9v-91.1
	c0-1.1,0.7-1.8,1.7-1.8h7c1,0,1.7,0.7,1.7,1.8v91.1c0,11.4,7,20.1,17.5,20.1H49.7z"/>
<path class="st0" d="M58.6,258.5v-60.8c0-19.2,12.2-32.3,29.7-32.3c17.5,0,29.7,13.1,29.7,30.6v64.3c0,17.5-12.2,30.6-29.7,30.6
	C70.8,290.8,58.6,277.7,58.6,258.5 M107.6,260.2v-64.3c0-12.1-7.9-20.8-19.2-20.8c-11.4,0-19.2,8.7-19.2,22.6v60.8
	c0,13.8,7.9,22.5,19.2,22.5C99.7,281,107.6,272.3,107.6,260.2"/>
<path class="st0" d="M181.1,279.8c1.1,0,1.7,0.7,1.7,1.7v6.3c0,1-0.7,1.7-1.7,1.7h-15.7c-16.8,0-28-13.1-28-29.9v-91.1
	c0-1.1,0.7-1.8,1.7-1.8h7c1.1,0,1.7,0.7,1.7,1.8v91.1c0,11.4,7,20.1,17.5,20.1H181.1z"/>
<path class="st0" d="M236.2,279.8c1,0,1.7,0.7,1.7,1.7v6.3c0,1-0.7,1.7-1.7,1.7h-15.7c-16.8,0-28-13.1-28-29.9v-91.1
	c0-1.1,0.7-1.8,1.7-1.8h7c1.1,0,1.7,0.7,1.7,1.8v91.1c0,11.4,7,20.1,17.5,20.1H236.2z"/>
<path class="st0" d="M286.4,287.5v-90.9c0-18.4,10.8-31.5,28.3-31.5c17.5,0,28.5,13.1,28.5,31.5v18.9c0,16.6-11.2,28.1-28.5,28.1
	h-17.8v43.9c0,1.1-0.7,1.8-1.8,1.8h-7C287.1,289.2,286.4,288.5,286.4,287.5 M314.7,233.8c10.8,0,18-7.2,18-18.4v-18.9
	c0-12.9-7-21.7-18-21.7c-11,0-17.8,8.7-17.8,21.7v37.2H314.7z"/>
<path class="st0" d="M357.3,258.5v-60.8c0-19.2,12.2-32.3,29.7-32.3c17.5,0,29.7,13.1,29.7,30.6v64.3c0,17.5-12.2,30.6-29.7,30.6
	C369.6,290.8,357.3,277.7,357.3,258.5 M406.3,260.2v-64.3c0-12.1-7.9-20.8-19.2-20.8c-11.4,0-19.2,8.7-19.2,22.6v60.8
	c0,13.8,7.9,22.5,19.2,22.5C398.4,281,406.3,272.3,406.3,260.2"/>
<path class="st0" d="M436.2,287.5v-90.9c0-18.4,10.8-31.5,28.3-31.5c17.5,0,28.5,13.1,28.5,31.5v18.9c0,16.6-11.2,28.1-28.5,28.1
	h-17.8v43.9c0,1.1-0.7,1.8-1.7,1.8h-7C436.9,289.2,436.2,288.5,436.2,287.5 M464.5,233.8c10.8,0,18-7.2,18-18.4v-18.9
	c0-12.9-7-21.7-18-21.7c-11,0-17.8,8.7-17.8,21.7v37.2H464.5z"/>
<path class="st1" d="M254.6,166.9h7c1,0,1.7,0.7,1.7,1.8v118.9c0,1.1-0.7,1.8-1.7,1.8h-7c-1.1,0-1.8-0.7-1.8-1.8V168.6
	C252.8,167.6,253.5,166.9,254.6,166.9"/>
<path class="st1" d="M261.6,290h-7c-1.5,0-2.6-1.1-2.6-2.6V168.6c0-1.5,1-2.6,2.6-2.6h7c1.5,0,2.6,1.1,2.6,2.6v118.9
	C264.1,289,263.1,290,261.6,290 M254.6,167.7c-0.6,0-0.9,0.3-0.9,0.9v118.9c0,0.6,0.3,0.9,0.9,0.9h7c0.6,0,0.9-0.3,0.9-0.9V168.6
	c0-0.6-0.3-0.9-0.9-0.9H254.6z"/>
<path class="st0" d="M258.5,141.5c6.3-1.2,12.5-3.4,18.2-6.7c0.8-0.4,1.4-0.2,1.4,0.6c0,0.8-0.6,1.8-1.4,2.3
	c-5.7,3.3-11.9,5.5-18.2,6.7c-0.9,0.1-1.5-0.4-1.5-1.2C257,142.4,257.7,141.7,258.5,141.5"/>
<path class="st0" d="M258.2,145.2c-0.5,0-1-0.2-1.4-0.5c-0.5-0.4-0.7-0.9-0.7-1.5c0-1.2,1-2.3,2.2-2.5c6.4-1.2,12.4-3.4,18-6.6
	c0.7-0.4,1.3-0.4,1.8-0.1c0.5,0.3,0.7,0.8,0.7,1.4c0,1.1-0.8,2.4-1.8,3c-5.7,3.3-12,5.5-18.5,6.8
	C258.5,145.2,258.4,145.2,258.2,145.2 M277.4,135.5c0,0-0.1,0-0.2,0.1c-5.7,3.3-12,5.5-18.5,6.8h0c-0.5,0.1-0.9,0.5-0.9,0.9
	c0,0.1,0,0.2,0.1,0.3c0.1,0.1,0.3,0.1,0.5,0.1c6.4-1.2,12.4-3.4,18-6.6C276.9,136.7,277.3,136,277.4,135.5
	C277.4,135.5,277.4,135.5,277.4,135.5"/>
<path class="st0" d="M230.3,129.3c19.6,6.2,41.8,1.8,57.6-13.2c0.7-0.6,1.2-0.5,1.2,0.3c0,0.8-0.5,2-1.2,2.6
	c-15.9,15-38.1,19.4-57.6,13.2c-0.8-0.3-1.5-1.1-1.5-1.9C228.8,129.5,229.5,129.1,230.3,129.3"/>
<path class="st0" d="M247.8,135.7c-5.9,0-11.9-0.9-17.8-2.7c-1.2-0.4-2.1-1.6-2.1-2.7c0-0.6,0.3-1.1,0.7-1.5
	c0.5-0.4,1.2-0.4,1.8-0.2h0c19.9,6.3,41.7,1.3,56.9-13.1c0.8-0.8,1.5-0.7,1.8-0.5c0.2,0.1,0.8,0.4,0.8,1.4c0,1-0.6,2.4-1.5,3.2
	C277.4,130.1,262.8,135.7,247.8,135.7 M229.8,130c-0.1,0-0.1,0-0.2,0c0,0.6,0.3,1.2,0.9,1.3c19.9,6.3,41.7,1.3,56.9-13.1
	c0.4-0.4,0.7-0.9,0.8-1.4c-15.6,14.5-37.8,19.6-58.2,13.2h0C230,130,229.9,130,229.8,130"/>
<path class="st0" d="M240,121c7.3,1,14.8,0.6,22-1.2c0.8-0.2,1.5,0.2,1.5,1c0,0.8-0.7,1.6-1.5,1.8c-7.2,1.8-14.7,2.2-22,1.2
	c-0.9-0.1-1.5-0.9-1.5-1.7C238.5,121.4,239.2,120.9,240,121"/>
<path class="st0" d="M247.9,125.2c-2.7,0-5.3-0.2-8-0.5c-1.3-0.2-2.2-1.2-2.2-2.5c0-0.6,0.2-1.1,0.7-1.5c0.5-0.4,1.1-0.6,1.8-0.5
	c7.3,1,14.6,0.6,21.7-1.2c0.7-0.2,1.3,0,1.8,0.3c0.4,0.4,0.7,0.9,0.7,1.5c0,1.2-0.9,2.3-2.1,2.6
	C257.5,124.6,252.7,125.2,247.9,125.2 M239.8,121.8c-0.2,0-0.3,0-0.4,0.1c-0.1,0.1-0.1,0.2-0.1,0.3c0,0.4,0.4,0.8,0.8,0.9
	c7.3,1,14.6,0.6,21.7-1.2c0.5-0.1,0.9-0.7,0.9-1c0-0.1,0-0.2-0.1-0.2c-0.1-0.1-0.2-0.1-0.4,0c-7.3,1.8-14.8,2.2-22.3,1.2
	C239.9,121.8,239.8,121.8,239.8,121.8"/>
<path class="st0" d="M207.8,105.6c4.7,4.4,10,8,15.6,10.5c0.8,0.4,1.5,1.3,1.5,2.1s-0.7,1.2-1.5,0.8c-5.6-2.6-10.9-6.1-15.6-10.5
	c-0.7-0.6-1.2-1.8-1.2-2.6C206.6,105,207.1,104.9,207.8,105.6"/>
<path class="st0" d="M224,119.9c-0.3,0-0.6-0.1-0.9-0.2c-5.8-2.7-11.1-6.3-15.8-10.7c-0.8-0.8-1.5-2.2-1.5-3.2c0-1,0.5-1.3,0.8-1.4
	c0.3-0.1,1-0.2,1.8,0.5c4.6,4.3,9.7,7.8,15.4,10.4c1.1,0.5,1.9,1.7,1.9,2.8c0,0.6-0.3,1.2-0.8,1.5
	C224.6,119.9,224.3,119.9,224,119.9 M207.5,106.4c0.2,0.5,0.5,1.1,0.8,1.4c4.6,4.3,9.7,7.8,15.3,10.4c0.2,0.1,0.3,0.1,0.3,0.1
	c0-0.6-0.5-1.2-1-1.5C217.4,114.2,212.1,110.7,207.5,106.4"/>
<path class="st0" d="M218.8,134.8c6.7,3.8,13.9,6.2,21.3,7.2c0.9,0.1,1.5,0.8,1.5,1.6c0,0.8-0.7,1.4-1.5,1.3
	c-7.4-1-14.7-3.4-21.3-7.2c-0.8-0.4-1.4-1.5-1.4-2.3C217.5,134.6,218.1,134.4,218.8,134.8"/>
<path class="st0" d="M240.4,145.7c-0.1,0-0.2,0-0.3,0c-7.7-1-14.9-3.5-21.6-7.3c-1-0.6-1.8-1.9-1.8-3c0-0.6,0.3-1.2,0.7-1.4
	c0.5-0.3,1.2-0.3,1.8,0.1c6.5,3.7,13.6,6.1,21,7.1c1.3,0.2,2.2,1.2,2.2,2.4c0,0.6-0.2,1.2-0.7,1.5
	C241.4,145.5,240.9,145.7,240.4,145.7 M218.2,135.4L218.2,135.4c0.1,0.5,0.6,1.3,1.1,1.6c6.5,3.7,13.6,6.1,21,7.1
	c0.2,0,0.4,0,0.5-0.1c0.1-0.1,0.1-0.2,0.1-0.3c0-0.4-0.4-0.8-0.8-0.8c-7.7-1-14.9-3.5-21.6-7.3C218.3,135.4,218.2,135.4,218.2,135.4
	"/>
<path class="st1" d="M219.5,160.3c28.2,11.9,61.9,6.7,85.3-15.7c0.7-0.6,1.2-0.5,1.2,0.3c0,0.8-0.5,2-1.2,2.6
	c-23.3,22.4-57.1,27.6-85.3,15.7c-0.8-0.3-1.4-1.3-1.4-2.1C218.1,160.3,218.7,159.9,219.5,160.3"/>
<path class="st1" d="M250.3,170.2c-10.5,0-21-2.1-31-6.3c-1.1-0.5-1.9-1.7-1.9-2.8c0-0.6,0.3-1.2,0.7-1.5c0.5-0.3,1.2-0.4,1.8-0.1
	c28.8,12.2,61.9,6,84.4-15.6c0.8-0.8,1.5-0.7,1.8-0.5c0.2,0.1,0.8,0.4,0.8,1.4c0,1-0.6,2.4-1.4,3.2
	C290.2,162.5,270.4,170.2,250.3,170.2 M218.9,161C218.9,161,218.9,161,218.9,161c-0.1,0.6,0.4,1.2,0.9,1.4
	c28.8,12.2,61.9,6,84.4-15.6c0.4-0.4,0.7-0.9,0.8-1.4c-23,21.8-56.7,28-85.9,15.6l0,0C219.1,161,219,161,218.9,161"/>
<path class="st1" d="M229,153.1c17.3,4.8,36,3.6,52.6-3.6c0.8-0.3,1.4,0,1.4,0.8c0,0.8-0.6,1.7-1.4,2.1c-16.7,7.2-35.3,8.4-52.6,3.6
	c-0.8-0.2-1.5-1.1-1.5-1.9C227.5,153.3,228.2,152.8,229,153.1"/>
<path class="st1" d="M250.2,159.7c-7.2,0-14.4-1-21.5-2.9c-1.2-0.3-2.1-1.5-2.1-2.6c0-0.6,0.3-1.2,0.7-1.5c0.5-0.4,1.1-0.5,1.8-0.3
	c17.2,4.8,35.7,3.5,52.1-3.5c0.7-0.3,1.3-0.3,1.8,0.1c0.5,0.3,0.7,0.8,0.7,1.5c0,1.1-0.8,2.3-1.9,2.8
	C271.9,157.5,261.1,159.7,250.2,159.7 M228.6,153.8c-0.1,0-0.2,0-0.2,0c0,0-0.1,0.1-0.1,0.2c0,0.4,0.4,0.9,0.9,1.1
	c17.2,4.8,35.7,3.5,52.1-3.5c0.5-0.2,1-0.9,1-1.3c0-0.1-0.1-0.1-0.3,0c-16.7,7.2-35.6,8.5-53.2,3.6h0
	C228.7,153.8,228.6,153.8,228.6,153.8"/>
<path class="st1" d="M195.7,134.1c5.2,5,11,9.2,17.1,12.5c0.8,0.4,1.4,1.4,1.4,2.2c0,0.8-0.6,1.1-1.4,0.7
	c-6.1-3.3-11.8-7.5-17.1-12.5c-0.7-0.6-1.2-1.8-1.2-2.6C194.5,133.5,195,133.4,195.7,134.1"/>
<path class="st1" d="M213.4,150.4c-0.3,0-0.7-0.1-1-0.3c-6.3-3.4-12.1-7.6-17.3-12.6c-0.8-0.8-1.4-2.2-1.4-3.2c0-1,0.5-1.3,0.8-1.4
	c0.3-0.1,1-0.2,1.8,0.5c5.1,4.9,10.8,9,16.9,12.3c1,0.6,1.8,1.8,1.8,2.9c0,0.6-0.3,1.2-0.8,1.5C214,150.3,213.7,150.4,213.4,150.4
	 M195.4,134.9c0.2,0.5,0.5,1.1,0.8,1.4c5.1,4.9,10.8,9,16.9,12.3c0.2,0.1,0.3,0.1,0.3,0.1c-0.1-0.6-0.5-1.3-1-1.5
	C206.2,143.9,200.5,139.8,195.4,134.9"/>
<path class="st2" d="M309.5,55.3c17.1,19.9,18.5,48.2,4.9,69.4c-0.5,0.7-1.5,1.3-2.3,1.3c-0.8,0-1-0.7-0.5-1.4
	c13.6-21.2,12.2-49.5-4.9-69.4c-0.6-0.7-0.5-1.2,0.3-1.2C307.8,54,308.9,54.6,309.5,55.3"/>
<path class="st2" d="M312.1,126.8C312.1,126.8,312,126.8,312.1,126.8c-0.7,0-1.2-0.3-1.5-0.8c-0.3-0.5-0.2-1.2,0.2-1.8
	c13.6-21.2,11.6-49.3-4.8-68.5c-0.7-0.9-0.6-1.5-0.4-1.8c0.1-0.2,0.5-0.7,1.4-0.7c1,0,2.4,0.7,3.1,1.6c16.9,19.6,18.9,48.6,4.9,70.4
	C314.4,126.1,313.2,126.8,312.1,126.8 M307.5,54.9c16.7,19.6,18.6,48.4,4.7,70.1c-0.1,0.2-0.1,0.3-0.1,0.3c0.5-0.1,1.3-0.5,1.6-1
	c13.6-21.2,11.6-49.4-4.8-68.5C308.6,55.4,308,55.1,307.5,54.9"/>
<path class="st2" d="M330.9,74.8c3.5,10.1,4.1,20.9,1.8,31.3c-0.2,0.8-1,1.5-1.8,1.5c-0.8,0-1.3-0.7-1.1-1.6
	c2.2-10.3,1.6-21.1-1.8-31.3c-0.3-0.8,0.1-1.5,0.9-1.4C329.7,73.3,330.6,74,330.9,74.8"/>
<path class="st2" d="M331,108.3c0,0-0.1,0-0.1,0c-0.6,0-1.1-0.3-1.5-0.7c-0.4-0.5-0.5-1.2-0.4-1.8c2.2-10.3,1.6-20.9-1.8-30.8
	c-0.2-0.7-0.2-1.3,0.2-1.8c0.3-0.4,0.9-0.7,1.5-0.7c1.1,0,2.3,1,2.7,2.1v0c3.5,10.2,4.1,21.1,1.9,31.7
	C333.3,107.4,332.2,108.3,331,108.3 M328.9,74c-0.2,0-0.2,0.1-0.1,0.3c3.5,10.2,4.1,21.1,1.9,31.7c0,0.2,0,0.4,0.1,0.5
	c0.1,0.1,0.2,0.1,0.3,0.1c0.4,0,0.8-0.3,0.9-0.8c2.2-10.3,1.6-20.9-1.8-30.8C330,74.5,329.3,74.1,328.9,74"/>
<path class="st2" d="M326.8,121.9c-2.8,5-6.3,9.6-10.6,13.8c-0.7,0.6-1.9,1.1-2.6,1.1c-0.8,0-0.9-0.6-0.2-1.2
	c4.3-4.1,7.8-8.8,10.6-13.8c0.4-0.8,1.4-1.4,2.2-1.3C326.9,120.4,327.2,121.1,326.8,121.9"/>
<path class="st2" d="M313.7,137.5c0,0-0.1,0-0.1,0c-0.9,0-1.3-0.6-1.4-0.8c-0.1-0.3-0.2-1,0.6-1.8c4.2-4,7.7-8.6,10.4-13.6
	c0.6-1,1.9-1.7,2.9-1.7c0.6,0,1.2,0.3,1.4,0.8c0.3,0.5,0.3,1.2-0.1,1.8l0,0c-2.9,5.2-6.5,9.9-10.7,14
	C316,137,314.7,137.5,313.7,137.5 M326.2,121.2c-0.6,0-1.2,0.4-1.5,0.9c-2.8,5.1-6.3,9.7-10.5,13.7c0.5-0.1,1.1-0.4,1.5-0.8
	c4.2-4,7.7-8.6,10.4-13.6C326.2,121.3,326.2,121.2,326.2,121.2L326.2,121.2z"/>
<path class="st3" d="M199.4,43.2c-22,20.9-26.9,53.4-13.7,79.4c0.5,0.9,1.6,1.7,2.5,1.7c0.9,0.1,1.3-0.6,0.8-1.6
	c-13.2-26-8.3-58.5,13.7-79.4c0.8-0.7,0.7-1.4-0.2-1.4C201.5,41.9,200.1,42.4,199.4,43.2"/>
<path class="st3" d="M188.3,125.2c0,0-0.1,0-0.1,0c-1.3-0.1-2.7-1.1-3.3-2.2c-13.6-26.7-7.9-59.8,13.9-80.5c0.9-0.9,2.6-1.6,3.8-1.5
	c1.1,0.1,1.5,0.7,1.6,1c0.1,0.4,0.2,1.1-0.7,2c-21.1,20.1-26.7,52.3-13.5,78.3c0.4,0.8,0.4,1.6,0,2.1
	C189.5,124.9,189,125.2,188.3,125.2 M201.7,42.9c-0.6,0.1-1.3,0.5-1.7,0.9l0,0c-21.2,20.1-26.7,52.3-13.5,78.3
	c0.3,0.6,1.2,1.2,1.7,1.2c0,0,0-0.1-0.1-0.2C174.7,96.5,180.2,63.6,201.7,42.9"/>
<path class="st3" d="M172.4,63.1c-5.2,11.2-7.1,23.6-5.8,35.8c0.1,1,1,1.8,1.9,1.9c0.9,0,1.5-0.7,1.4-1.7
	c-1.4-12.2,0.6-24.5,5.7-35.8c0.4-0.9,0-1.7-0.9-1.7C174,61.5,172.9,62.2,172.4,63.1"/>
<path class="st3" d="M168.6,101.7c0,0-0.1,0-0.1,0c-1.4-0.1-2.6-1.3-2.8-2.7c-1.4-12.5,0.6-25,5.8-36.3c0.6-1.3,2.1-2.2,3.3-2.1
	c0.7,0,1.3,0.4,1.6,0.9c0.4,0.6,0.4,1.4,0,2.1c-5.1,11-7,23.2-5.7,35.3c0.1,0.8-0.2,1.5-0.6,2.1
	C169.9,101.5,169.3,101.7,168.6,101.7 M174.9,62.5c-0.6,0-1.3,0.4-1.6,1c-5.1,11-7,23.2-5.7,35.3c0.1,0.6,0.6,1,1,1
	c0.2,0,0.2,0,0.3-0.1c0.1-0.1,0.2-0.3,0.1-0.6c-1.4-12.4,0.6-24.9,5.8-36.3c0.1-0.2,0.1-0.4,0.1-0.4
	C174.9,62.5,174.9,62.5,174.9,62.5"/>
<path class="st3" d="M171.7,117.8c2.6,6.1,6.1,11.8,10.6,17.1c0.7,0.8,2,1.5,2.9,1.6c0.9,0,1.1-0.6,0.4-1.4c-4.5-5.3-8-11-10.6-17.1
	c-0.4-0.9-1.4-1.7-2.4-1.8C171.7,116.1,171.3,116.9,171.7,117.8"/>
<path class="st3" d="M185.3,137.4c0,0-0.1,0-0.1,0c-1.2-0.1-2.8-0.9-3.6-1.9c-4.4-5.2-8.1-11.1-10.7-17.3c-0.3-0.8-0.3-1.5,0.1-2.1
	c0.4-0.5,1.1-0.8,1.8-0.8c1.3,0.1,2.6,1.1,3.2,2.4c2.6,6.1,6.1,11.7,10.4,16.9c0.9,1,0.7,1.7,0.5,2.1
	C186.7,136.8,186.3,137.4,185.3,137.4 M172.6,117.1c-0.1,0-0.1,0.1-0.1,0.3v0c2.6,6.1,6.1,11.8,10.4,16.9c0.4,0.5,1,0.9,1.6,1.1
	c-4.3-5.2-7.9-10.9-10.5-17C173.8,117.7,173.1,117.2,172.6,117.1"/>
<path class="st0" d="M260.4,30.3c14,1,27.9,5.7,39.9,14.2c0.7,0.5,1.3,1.6,1.3,2.4c0,0.8-0.6,1-1.3,0.5c-12-8.5-25.8-13.2-39.9-14.2
	c-0.9-0.1-1.6-0.7-1.6-1.5C258.8,30.8,259.5,30.2,260.4,30.3"/>
<path class="st0" d="M301,48.4c-0.4,0-0.8-0.1-1.2-0.4c-11.6-8.2-25.2-13-39.5-14c-1.3-0.1-2.3-1.1-2.3-2.3c0-0.6,0.2-1.1,0.7-1.5
	c0.5-0.4,1.1-0.6,1.7-0.6h0c14.5,1,28.4,6,40.3,14.3c0.9,0.7,1.7,2,1.7,3.1c0,0.7-0.3,1.2-0.8,1.4C301.4,48.4,301.2,48.4,301,48.4
	 M260.3,31.1c-0.2,0-0.4,0.1-0.5,0.2c-0.1,0.1-0.2,0.2-0.2,0.4c0,0.4,0.4,0.7,0.8,0.7c14.5,1,28.4,6,40.3,14.3c0,0,0,0,0,0
	c-0.1-0.6-0.5-1.2-1-1.6C288.2,37,274.6,32.1,260.3,31.1C260.3,31.1,260.3,31.1,260.3,31.1"/>
<path class="st0" d="M224.1,25.8c28.2-11.9,61.9-6.7,85.3,15.7c0.7,0.6,1.2,1.8,1.2,2.6c0,0.8-0.5,0.9-1.2,0.3
	C286,22,252.3,16.7,224.1,28.7c-0.8,0.3-1.4,0-1.4-0.8C222.6,27.1,223.3,26.1,224.1,25.8"/>
<path class="st0" d="M310.1,45.6c-0.3,0-0.8-0.1-1.3-0.6c-22.5-21.6-55.7-27.7-84.4-15.6c-0.7,0.3-1.3,0.2-1.8-0.1
	c-0.5-0.3-0.7-0.8-0.7-1.5c0-1.1,0.8-2.3,1.9-2.8c29.4-12.4,63.2-6.2,86.2,15.9c0.8,0.8,1.4,2.2,1.4,3.2c0,1-0.5,1.3-0.8,1.4
	C310.5,45.6,310.3,45.6,310.1,45.6 M254.8,21.6c20,0,39.7,7.6,54.8,21.9c-0.2-0.5-0.5-1.1-0.8-1.4c-22.5-21.6-55.7-27.7-84.4-15.5h0
	c-0.5,0.2-1,0.9-1,1.3c0,0.1,0.1,0.1,0.3,0.1C233.8,23.7,244.4,21.6,254.8,21.6"/>
<path class="st0" d="M233.6,12c17.3-4.8,36-3.6,52.6,3.6c0.8,0.3,1.4,1.3,1.4,2.1c0,0.8-0.6,1.1-1.4,0.8
	c-16.7-7.2-35.3-8.4-52.6-3.6c-0.8,0.2-1.5-0.2-1.5-1C232,13.1,232.7,12.2,233.6,12"/>
<path class="st0" d="M286.8,19.4c-0.3,0-0.6-0.1-0.9-0.2c-16.4-7.1-34.9-8.3-52.1-3.5c-0.7,0.2-1.3,0.1-1.8-0.3
	c-0.5-0.3-0.7-0.9-0.7-1.5c0-1.2,0.9-2.3,2.1-2.6c17.6-4.9,36.4-3.6,53.2,3.6c1.1,0.5,1.9,1.7,1.9,2.8c0,0.6-0.3,1.2-0.7,1.5
	C287.4,19.3,287.1,19.4,286.8,19.4 M254.8,11.2c10.8,0,21.7,2.2,31.7,6.5c0.2,0.1,0.3,0.1,0.3,0.1c0-0.5-0.4-1.2-1-1.5
	C269.5,9.2,251,8,233.8,12.8v0c-0.5,0.1-0.9,0.7-0.9,1.1c0,0.1,0,0.2,0.1,0.2c0.1,0,0.2,0.1,0.4,0C240.4,12.1,247.6,11.2,254.8,11.2
	"/>
<path class="st0" d="M212.9,42.1c9-5.7,18.9-9.3,29.1-11c0.8-0.1,1.5,0.4,1.5,1.2c0,0.8-0.7,1.5-1.5,1.7c-10.2,1.7-20.1,5.3-29.1,11
	c-0.8,0.5-1.4,0.2-1.4-0.6C211.6,43.6,212.2,42.6,212.9,42.1"/>
<path class="st0" d="M212.2,46c-0.2,0-0.5-0.1-0.7-0.2c-0.5-0.3-0.8-0.8-0.8-1.4c0-1.1,0.8-2.4,1.7-3l0,0c9-5.7,18.9-9.4,29.4-11.1
	c0.7-0.1,1.3,0.1,1.8,0.5c0.4,0.4,0.7,0.9,0.7,1.5c0,1.2-1,2.3-2.2,2.5c-10.3,1.7-20,5.3-28.8,10.9C213,45.9,212.6,46,212.2,46
	 M213.3,42.8c-0.5,0.3-0.9,1.1-1,1.6c0,0,0.1,0,0.1-0.1c9-5.6,18.9-9.4,29.4-11.1c0.5-0.1,0.9-0.5,0.9-0.9c0-0.1,0-0.2-0.1-0.3
	c-0.1-0.1-0.3-0.1-0.5-0.1C231.9,33.6,222.2,37.3,213.3,42.8"/>
<path class="st0" d="M200.2,31c5.2-5,11-9.2,17.1-12.5c0.8-0.4,1.4-0.1,1.4,0.7c0,0.8-0.6,1.8-1.4,2.2c-6.1,3.3-11.8,7.5-17.1,12.5
	c-0.7,0.6-1.2,0.5-1.2-0.3C199.1,32.8,199.6,31.6,200.2,31"/>
<path class="st0" d="M199.5,35.1c-0.2,0-0.4,0-0.5-0.1c-0.2-0.1-0.8-0.4-0.8-1.4c0-1,0.6-2.4,1.4-3.2c5.2-5,11-9.2,17.3-12.6
	c0.7-0.4,1.3-0.4,1.8-0.1c0.5,0.3,0.8,0.8,0.8,1.5c0,1.1-0.8,2.3-1.8,2.9c-6.1,3.3-11.8,7.5-16.9,12.3
	C200.3,35,199.8,35.1,199.5,35.1 M200.8,31.6c-0.4,0.4-0.7,0.9-0.8,1.4c5.1-4.9,10.8-9,17-12.3c0.6-0.3,1-1,1-1.5
	c0.1-0.1,0-0.1-0.2,0C211.6,22.6,205.9,26.7,200.8,31.6"/>
</svg>
