<?xml version="1.0" encoding="utf-8"?>
<!-- Generator: Adobe Illustrator 21.0.0, SVG Export Plug-In . SVG Version: 6.00 Build 0)  -->
<svg version="1.1" id="Calque_1" xmlns="http://www.w3.org/2000/svg" xmlns:xlink="http://www.w3.org/1999/xlink" x="0px" y="0px"
	 viewBox="0 0 500 500" style="enable-background:new 0 0 500 500;" xml:space="preserve">
<style type="text/css">
	.st0{fill:#A8A8A8;}
	.st1{fill-rule:evenodd;clip-rule:evenodd;fill:#A8A8A8;}
</style>
<g>
	<path class="st0" d="M-420,183.4V67.6h-99.6c-22.7,0-41.1,18.4-41.1,41.1v282.4c0,22.7,18.4,41.1,41.1,41.1h187
		c22.7,0,41.1-18.4,41.1-41.1v-173h-93.8C-404.5,218.1-420,202.6-420,183.4z"/>
	<path class="st0" d="M-387.4,70.6v99.2c0,8.6,7,15.6,15.6,15.6h80.2L-387.4,70.6z"/>
</g>
<g>
	<g>
		<path class="st0" d="M-427.8,259.1c-42.8,0-77.6-34.8-77.6-77.6v-24.2c0-42.8,34.8-77.6,77.6-77.6s77.6,34.8,77.6,77.6v24.2
			C-350.2,224.3-385,259.1-427.8,259.1z M-427.8,93.3c-35.3,0-64,28.7-64,64v24.2c0,35.3,28.7,64,64,64s64-28.7,64-64v-24.2
			C-363.8,122-392.5,93.3-427.8,93.3z"/>
	</g>
	<g>
		<path class="st0" d="M-356.6,420.1h-139.1c-22.8,0-41.3-18.5-41.3-41.3v-72.2c0-28,22.8-50.9,50.8-50.9h120
			c28,0,50.9,22.8,50.9,50.9v72.2C-315.3,401.6-333.8,420.1-356.6,420.1z M-486.2,269.5c-20.5,0-37.2,16.7-37.2,37.2v72.2
			c0,15.2,12.4,27.6,27.6,27.6h139.1c15.2,0,27.6-12.4,27.6-27.6v-72.2c0-20.5-16.7-37.2-37.2-37.2H-486.2z"/>
	</g>
</g>
<g>
	<g>
		<g>
			<path class="st0" d="M-267.9,381.3l-27.4-45.6c-12.6-21.1-19.3-45.1-19.3-69.7v-40c0-61.5-50.1-111.5-111.5-111.5
				S-537.7,164.5-537.7,226v40c0,24.6-6.7,48.7-19.3,69.7l-27.4,45.6c-1.5,2.5-1.5,5.5-0.1,8c1.4,2.5,4.1,4,6.9,4h302.8
				c2.9,0,5.5-1.5,6.9-4C-266.4,386.8-266.5,383.7-267.9,381.3z M-563.5,377.4l20.1-33.5c14.1-23.5,21.6-50.5,21.6-77.9v-40
				c0-52.7,42.9-95.6,95.6-95.6s95.6,42.9,95.6,95.6v40c0,27.4,7.5,54.4,21.6,77.9l20.1,33.5L-563.5,377.4L-563.5,377.4z"/>
		</g>
	</g>
	<g>
		<g>
			<path class="st0" d="M-426.2,58.7c-17.6,0-31.9,14.3-31.9,31.9v31.9c0,4.4,3.6,8,8,8s8-3.6,8-8V90.5c0-8.8,7.1-15.9,15.9-15.9
				c8.8,0,15.9,7.1,15.9,15.9v31.9c0,4.4,3.6,8,8,8c4.4,0,8-3.6,8-8V90.5C-394.3,73-408.6,58.7-426.2,58.7z"/>
		</g>
	</g>
	<g>
		<g>
			<path class="st0" d="M-391.7,381.3c-2.2-3.8-7.1-5-10.9-2.9c-3.8,2.2-5.1,7.1-2.9,10.9c2.1,3.5,3.2,7.7,3.2,11.9
				c0,13.2-10.7,23.9-23.9,23.9s-23.9-10.7-23.9-23.9c0-4.2,1.1-8.4,3.2-11.9c2.2-3.8,0.9-8.7-2.9-10.9c-3.8-2.2-8.7-0.9-10.9,2.9
				c-3.5,6-5.4,12.9-5.4,20c0,22,17.9,39.8,39.8,39.8c22,0,39.8-17.9,39.9-39.8C-386.3,394.2-388.2,387.3-391.7,381.3z"/>
		</g>
	</g>
</g>
<g>
	<path class="st0" d="M-426.2,223l49.6-69.9h47.4l-71.4,96l73,97.6h-47.8l-50.8-71l-50.9,71h-47.7l73.1-97.6l-71.5-96h47.4
		L-426.2,223z"/>
</g>
<g>
	<path class="st0" d="M-312.3,113.2c-14.1,0-25.4,11.4-25.4,25.4c0,14.1,11.4,25.4,25.4,25.4c14.1,0,25.4-11.4,25.4-25.4
		C-286.9,124.6-298.3,113.2-312.3,113.2z M-425.4,145.8c-58.9,0-106.9,48-106.9,106.9s48,106.9,106.9,106.9s106.9-48,106.9-106.9
		S-366.5,145.8-425.4,145.8z M-425.4,321.2c-37.8,0-68.5-30.7-68.5-68.5c0-37.8,30.7-68.5,68.5-68.5c37.8,0,68.5,30.7,68.5,68.5
		C-357,290.4-387.7,321.2-425.4,321.2z M-209.8,163.9c0-72-58.4-130.4-130.4-130.4h-172.1c-72,0-130.4,58.4-130.4,130.4v172.1
		c0,72,58.4,130.4,130.4,130.4h172.1c72,0,130.4-58.4,130.4-130.4V163.9z M-250.6,335.9c0,49.5-40.1,89.5-89.5,89.5h-172.1
		c-49.5,0-89.5-40.1-89.5-89.5V163.9c0-49.5,40.1-89.5,89.5-89.5h172.1c49.5,0,89.5,40.1,89.5,89.5V335.9z"/>
</g>
<g>
	<g>
		<g>
			<path class="st0" d="M-221.8,195.8c0-49.1-39.8-89-89-89h-230.7c-49.1,0-89,39.8-89,89V304c0,49.1,39.8,89,89,89h230.7
				c49.1,0,89-39.8,89-89V195.8z M-367.4,255.3l-92,50.5c-4,2.2-7.6-0.7-7.6-5.3V196.9c0-4.6,3.7-7.5,7.7-5.2l92.6,53.1
				C-362.6,247.2-363.3,253.1-367.4,255.3z"/>
		</g>
	</g>
</g>
<g>
	<g>
		<g>
			<path class="st0" d="M445,123.6c-12.8,5.8-26.9,9.3-40.8,11.6c6.6-1.1,16.2-13,20.1-17.8c5.9-7.3,10.8-15.7,13.6-24.7
				c0.4-0.7,0.6-1.6-0.1-2.1c-0.9-0.4-1.5-0.2-2.2,0.2c-15.4,8.3-31.4,14.3-48.4,18.5c-1.4,0.4-2.5,0-3.3-0.9
				c-1.4-1.6-2.7-3.1-4.2-4.3c-7.1-6.1-14.8-10.8-23.5-14.4c-11.3-4.6-23.7-6.6-36-5.8c-11.9,0.8-23.6,4.1-34.1,9.6
				c-10.6,5.5-20,13.2-27.5,22.5c-7.8,9.6-13.5,20.9-16.4,32.9c-2.8,11.6-2.6,23-0.9,34.8c0.3,1.9,0.1,2.2-1.7,1.9
				C173.2,175.8,118.1,152,73.4,101c-1.9-2.2-3-2.2-4.6,0.2c-19.6,29.3-10.1,76.5,14.4,99.7c3.3,3.1,6.6,6.2,10.2,9
				c-1.3,0.3-17.6-1.5-32.1-9c-1.9-1.2-2.9-0.5-3.1,1.7c-0.2,3.2,0.1,6.1,0.5,9.5c3.8,29.7,24.4,57.3,52.6,68
				c3.4,1.4,7.1,2.6,10.7,3.3c-6.4,1.4-13,2.4-31.5,1c-2.3-0.4-3.2,0.7-2.3,2.9c13.9,37.8,43.8,49,66.1,55.4c3,0.5,6,0.5,9,1.2
				c-0.2,0.3-0.4,0.3-0.5,0.5c-7.4,11.3-33.2,19.8-45.2,23.9c-21.8,7.6-45.6,11.1-68.6,8.8c-3.7-0.5-4.5-0.5-5.5,0
				c-1,0.6-0.1,1.5,1.1,2.5c4.7,3.1,9.4,5.8,14.3,8.5c14.6,7.8,29.9,13.9,45.9,18.3c82.4,22.8,175.3,6,237.1-55.4
				c48.6-48.3,65.6-114.9,65.6-181.5c0-2.6,3.1-4.1,4.9-5.4c12.6-9.5,22.7-20.9,32.1-33.6c2.1-2.9,2-5.4,2-6.4c0-0.2,0-0.4,0-0.4
				C446.6,122.5,446.7,122.8,445,123.6z"/>
		</g>
		<g>
			<path class="st1" d="M162.9,414.6C197.1,414.6,164.6,414.6,162.9,414.6C167.4,414.6,162.7,414.6,162.9,414.6z"/>
		</g>
		<g>
			<path class="st1" d="M162.9,414.6C162.4,414.7,156.3,414.6,162.9,414.6C162.9,414.6,161.9,414.6,162.9,414.6z"/>
		</g>
		<g>
			<path class="st1" d="M176.5,415C176.5,414.3,183.7,415,176.5,415C176.5,414.6,177.4,415,176.5,415z"/>
		</g>
		<g>
			<path class="st1" d="M319.2,84.2c-0.4,0.4-1.1,0.4-1.7,0C318.2,84.2,318.8,84.2,319.2,84.2z"/>
		</g>
	</g>
</g>
</svg>
