<?xml version="1.0" encoding="utf-8"?>
<!-- Generator: Adobe Illustrator 21.0.0, SVG Export Plug-In . SVG Version: 6.00 Build 0)  -->
<svg version="1.1" id="Calque_1" xmlns="http://www.w3.org/2000/svg" xmlns:xlink="http://www.w3.org/1999/xlink" x="0px" y="0px"
	 viewBox="0 0 500 500" style="enable-background:new 0 0 500 500;" xml:space="preserve">
<style type="text/css">
	.st0{fill:#352564;}
	.st1{fill:#FFFFFF;}
	.st2{fill:#1A2F35;}
	.st3{fill:#EAEAEA;}
	.st4{fill:url(#SVGID_3_);}
	.st5{fill:#E0DFE0;}
	.st6{fill:#E9515E;}
	.st7{fill:url(#SVGID_4_);}
	.st8{fill:none;}
	.st9{fill:#FCC306;}
	.st10{fill:url(#SVGID_5_);}
	.st11{fill:#78C4B2;}
	.st12{fill:#385A65;}
	.st13{fill:url(#SVGID_6_);}
	.st14{fill:#C68877;}
	.st15{fill:#BE654E;}
	.st16{fill:url(#SVGID_7_);}
	.st17{fill:url(#SVGID_8_);}
	.st18{opacity:0.6;}
	.st19{clip-path:url(#SVGID_10_);fill:#FFFFFF;}
	.st20{clip-path:url(#SVGID_12_);fill:#FFFFFF;}
	.st21{clip-path:url(#SVGID_14_);fill:#FFFFFF;}
	.st22{opacity:0.2;}
	.st23{clip-path:url(#SVGID_16_);fill:#000100;}
	.st24{clip-path:url(#SVGID_18_);fill:#000100;}
	.st25{fill:#F9F9FA;}
</style>
<g>
	<g>
		<defs>
			<rect id="SVGID_1_" x="0.5" y="-0.9" width="500" height="500"/>
		</defs>
		<clipPath id="SVGID_2_">
			<use xlink:href="#SVGID_1_"  style="overflow:visible;"/>
		</clipPath>
	</g>
	<path class="st0" d="M405.7,369.8l-95.6-0.1c-11.5,0-20.8-9.3-20.8-20.8l0-239.7c0-11.5,9.3-20.8,20.8-20.8l95.6,0.1
		c11.5,0,20.8,9.3,20.8,20.8l0,239.7C426.5,360.5,417.2,369.8,405.7,369.8"/>
	<path class="st1" d="M405.7,97l-18.5,0c-2.5,0-4.5,2.1-4.5,4.7l0,3.4c0,2.6-2,4.7-4.5,4.7l-36.1,0c-2.5,0-4.5-2.1-4.5-4.7l0-3.4
		c0-2.6-2-4.7-4.5-4.7l-6.5,0l-16.2,0c-8.1,0-14.6,6.5-14.6,14.6l0,233.9c0,8.1,6.5,14.6,14.6,14.6l95.4,0.1
		c8.1,0,14.6-6.5,14.6-14.6l0-233.9C420.2,103.5,413.7,97,405.7,97"/>
	<path class="st2" d="M405.8,97.2c0,0,0.2,0,0.5,0c0.3,0,0.8,0,1.5,0.1c1.3,0.2,3.3,0.6,5.5,1.9c1.1,0.6,2.3,1.5,3.3,2.7
		c1.1,1.2,2.1,2.6,2.8,4.4c0.7,1.7,1.1,3.8,1.1,5.9c0,2.2,0,4.5,0,6.9c0,19.5,0,47.7,0.1,82.6c0,34.9,0,76.4,0,122.4v17.5v4.4
		c0,1.5-0.1,3-0.6,4.5c-0.4,1.4-1,2.9-1.9,4.1c-0.8,1.3-1.9,2.4-3,3.4c-2.4,1.9-5.4,3.1-8.5,3.3c-3.1,0.1-6.1,0-9.2,0
		c-6.2,0-12.4,0-18.6,0c-12.5,0-25.3,0-38.2,0c-6.5,0-13,0-19.6,0c-3.3,0-6.6,0-9.9,0c-3.3,0.2-6.8-0.7-9.5-2.6
		c-2.8-1.9-4.8-4.8-5.8-8c-0.5-1.6-0.6-3.3-0.6-5c0-1.6,0-3.3,0-4.9c0-6.6,0-13.1,0-19.6c0-13,0-25.7,0-38.3c0-25.1,0-49.3,0-72.3
		c0-23,0-44.9,0-65.4c0-10.2,0-20.1,0-29.7c0-1.2,0-2.4,0-3.5c0-0.6,0.1-1.2,0.1-1.8c0.1-0.6,0.1-1.2,0.3-1.7
		c0.5-2.3,1.6-4.4,3.1-6.2c1.5-1.8,3.4-3.1,5.4-4.1c2.1-0.9,4.3-1.3,6.5-1.2c4.4,0,8.6,0,12.8,0c2.1,0,4.1,0,6.1,0c1,0,2,0,3,0
		c1,0,2.1,0.2,2.9,0.8c0.8,0.6,1.5,1.4,1.8,2.4c0.4,0.9,0.3,2,0.3,2.9c0,0.5,0,1,0,1.4c0,0.5,0,0.9,0,1.4c0.1,0.9,0.5,1.8,1.1,2.4
		c0.6,0.7,1.4,1.2,2.2,1.4c0.4,0.1,0.9,0.1,1.3,0.1c0.5,0,0.9,0,1.3,0c1.8,0,3.6,0,5.3,0c6.9,0,13.4,0,19.3,0c3,0,5.8,0,8.5,0
		c0.7,0,1.4,0,2,0c0.6-0.1,1.3-0.3,1.8-0.6c1.1-0.7,1.8-1.8,2-2.9c0.1-0.6,0.1-1.2,0.1-1.8c0-0.6,0-1.2,0-1.8c0-0.6,0-1.1,0.1-1.7
		c0.1-0.6,0.3-1.1,0.6-1.6c0.5-1,1.4-1.7,2.3-2.1c1-0.4,2-0.3,2.9-0.3c3.8,0,6.9,0,9.5,0c2.6,0,4.5,0,5.8,0
		C405.2,97.2,405.8,97.2,405.8,97.2s-0.7,0-2,0c-1.3,0-3.3,0-5.8,0c-2.6,0-5.7,0-9.5,0c-0.9,0-1.9-0.1-2.9,0.3
		c-0.9,0.4-1.8,1.1-2.3,2c-0.3,0.5-0.4,1-0.5,1.5c-0.1,0.5-0.1,1.1-0.1,1.7c0,0.6,0,1.2,0,1.8c0,0.6,0,1.2-0.1,1.8
		c-0.3,1.2-1,2.4-2.1,3.1c-0.6,0.3-1.2,0.6-1.9,0.7c-0.7,0.1-1.3,0-2,0c-2.7,0-5.5,0-8.5,0c-5.9,0-12.4,0-19.3,0c-1.7,0-3.5,0-5.3,0
		c-0.4,0-0.9,0-1.3,0c-0.4,0-0.9,0-1.4-0.1c-0.9-0.2-1.8-0.7-2.4-1.5c-0.6-0.7-1-1.6-1.2-2.6c-0.1-0.5,0-1,0-1.4V103
		c0-1,0.1-1.9-0.3-2.8c-0.3-0.9-0.9-1.7-1.7-2.2c-0.8-0.5-1.7-0.8-2.7-0.8h-3h-6.1c-4.1,0-8.4,0-12.8,0c-2.2,0-4.4,0.3-6.4,1.2
		c-2,0.9-3.8,2.3-5.3,4c-1.5,1.7-2.5,3.8-3,6.1c-0.1,0.6-0.2,1.1-0.3,1.7c0,0.6-0.1,1.2-0.1,1.7c0,1.2,0,2.4,0,3.5
		c0,9.5,0,19.4,0,29.7c0,20.5,0,42.4,0,65.4c0,23,0,47.2,0,72.3c0,12.5,0,25.3,0,38.3c0,6.5,0,13,0,19.6c0,1.6,0,3.3,0,4.9
		c0,1.6,0.1,3.3,0.6,4.8c0.9,3.1,2.9,5.9,5.6,7.8c2.7,1.9,6,2.7,9.3,2.6c3.3,0,6.6,0,9.9,0c6.6,0,13.1,0,19.6,0
		c12.9,0,25.7,0,38.2,0c6.3,0,12.5,0,18.6,0c3.1,0,6.2,0,9.2,0c3-0.1,5.9-1.3,8.2-3.2c1.1-1,2.1-2.1,3-3.3c0.8-1.2,1.4-2.6,1.8-4
		c0.4-1.4,0.5-2.9,0.5-4.4c0-1.5,0-3,0-4.4c0-5.9,0-11.7,0-17.5c0-46.1,0-87.6,0.1-122.4c0-34.9,0.1-63.1,0.1-82.6
		c0-2.4,0-4.7,0-6.9c0-2.2-0.4-4.2-1.1-5.9c-0.7-1.7-1.7-3.2-2.7-4.3c-1.1-1.2-2.2-2.1-3.3-2.7c-2.2-1.3-4.2-1.8-5.5-1.9
		c-0.6-0.1-1.1-0.1-1.5-0.1C406,97.2,405.8,97.2,405.8,97.2"/>
	<path class="st2" d="M408.7,120.9c0,0.1-2.4,0.1-5.4,0.2c-3,0-5.4,0-5.4-0.1c0-0.1,2.4-0.1,5.4-0.2
		C406.3,120.8,408.7,120.8,408.7,120.9"/>
	<path class="st2" d="M408.7,123.6c0,0.1-2.4,0.1-5.4,0.2c-3,0-5.4,0-5.4-0.1c0-0.1,2.4-0.1,5.4-0.2
		C406.3,123.5,408.7,123.6,408.7,123.6"/>
	<path class="st2" d="M408.7,126.4c0,0.1-2.4,0.1-5.4,0.2c-3,0-5.4,0-5.4-0.1c0-0.1,2.4-0.1,5.4-0.2
		C406.3,126.3,408.7,126.3,408.7,126.4"/>
	<path class="st2" d="M310.4,129.5c0,0,0.1,0,0.2,0c0.2,0,0.4,0,0.6,0c0.6,0,1.4,0,2.3-0.1l-0.1,0.1c0-0.5,0-1.1,0-1.7
		c0-0.3,0-0.6,0-1c0.1-0.4,0.4-0.7,0.8-0.7c0.4,0,0.7,0,1.1,0c0.4,0.1,0.8,0.5,0.8,0.9c0,0.8,0,1.6,0,2.4l-0.1-0.1
		c0.9,0,1.9,0,2.9,0l-0.1,0.1c0-1.2,0-2.4,0-3.6c0-0.3,0-0.6,0-0.9c0-0.3-0.2-0.5-0.4-0.7c-0.4-0.4-0.9-0.8-1.3-1.3
		c-0.4-0.4-0.8-0.8-1.2-1.2c-0.2-0.2-0.4-0.4-0.6-0.6c-0.2-0.2-0.4-0.4-0.6-0.5c-0.2-0.1-0.5,0-0.7,0.1c-0.2,0.1-0.4,0.4-0.5,0.5
		c-0.4,0.4-0.7,0.7-1,1.1c-0.7,0.7-1.3,1.3-1.8,1.9c-0.2,0.3-0.1,0.7-0.1,1.1c0,0.4,0,0.7,0,1c0,0.6,0,1.2,0,1.7c0,0.4,0,0.8,0,1.1
		C310.4,129.4,310.4,129.5,310.4,129.5c0,0,0-0.1,0-0.4c0-0.3,0-0.6,0-1c0-0.5,0-1,0-1.7c0-0.3,0-0.7,0-1c0-0.2,0-0.4,0-0.6
		c0-0.2,0.1-0.4,0.2-0.6c0.5-0.7,1.2-1.2,1.8-1.9c0.3-0.3,0.7-0.7,1-1.1c0.2-0.2,0.3-0.4,0.6-0.6c0.2-0.2,0.6-0.2,0.8-0.2
		c0.3,0.1,0.5,0.3,0.7,0.5c0.2,0.2,0.4,0.4,0.6,0.6c0.4,0.4,0.8,0.8,1.2,1.2c0.4,0.4,0.8,0.8,1.3,1.3c0.1,0.1,0.2,0.2,0.3,0.4
		c0.1,0.1,0.1,0.3,0.2,0.5c0,0.3,0,0.6,0,0.9c0,1.2,0,2.5,0,3.6l0,0.1l-0.1,0c-1,0-2,0-2.9,0h-0.1l0-0.1c0-0.8,0-1.7,0-2.4
		c0-0.4-0.3-0.7-0.6-0.7c-0.3,0-0.7,0-1.1,0c-0.3,0-0.6,0.3-0.6,0.6c0,0.3,0,0.6,0,0.9c0,0.6,0,1.2,0,1.7v0.1l-0.1,0
		c-1,0-1.7,0-2.3,0c-0.2,0-0.4,0-0.6,0C310.5,129.6,310.4,129.6,310.4,129.5"/>
	<rect x="316.1" y="236.5" class="st3" width="82.4" height="16.8"/>
	<rect x="316.1" y="260.9" class="st3" width="82.4" height="16.8"/>
	<linearGradient id="SVGID_3_" gradientUnits="userSpaceOnUse" x1="329.6689" y1="303.2168" x2="387.832" y2="303.2168">
		<stop  offset="0" style="stop-color:#704091"/>
		<stop  offset="1" style="stop-color:#45277C"/>
	</linearGradient>
	<path class="st4" d="M379.4,311.6h-41.3c-4.6,0-8.4-3.8-8.4-8.4c0-4.6,3.8-8.4,8.4-8.4h41.3c4.6,0,8.4,3.8,8.4,8.4
		C387.8,307.9,384.1,311.6,379.4,311.6"/>
	<path class="st5" d="M327.4,248.6h-3.6c-0.4,0-0.6-0.3-0.6-0.6c0-1.3,1.1-2.4,2.4-2.4h0.1c1.3,0,2.4,1.1,2.4,2.4
		C328.1,248.3,327.8,248.6,327.4,248.6"/>
	<path class="st5" d="M327.1,244.3c0,0.8-0.6,1.4-1.4,1.4c-0.8,0-1.4-0.6-1.4-1.4c0-0.8,0.6-1.4,1.4-1.4
		C326.4,242.8,327.1,243.5,327.1,244.3"/>
	<rect x="323.4" y="269.6" class="st5" width="4.3" height="3.1"/>
	<path class="st5" d="M328.3,270.2h-1.5v-0.9c0-0.7-0.6-1.2-1.2-1.2c-0.7,0-1.2,0.6-1.2,1.2v0.9h-1.5v-0.9c0-1.5,1.2-2.7,2.7-2.7
		c1.5,0,2.7,1.2,2.7,2.7V270.2z"/>
	<polygon class="st5" points="335.5,321.9 335.5,323.4 337.4,323.4 337.4,323.7 335.5,323.7 335.5,325.3 335.1,325.3 335.1,321.6 
		337.6,321.6 337.6,321.9 	"/>
	<path class="st5" d="M338,323.9c0-0.8,0.6-1.4,1.4-1.4c0.8,0,1.4,0.6,1.4,1.4c0,0.8-0.6,1.4-1.4,1.4
		C338.6,325.3,338,324.7,338,323.9 M340.4,323.9c0-0.7-0.4-1.1-1-1.1c-0.6,0-1,0.4-1,1.1c0,0.7,0.4,1.1,1,1.1
		C340,325,340.4,324.6,340.4,323.9"/>
	<path class="st5" d="M343,322.5v0.4c0,0-0.1,0-0.1,0c-0.6,0-0.9,0.4-0.9,1v1.4h-0.4v-2.8h0.4v0.5
		C342.1,322.7,342.4,322.5,343,322.5"/>
	<path class="st5" d="M346.2,322.5v2.4c0,1-0.5,1.4-1.4,1.4c-0.5,0-1-0.2-1.3-0.4l0.2-0.3c0.3,0.2,0.7,0.4,1.1,0.4c0.7,0,1-0.3,1-1
		v-0.4c-0.2,0.4-0.6,0.5-1.1,0.5c-0.8,0-1.4-0.6-1.4-1.4c0-0.8,0.6-1.3,1.4-1.3c0.5,0,0.9,0.2,1.1,0.6v-0.5H346.2z M345.8,323.8
		c0-0.6-0.4-1-1.1-1c-0.6,0-1.1,0.4-1.1,1c0,0.6,0.4,1,1.1,1C345.4,324.9,345.8,324.4,345.8,323.8"/>
	<path class="st5" d="M347,323.9c0-0.8,0.6-1.4,1.4-1.4c0.8,0,1.4,0.6,1.4,1.4c0,0.8-0.6,1.4-1.4,1.4
		C347.6,325.3,347,324.7,347,323.9 M349.4,323.9c0-0.7-0.4-1.1-1-1.1c-0.6,0-1,0.4-1,1.1c0,0.7,0.4,1.1,1,1.1
		C349,325,349.4,324.6,349.4,323.9"/>
	<path class="st5" d="M352,325.1c-0.1,0.1-0.4,0.2-0.6,0.2c-0.5,0-0.8-0.3-0.8-0.8v-1.7h-0.5v-0.3h0.5v-0.6h0.4v0.6h0.8v0.3H351v1.7
		c0,0.3,0.2,0.5,0.5,0.5c0.2,0,0.3,0,0.4-0.1L352,325.1z"/>
	<path class="st5" d="M356.9,323.9c0,0.8-0.6,1.4-1.4,1.4c-0.4,0-0.8-0.2-1.1-0.6v1.6h-0.4v-3.8h0.4v0.6c0.2-0.4,0.6-0.6,1.1-0.6
		C356.3,322.5,356.9,323.1,356.9,323.9 M356.5,323.9c0-0.6-0.5-1.1-1-1.1c-0.6,0-1,0.4-1,1.1c0,0.7,0.4,1.1,1,1.1
		C356.1,325,356.5,324.6,356.5,323.9"/>
	<path class="st5" d="M359.8,323.6v1.7h-0.4v-0.4c-0.2,0.3-0.5,0.5-1,0.5c-0.6,0-1-0.3-1-0.8c0-0.4,0.3-0.8,1.1-0.8h0.9v-0.2
		c0-0.5-0.3-0.7-0.8-0.7c-0.4,0-0.7,0.1-0.9,0.3l-0.2-0.3c0.3-0.2,0.7-0.4,1.1-0.4C359.4,322.5,359.8,322.9,359.8,323.6
		 M359.4,324.5V324h-0.9c-0.5,0-0.7,0.2-0.7,0.5c0,0.3,0.3,0.5,0.7,0.5C358.9,325,359.2,324.8,359.4,324.5"/>
	<path class="st5" d="M360.4,325l0.2-0.3c0.2,0.2,0.6,0.3,1,0.3c0.5,0,0.7-0.2,0.7-0.5c0-0.7-1.8-0.2-1.8-1.3c0-0.5,0.4-0.8,1.1-0.8
		c0.4,0,0.8,0.1,1,0.3l-0.2,0.3c-0.2-0.2-0.5-0.2-0.8-0.2c-0.5,0-0.7,0.2-0.7,0.5c0,0.8,1.8,0.2,1.8,1.3c0,0.5-0.4,0.8-1.1,0.8
		C361.1,325.3,360.6,325.2,360.4,325"/>
	<path class="st5" d="M363,325l0.2-0.3c0.2,0.2,0.6,0.3,1,0.3c0.5,0,0.7-0.2,0.7-0.5c0-0.7-1.8-0.2-1.8-1.3c0-0.5,0.4-0.8,1.1-0.8
		c0.4,0,0.8,0.1,1,0.3l-0.2,0.3c-0.2-0.2-0.5-0.2-0.8-0.2c-0.5,0-0.7,0.2-0.7,0.5c0,0.8,1.8,0.2,1.8,1.3c0,0.5-0.4,0.8-1.1,0.8
		C363.7,325.3,363.2,325.2,363,325"/>
	<polygon class="st5" points="370,322.5 368.9,325.3 368.6,325.3 367.7,323 366.8,325.3 366.5,325.3 365.4,322.5 365.8,322.5 
		366.7,324.9 367.6,322.5 367.9,322.5 368.8,324.9 369.7,322.5 	"/>
	<path class="st5" d="M370.2,323.9c0-0.8,0.6-1.4,1.4-1.4c0.8,0,1.4,0.6,1.4,1.4c0,0.8-0.6,1.4-1.4,1.4
		C370.8,325.3,370.2,324.7,370.2,323.9 M372.7,323.9c0-0.7-0.4-1.1-1-1.1c-0.6,0-1,0.4-1,1.1c0,0.7,0.4,1.1,1,1.1
		C372.2,325,372.7,324.6,372.7,323.9"/>
	<path class="st5" d="M375.2,322.5v0.4c0,0-0.1,0-0.1,0c-0.6,0-0.9,0.4-0.9,1v1.4h-0.4v-2.8h0.4v0.5
		C374.3,322.7,374.7,322.5,375.2,322.5"/>
	<path class="st5" d="M378.4,321.4v3.9H378v-0.6c-0.2,0.4-0.6,0.6-1.1,0.6c-0.8,0-1.4-0.6-1.4-1.4c0-0.8,0.6-1.4,1.4-1.4
		c0.4,0,0.8,0.2,1.1,0.6v-1.7H378.4z M378,323.9c0-0.7-0.4-1.1-1-1.1c-0.6,0-1,0.4-1,1.1c0,0.7,0.4,1.1,1,1.1
		C377.6,325,378,324.6,378,323.9"/>
	<path class="st5" d="M381.1,322.5c0-0.4-0.3-0.6-0.9-0.6c-0.4,0-0.8,0.1-1,0.4l-0.3-0.2c0.3-0.4,0.7-0.6,1.3-0.6
		c0.7,0,1.2,0.4,1.2,0.9c0,0.9-1,0.9-1,1.7h-0.4C380.2,323.3,381.1,323.2,381.1,322.5 M380.1,325c0-0.2,0.1-0.3,0.3-0.3
		c0.2,0,0.3,0.1,0.3,0.3c0,0.1-0.1,0.3-0.3,0.3C380.2,325.3,380.1,325.2,380.1,325"/>
	<polygon class="st2" points="338,218.7 338,225.6 337.2,225.6 333,220.4 333,225.6 332,225.6 332,218.7 332.8,218.7 337,223.8 
		337,218.7 	"/>
	<path class="st2" d="M339.7,218.7c0-0.3,0.3-0.6,0.6-0.6s0.6,0.3,0.6,0.6c0,0.4-0.3,0.6-0.6,0.6C340,219.4,339.7,219.1,339.7,218.7
		 M339.9,220.4h0.9v5.2h-0.9V220.4z"/>
	<path class="st2" d="M342.2,223c0-1.6,1.2-2.7,2.8-2.7c0.9,0,1.7,0.4,2.1,1.1l-0.7,0.5c-0.3-0.5-0.9-0.8-1.4-0.8
		c-1,0-1.8,0.7-1.8,1.8c0,1.1,0.8,1.8,1.8,1.8c0.6,0,1.1-0.2,1.4-0.8l0.7,0.5c-0.4,0.7-1.2,1.1-2.1,1.1
		C343.3,225.6,342.2,224.5,342.2,223"/>
	<polygon class="st2" points="350.2,223.2 349.2,224.2 349.2,225.6 348.2,225.6 348.2,218.3 349.2,218.3 349.2,223 352,220.4 
		353.2,220.4 351,222.5 353.4,225.6 352.2,225.6 	"/>
	<path class="st2" d="M359.2,222.6v3h-0.7v-2.9c0-1.1-0.6-1.7-1.6-1.7c-1.1,0-1.8,0.7-1.8,1.9v2.7h-0.7v-5.2h0.7v1
		c0.4-0.6,1.1-1,2-1C358.3,220.4,359.2,221.1,359.2,222.6"/>
	<path class="st2" d="M365,222.4v3.2h-0.7v-0.8c-0.3,0.5-0.9,0.9-1.8,0.9c-1.2,0-1.9-0.6-1.9-1.5c0-0.8,0.5-1.5,2-1.5h1.6v-0.3
		c0-0.9-0.5-1.4-1.5-1.4c-0.7,0-1.3,0.2-1.7,0.6l-0.3-0.5c0.5-0.4,1.3-0.7,2.1-0.7C364.2,220.4,365,221,365,222.4 M364.3,224v-0.8
		h-1.6c-1,0-1.3,0.4-1.3,0.9c0,0.6,0.5,1,1.3,1C363.4,225.1,364,224.7,364.3,224"/>
	<path class="st2" d="M375.5,222.6v3h-0.7v-2.9c0-1.1-0.6-1.7-1.5-1.7c-1.1,0-1.7,0.7-1.7,1.9v2.7h-0.7v-2.9c0-1.1-0.6-1.7-1.5-1.7
		c-1.1,0-1.7,0.7-1.7,1.9v2.7h-0.7v-5.2h0.7v0.9c0.4-0.6,1-1,1.9-1c0.9,0,1.5,0.4,1.8,1.1c0.4-0.7,1.1-1.1,2.1-1.1
		C374.6,220.4,375.5,221.1,375.5,222.6"/>
	<path class="st2" d="M381.9,223.2h-4.3c0.1,1.1,0.9,1.8,2,1.8c0.6,0,1.2-0.2,1.6-0.7l0.4,0.5c-0.5,0.6-1.2,0.8-2,0.8
		c-1.6,0-2.7-1.1-2.7-2.6c0-1.5,1.1-2.6,2.5-2.6c1.5,0,2.5,1.1,2.5,2.6C381.9,223.1,381.9,223.1,381.9,223.2 M377.5,222.7h3.7
		c-0.1-1-0.8-1.7-1.8-1.7C378.4,221,377.6,221.7,377.5,222.7"/>
	<path class="st6" d="M350.2,333.4l0.2-0.4c0.2,0.2,0.7,0.4,1.1,0.4c0.6,0,0.8-0.2,0.8-0.5c0-0.8-2-0.3-2-1.5c0-0.5,0.4-1,1.3-1
		c0.4,0,0.8,0.1,1.1,0.3l-0.2,0.4c-0.3-0.2-0.6-0.3-0.9-0.3c-0.6,0-0.8,0.2-0.8,0.5c0,0.8,2,0.3,2,1.5c0,0.5-0.4,1-1.3,1
		C350.9,333.9,350.4,333.7,350.2,333.4"/>
	<path class="st6" d="M353.3,330.5c0-0.2,0.1-0.3,0.3-0.3c0.2,0,0.3,0.1,0.3,0.3c0,0.2-0.1,0.3-0.3,0.3
		C353.4,330.8,353.3,330.7,353.3,330.5 M353.4,331.3h0.5v2.5h-0.5V331.3z"/>
	<linearGradient id="SVGID_4_" gradientUnits="userSpaceOnUse" x1="354.498" y1="333.0127" x2="357.1621" y2="333.0127">
		<stop  offset="0" style="stop-color:#704091"/>
		<stop  offset="1" style="stop-color:#45277C"/>
	</linearGradient>
	<path class="st7" d="M357.2,331.3v2.2c0,0.9-0.5,1.3-1.3,1.3c-0.5,0-0.9-0.1-1.2-0.4l0.2-0.4c0.2,0.2,0.6,0.3,1,0.3
		c0.6,0,0.9-0.3,0.9-0.9v-0.2c-0.2,0.3-0.6,0.4-0.9,0.4c-0.7,0-1.3-0.5-1.3-1.2c0-0.7,0.6-1.2,1.3-1.2c0.4,0,0.7,0.1,0.9,0.4v-0.4
		H357.2z M356.7,332.5c0-0.5-0.4-0.8-0.9-0.8c-0.5,0-0.9,0.3-0.9,0.8c0,0.5,0.4,0.8,0.9,0.8C356.3,333.3,356.7,333,356.7,332.5"/>
	<path class="st6" d="M360.5,332.4v1.5H360v-1.4c0-0.5-0.2-0.7-0.7-0.7c-0.5,0-0.8,0.3-0.8,0.8v1.3H358v-2.5h0.4v0.4
		c0.2-0.3,0.5-0.4,0.9-0.4C360,331.3,360.5,331.6,360.5,332.4"/>
	<path class="st6" d="M365,331.3v2.5h-0.4v-0.4c-0.2,0.3-0.5,0.4-0.9,0.4c-0.7,0-1.1-0.4-1.1-1.1v-1.5h0.5v1.4
		c0,0.5,0.2,0.7,0.7,0.7c0.5,0,0.8-0.3,0.8-0.8v-1.3H365z"/>
	<path class="st6" d="M368.5,332.5c0,0.8-0.5,1.3-1.3,1.3c-0.4,0-0.7-0.1-0.9-0.4v1.3h-0.5v-3.5h0.4v0.4c0.2-0.3,0.5-0.4,0.9-0.4
		C367.9,331.3,368.5,331.8,368.5,332.5 M368,332.5c0-0.5-0.4-0.9-0.9-0.9c-0.5,0-0.9,0.4-0.9,0.9c0,0.5,0.4,0.9,0.9,0.9
		C367.6,333.4,368,333.1,368,332.5"/>
	<path class="st1" d="M350.5,304.3l0.2-0.5c0.3,0.2,0.7,0.4,1.1,0.4c0.5,0,0.7-0.2,0.7-0.4c0-0.7-2-0.2-2-1.5c0-0.5,0.4-1,1.4-1
		c0.4,0,0.8,0.1,1.1,0.3l-0.2,0.5c-0.3-0.2-0.6-0.3-0.9-0.3c-0.5,0-0.7,0.2-0.7,0.5c0,0.7,2,0.2,2,1.5c0,0.5-0.4,1-1.4,1
		C351.3,304.7,350.8,304.5,350.5,304.3"/>
	<path class="st1" d="M353.7,301.3c0-0.2,0.2-0.4,0.4-0.4c0.2,0,0.4,0.1,0.4,0.3c0,0.2-0.2,0.4-0.4,0.4
		C353.8,301.6,353.7,301.5,353.7,301.3 M353.8,302.1h0.6v2.6h-0.6V302.1z"/>
	<path class="st1" d="M357.7,302.1v2.2c0,0.9-0.5,1.3-1.4,1.3c-0.5,0-1-0.1-1.2-0.4l0.3-0.5c0.2,0.2,0.6,0.3,0.9,0.3
		c0.6,0,0.8-0.3,0.8-0.8v-0.1c-0.2,0.2-0.5,0.3-0.9,0.3c-0.7,0-1.3-0.5-1.3-1.2c0-0.7,0.6-1.2,1.3-1.2c0.4,0,0.7,0.1,0.9,0.4v-0.3
		H357.7z M357.1,303.3c0-0.4-0.3-0.7-0.8-0.7c-0.5,0-0.8,0.3-0.8,0.7c0,0.4,0.3,0.7,0.8,0.7C356.8,304,357.1,303.7,357.1,303.3"/>
	<path class="st1" d="M361,303.2v1.5h-0.6v-1.4c0-0.5-0.2-0.7-0.6-0.7c-0.4,0-0.7,0.3-0.7,0.8v1.3h-0.6v-2.6h0.6v0.3
		c0.2-0.2,0.5-0.4,0.9-0.4C360.5,302,361,302.4,361,303.2"/>
	<path class="st1" d="M363,301.3c0-0.2,0.2-0.4,0.4-0.4c0.2,0,0.4,0.1,0.4,0.3c0,0.2-0.2,0.4-0.4,0.4
		C363.2,301.6,363,301.5,363,301.3 M363.1,302.1h0.6v2.6h-0.6V302.1z"/>
	<path class="st1" d="M367,303.2v1.5h-0.6v-1.4c0-0.5-0.2-0.7-0.6-0.7c-0.4,0-0.7,0.3-0.7,0.8v1.3h-0.6v-2.6h0.6v0.3
		c0.2-0.2,0.5-0.4,0.9-0.4C366.5,302,367,302.4,367,303.2"/>
	<rect x="0.5" y="-0.9" class="st8" width="500" height="500"/>
	<path class="st1" d="M230.5,114l-17.2,0c-2.3,0-4.2,2-4.2,4.4l0,3.1c0,2.4-1.9,4.4-4.2,4.4l-33.6,0c-2.3,0-4.2-2-4.2-4.4l0-3.1
		c0-2.4-1.9-4.4-4.2-4.4l-6.1,0l-15.1,0c-7.5,0-13.6,6.1-13.6,13.6l0,217.6c0,7.5,6.1,13.6,13.6,13.6l88.7,0.1
		c7.5,0,13.6-6.1,13.6-13.6l0-217.6C244.1,120.1,238,114.1,230.5,114"/>
	<path class="st2" d="M230.5,114c0,0,0.2,0,0.5,0c0.3,0,0.8,0,1.4,0.1c1.2,0.1,3,0.5,5.1,1.8c1,0.6,2.1,1.4,3.1,2.5
		c1,1.1,1.9,2.4,2.6,4.1c0.7,1.6,1,3.5,1,5.5c0,2,0,4.1,0,6.4c0,18.1,0,44.2,0,76.5c0,32.3,0,70.8,0,113.5c0,5.3,0,10.7,0,16.2v4.1
		c0,1.4-0.1,2.8-0.5,4.1c-0.4,1.3-0.9,2.6-1.7,3.8c-0.8,1.2-1.7,2.2-2.8,3.1c-2.2,1.8-5,2.9-7.8,3c-2.8,0.1-5.7,0-8.5,0
		c-5.7,0-11.5,0-17.3,0c-11.6,0-23.5,0-35.5,0c-6,0-12,0-18.1,0c-3,0-6.1,0-9.2,0c-3.1,0.2-6.3-0.7-8.8-2.4
		c-2.6-1.8-4.5-4.5-5.4-7.4c-0.5-1.5-0.6-3.1-0.6-4.6c0-1.5,0-3.1,0-4.6c0-6.1,0-12.1,0-18.1c0-12,0-23.8,0-35.5c0-23.3,0-45.7,0-67
		c0-21.4,0-41.7,0-60.7c0-9.5,0-18.7,0-27.5c0-1.1,0-2.2,0-3.3c0-0.5,0-1.1,0.1-1.6c0.1-0.5,0.1-1.1,0.3-1.6
		c0.5-2.1,1.5-4.1,2.9-5.7c1.4-1.6,3.1-2.9,5-3.8c1.9-0.9,4-1.2,6-1.1c4,0,8,0,11.8,0c1.9,0,3.8,0,5.7,0c0.9,0,1.9,0,2.8,0
		c0.9,0,1.9,0.2,2.7,0.7c0.8,0.5,1.4,1.3,1.7,2.2c0.3,0.9,0.3,1.8,0.3,2.7c0,0.4,0,0.9,0,1.3c0,0.4,0,0.9,0,1.3
		c0.1,0.8,0.5,1.6,1,2.3c0.5,0.6,1.3,1.1,2.1,1.3c0.4,0.1,0.8,0.1,1.2,0.1c0.4,0,0.8,0,1.2,0c1.7,0,3.3,0,4.9,0c6.4,0,12.4,0,17.9,0
		c2.7,0,5.4,0,7.9,0c0.6,0,1.3,0,1.8,0c0.6-0.1,1.2-0.3,1.7-0.6c1-0.6,1.7-1.6,1.9-2.7c0.1-0.5,0.1-1.1,0.1-1.6c0-0.5,0-1.1,0-1.6
		c0-0.5,0-1.1,0.1-1.6c0.1-0.5,0.3-1,0.5-1.5c0.5-0.9,1.3-1.6,2.2-1.9c0.9-0.4,1.8-0.3,2.7-0.3c3.5,0,6.4,0,8.8,0c2.4,0,4.2,0,5.4,0
		C229.9,114,230.5,114,230.5,114s-0.6,0-1.8,0c-1.2,0-3,0-5.4,0c-2.4,0-5.3,0-8.8,0c-0.9,0-1.8-0.1-2.6,0.3c-0.9,0.3-1.6,1-2.1,1.9
		c-0.2,0.4-0.4,0.9-0.5,1.4c-0.1,0.5-0.1,1-0.1,1.6c0,0.5,0,1.1,0,1.6c0,0.5,0,1.1-0.1,1.7c-0.2,1.1-0.9,2.2-2,2.8
		c-0.5,0.3-1.1,0.5-1.7,0.6c-0.6,0.1-1.2,0-1.9,0c-2.5,0-5.1,0-7.9,0c-5.5,0-11.5,0-17.9,0c-1.6,0-3.2,0-4.9,0h-1.2
		c-0.4,0-0.9,0-1.3-0.1c-0.8-0.2-1.6-0.7-2.2-1.4c-0.6-0.7-1-1.5-1.1-2.4c-0.1-0.4,0-0.9,0-1.3c0-0.4,0-0.9,0-1.3
		c0-0.9,0.1-1.8-0.3-2.6c-0.3-0.8-0.8-1.6-1.6-2.1c-0.7-0.5-1.6-0.7-2.5-0.7h-2.8h-5.7h-11.8c-2,0-4,0.3-5.9,1.1
		c-1.9,0.8-3.6,2.1-4.9,3.7c-1.3,1.6-2.3,3.5-2.8,5.6c-0.1,0.5-0.2,1.1-0.3,1.6c0,0.5-0.1,1.1-0.1,1.6c0,1.1,0,2.2,0,3.3
		c0,8.8,0,18,0,27.5c0,19,0,39.3,0,60.7c0,21.4,0,43.8,0,67c0,11.6,0,23.5,0,35.5c0,6,0,12.1,0,18.1c0,1.5,0,3,0,4.6
		c0,1.5,0.1,3,0.6,4.5c0.9,2.9,2.7,5.5,5.2,7.2c2.5,1.7,5.6,2.5,8.6,2.4c3.1,0,6.1,0,9.2,0c6.1,0,12.1,0,18.1,0c12,0,23.8,0,35.5,0
		c5.8,0,11.6,0,17.3,0c2.8,0,5.7,0,8.5,0c2.8-0.1,5.5-1.2,7.6-3c1.1-0.9,2-1.9,2.8-3.1c0.8-1.1,1.3-2.4,1.7-3.7
		c0.4-1.3,0.5-2.7,0.5-4c0-1.4,0-2.7,0-4.1c0-5.5,0-10.9,0-16.2c0-42.7,0-81.2,0.1-113.5c0-32.3,0.1-58.5,0.1-76.5
		c0-2.3,0-4.4,0-6.4c0-2-0.3-3.9-1-5.5c-0.6-1.6-1.6-3-2.5-4c-1-1.1-2-1.9-3.1-2.5c-2-1.2-3.9-1.6-5.1-1.8c-0.6-0.1-1.1-0.1-1.4-0.1
		C230.7,114.1,230.5,114,230.5,114"/>
	<path class="st2" d="M232.3,134.4c0,0.1-2.9,0.3-6.4,0.3c-3.5,0-6.4-0.1-6.4-0.3c0-0.1,2.9-0.3,6.4-0.3
		C229.4,134.2,232.3,134.3,232.3,134.4"/>
	<path class="st2" d="M231,136.5c0,0.1-2.9,0.3-6.4,0.3c-3.5,0-6.4-0.1-6.4-0.3s2.9-0.3,6.4-0.3C228.1,136.3,231,136.4,231,136.5"/>
	<path class="st2" d="M231.6,138.5c0,0.1-2.9,0.3-6.4,0.3c-3.5,0-6.4-0.1-6.4-0.3c0-0.1,2.9-0.3,6.4-0.3
		C228.8,138.3,231.6,138.4,231.6,138.5"/>
	<path class="st2" d="M196.3,155c0,0,0.2,0,0.5,0.1c0.3,0.1,0.8,0.3,1.4,0.5c0.6,0.2,1.3,0.6,2.2,1c0.8,0.4,1.8,0.9,2.8,1.6
		c2.1,1.3,4.4,3.2,6.7,5.9c1.1,1.3,2.2,2.8,3.2,4.6c0.5,0.8,0.9,1.8,1.4,2.7c0.4,1,0.8,2,1.1,3c1.4,4.2,1.8,9.1,0.9,14.2
		c-0.9,5.1-3.2,10.3-7,14.8c-1.9,2.2-4.1,4.2-6.7,5.9c-2.6,1.6-5.5,2.9-8.5,3.7c-6.1,1.7-13,1.5-19.3-0.7
		c-6.4-2.3-11.7-6.6-15.3-11.9c-3.6-5.2-5.6-11.2-5.9-17.1c-0.3-5.8,1.1-11.4,3.7-15.9c2.6-4.5,6.5-7.7,10.4-9.7
		c3.9-2.1,7.8-3.1,11.2-3.6c3.5-0.5,6.5-0.5,8.9-0.4c4.9,0.3,7.5,0.9,7.5,0.9s-0.2,0-0.5,0c-0.3,0-0.8-0.1-1.5-0.2
		c-1.3-0.1-3.2-0.4-5.6-0.4c-2.4-0.1-5.4,0-8.9,0.5c-3.4,0.5-7.3,1.6-11.1,3.6c-3.8,2-7.6,5.2-10.2,9.6c-2.6,4.4-3.9,9.9-3.6,15.7
		c0.3,5.7,2.3,11.7,5.9,16.8c3.5,5.1,8.8,9.4,15,11.7c6.2,2.2,13,2.4,19,0.7c6-1.6,11.3-5,15-9.4c3.7-4.4,6-9.5,6.9-14.5
		c0.9-5,0.5-9.9-0.8-14c-0.3-1-0.7-2-1.1-3c-0.5-0.9-0.9-1.9-1.4-2.7c-0.9-1.7-2-3.2-3.1-4.6c-2.2-2.7-4.5-4.6-6.6-5.9
		c-1-0.7-2-1.2-2.8-1.7c-0.8-0.4-1.6-0.7-2.2-1c-0.6-0.2-1-0.4-1.4-0.5C196.5,155,196.3,155,196.3,155"/>
	<path class="st2" d="M204.2,196c0,0-0.1-0.2-0.2-0.5c-0.2-0.4-0.4-0.9-0.6-1.5c-0.5-1.3-1.2-3.2-2.3-5.4c-1.1-2.2-2.6-4.8-5.1-7
		c-1.2-1.1-2.6-2.1-4.2-2.8c-1.6-0.7-3.4-1.1-5.3-0.9c-3.7,0.2-7,2.2-9.3,4.4c-2.3,2.3-3.7,5-4.6,7.3c-0.9,2.3-1.4,4.3-1.6,5.6
		c-0.1,0.6-0.2,1.2-0.3,1.6c-0.1,0.4-0.1,0.5-0.1,0.5c0,0,0-0.2,0-0.6c0-0.4,0.1-0.9,0.2-1.6c0.2-1.4,0.6-3.4,1.5-5.7
		c0.9-2.3,2.2-5.1,4.6-7.5c2.3-2.3,5.7-4.4,9.6-4.6c1.9-0.1,3.9,0.3,5.5,1c1.7,0.7,3.1,1.8,4.4,2.9c2.5,2.3,4,4.9,5.1,7.2
		c1.1,2.3,1.7,4.2,2.2,5.5c0.2,0.6,0.4,1.1,0.5,1.5C204.2,195.9,204.2,196,204.2,196"/>
	<path class="st2" d="M187.2,164c0,0,0.1,0,0.4,0c0.2,0,0.6,0.1,1,0.3c0.9,0.3,2.1,1.1,2.9,2.6c0.4,0.7,0.7,1.6,0.8,2.6
		c0,1-0.2,2.1-0.8,3.1c-1.1,1.9-3.6,3.4-6.3,3c-2.6-0.4-4.5-2.6-5.1-4.8c-0.3-1.1-0.3-2.2,0-3.2c0.3-1,0.8-1.8,1.3-2.4
		c1.1-1.3,2.4-1.9,3.3-2.1c0.4-0.1,0.8-0.2,1.1-0.2c0.2,0,0.4,0,0.4,0c0,0.1-0.5,0.1-1.4,0.3c-0.8,0.3-2.1,0.9-3.1,2.1
		c-0.5,0.6-0.9,1.4-1.2,2.3c-0.2,0.9-0.3,1.9,0,2.9c0.5,2,2.3,4,4.7,4.4c2.4,0.4,4.7-1,5.8-2.8c0.6-0.9,0.8-1.9,0.8-2.8
		c0-0.9-0.3-1.8-0.7-2.5c-0.7-1.4-1.8-2.2-2.6-2.6C187.7,164.1,187.2,164,187.2,164"/>
	<path class="st2" d="M217.5,233c0,0-0.2-0.1-0.7-0.2c-0.5-0.2-1.1-0.4-2-0.6c-1.8-0.5-4.4-0.9-7.7-0.4c-1.6,0.2-3.3,0.7-5.1,1.5
		c-0.9,0.4-1.8,0.9-2.7,1.3c-1,0.4-2.1,0.7-3.2,0.4c-2.5-0.6-2.8-3.9-5-4.3c-1.1-0.2-2.1,0.6-2.9,1.4c-0.8,0.9-1.6,1.9-2.7,2.6
		c-0.5,0.4-1.2,0.6-1.8,0.7c-0.7,0-1.3,0-1.9-0.3c-1.2-0.5-2.2-1.2-3.1-2c-0.9-0.7-1.8-1.5-2.8-2c-0.9-0.6-2-0.9-3-0.7
		c-1,0.1-1.8,0.8-2.5,1.6c-0.7,0.8-1.2,1.6-1.8,2.3c-0.6,0.8-1.3,1.4-2.2,1.9c-0.8,0.4-1.7,0.6-2.6,0.6c-1.7,0-3.2-0.8-4-1.9
		c-0.9-1-1.2-2.2-1.2-3.1c-0.1-0.9,0.1-1.7,0.3-2.1c0.2-0.5,0.3-0.7,0.3-0.7c0.1,0-0.6,0.9-0.4,2.8c0.1,0.9,0.4,2,1.3,3
		c0.8,1,2.2,1.7,3.8,1.7c0.8,0,1.6-0.2,2.4-0.6c0.8-0.4,1.4-1,2-1.8c0.6-0.7,1.1-1.6,1.8-2.4c0.7-0.8,1.6-1.6,2.8-1.7
		c1.2-0.2,2.3,0.2,3.3,0.8c1,0.6,1.9,1.3,2.8,2.1c0.9,0.7,1.9,1.5,3,1.9c0.5,0.2,1.1,0.3,1.7,0.3c0.6-0.1,1.1-0.3,1.6-0.6
		c1-0.7,1.8-1.7,2.6-2.6c0.4-0.4,0.9-0.9,1.4-1.2c0.6-0.3,1.2-0.5,1.9-0.4c0.7,0.1,1.2,0.5,1.6,0.9c0.4,0.4,0.8,0.9,1.1,1.4
		c0.6,0.9,1.3,1.8,2.3,2c1,0.3,2,0,3-0.3c0.9-0.4,1.8-0.8,2.7-1.2c1.8-0.8,3.6-1.2,5.2-1.5c3.3-0.4,6,0.1,7.8,0.6
		c0.9,0.3,1.5,0.5,2,0.7C217.2,232.8,217.5,232.9,217.5,233"/>
	<path class="st2" d="M202.2,242c0,0.1-6.5,0.3-14.4,0.3c-8,0-14.4-0.1-14.4-0.3c0-0.1,6.5-0.3,14.4-0.3
		C195.8,241.7,202.2,241.8,202.2,242"/>
	<path class="st2" d="M141.9,277.3c-0.1,0-0.2-4.1-0.1-9.1c0.1-5,0.3-9.1,0.4-9.1c0.1,0,0.2,4.1,0.1,9.1
		C142.3,273.3,142.1,277.3,141.9,277.3"/>
	<path class="st2" d="M228.8,278.1c0,0.1-19.8-0.1-44.3-0.4c-24.5-0.4-44.3-0.8-44.3-1c0-0.1,19.8,0.1,44.3,0.4
		C209,277.6,228.8,278,228.8,278.1"/>
	<path class="st2" d="M228.5,257.8c0,0.1-19.2,0.6-42.8,0.9c-23.7,0.4-42.9,0.5-42.9,0.4c0-0.1,19.2-0.6,42.9-0.9
		C209.3,257.8,228.5,257.6,228.5,257.8"/>
	<path class="st2" d="M228.1,277.7c-0.1,0-0.3-4.5-0.3-10c0-5.5,0.1-10,0.3-10c0.1,0,0.3,4.5,0.3,10
		C228.4,273.2,228.2,277.7,228.1,277.7"/>
	<path class="st2" d="M152.3,265.7c0,0,0.2-0.1,0.6,0.1c0.4,0.1,0.9,0.4,1.3,1c0.4,0.6,0.7,1.5,0.5,2.4c-0.2,1-1.3,1.8-2.4,1.9
		c-1.1,0.2-2.3-0.3-2.8-1.2c-0.5-0.9-0.4-1.8-0.1-2.5c0.3-0.7,0.7-1.1,1-1.3c0.3-0.2,0.6-0.2,0.6-0.2c0.1,0.1-0.9,0.4-1.3,1.6
		c-0.2,0.6-0.2,1.4,0.2,2.1c0.4,0.7,1.3,1.1,2.3,1c0.9-0.1,1.8-0.7,2-1.5c0.2-0.8,0-1.6-0.3-2.1
		C153.2,265.9,152.3,265.8,152.3,265.7"/>
	<path class="st2" d="M144.9,305.4c-0.1,0-0.8-3.8-1.4-8.5c-0.6-4.7-1-8.6-0.9-8.6c0.1,0,0.8,3.8,1.4,8.5
		C144.6,301.6,145,305.4,144.9,305.4"/>
	<path class="st2" d="M224.5,288.8c0,0.1-18.1,0.3-40.5,0.3c-22.4,0-40.5-0.1-40.5-0.3c0-0.1,18.1-0.3,40.5-0.3
		C206.4,288.5,224.5,288.6,224.5,288.8"/>
	<path class="st2" d="M227.4,304.3c-0.1,0-0.3-3.3-0.3-7.3c0-4,0.1-7.3,0.3-7.3c0.1,0,0.3,3.3,0.3,7.3
		C227.6,301.1,227.5,304.3,227.4,304.3"/>
	<path class="st2" d="M228.1,305.3c0,0.1-18.4,0.3-41,0.3c-22.7,0-41-0.1-41-0.3c0-0.1,18.4-0.3,41-0.3
		C209.7,305,228.1,305.2,228.1,305.3"/>
	<path class="st2" d="M151.2,296.3c0,0,0.1-0.2,0.5-0.3c0.4-0.1,1-0.1,1.6,0.4c0.3,0.2,0.6,0.5,0.8,0.9c0.2,0.4,0.2,0.9,0.1,1.4
		c-0.3,0.9-1.2,1.8-2.4,1.8c-1.2-0.1-2-0.9-2.4-1.8c-0.4-0.9-0.1-1.8,0.3-2.4c0.4-0.6,0.9-0.9,1.2-1.1c0.4-0.2,0.6-0.2,0.6-0.1
		c0.1,0.1-0.8,0.3-1.5,1.4c-0.3,0.5-0.5,1.3-0.2,2c0.3,0.7,1,1.4,1.9,1.4c0.9,0,1.7-0.7,1.9-1.4c0.3-0.7-0.1-1.5-0.6-1.8
		c-0.5-0.4-1-0.5-1.3-0.4C151.4,296.2,151.2,296.3,151.2,296.3"/>
	<path class="st9" d="M163.9,340.2c0,0-0.1,0-0.3,0.1c-0.2,0-0.5,0.1-0.9,0.1c-0.8,0.1-2,0-3.4-0.5c-1.4-0.5-2.9-1.4-4.2-2.8
		c-1.3-1.4-2.4-3.4-2.6-5.6c-0.2-2.2,0.5-4.4,1.6-6c1-1.6,2.4-2.8,3.7-3.5c1.3-0.7,2.4-1,3.2-1.1c0.4-0.1,0.7,0,0.9-0.1
		c0.2,0,0.3,0,0.3,0c0,0.1-1.9,0-4.3,1.5c-1.2,0.7-2.5,1.9-3.4,3.4c-1,1.5-1.6,3.6-1.4,5.7c0.2,2.1,1.2,4,2.5,5.3
		c1.2,1.4,2.7,2.3,4,2.7C162,340.5,163.9,340,163.9,340.2"/>
	<linearGradient id="SVGID_5_" gradientUnits="userSpaceOnUse" x1="168.2803" y1="339.7071" x2="218.9795" y2="339.7071">
		<stop  offset="0" style="stop-color:#704091"/>
		<stop  offset="1" style="stop-color:#45277C"/>
	</linearGradient>
	<path class="st10" d="M219,339.7c0,0.1-11.3,0.3-25.3,0.3c-14,0-25.4-0.1-25.4-0.3c0-0.1,11.3-0.3,25.4-0.3
		C207.6,339.4,219,339.6,219,339.7"/>
	<path class="st9" d="M219.5,338.4c0-0.1,1.1-0.2,2.8-1.4c0.8-0.6,1.7-1.5,2.5-2.7c0.7-1.2,1.2-2.9,1.2-4.7
		c-0.1-1.8-0.7-3.8-2.1-5.4c-1.4-1.6-3.4-2.8-5.8-3.3c-2.3-0.6-4.9-0.7-7.5-0.7c-2.6,0-5.4,0.1-8.2,0.1c-11.2,0.1-21.4,0.2-28.8,0.3
		c-3.6,0-6.6,0-8.7,0c-1,0-1.8,0-2.4,0c-0.5,0-0.8,0-0.8,0c0,0,0.3,0,0.8-0.1c0.6,0,1.4,0,2.4-0.1c2.1,0,5.1-0.1,8.7-0.2
		c7.4-0.1,17.5-0.2,28.8-0.4c2.8,0,5.5-0.1,8.2-0.1c2.6,0,5.2,0.1,7.6,0.7c2.4,0.6,4.6,1.8,6,3.5c1.4,1.7,2.1,3.8,2.1,5.7
		c0,1.9-0.5,3.6-1.3,4.8c-0.8,1.3-1.7,2.2-2.6,2.7c-0.9,0.6-1.6,0.9-2.1,1.1c-0.3,0.1-0.5,0.1-0.6,0.2
		C219.6,338.4,219.5,338.5,219.5,338.4"/>
	<path class="st2" d="M216.2,331.5c0,0-0.2,0-0.6,0.1c-0.4,0-1,0.1-1.7,0.1c-1.6,0.1-3.7,0.2-6.3,0.4c-5.4,0.3-12.7,0.6-20.8,1.1
		c-2.3,0.1-4.7,0.2-6.8-0.6c-1.1-0.4-2-0.9-3-1.2c-1-0.3-1.9-0.4-2.8-0.1c-1.8,0.7-3,2.3-4.8,2.7c-1.7,0.6-3.7-1-3.1-2.6l0.2,0.2
		c-0.8,0.1-1.4,0.6-1.7,1.1c-0.3,0.5-0.4,1.2-0.3,1.6l-0.2,0c0-0.7,0-1.2,0-1.7c0-0.4,0-0.6,0-0.6c0,0,0,0.2,0.1,0.6
		c0,0.4,0,1,0.1,1.7l0,0.9l-0.2-0.9c-0.1-0.5-0.1-1.2,0.3-1.8c0.3-0.6,1-1.2,1.9-1.3l0.3,0l-0.1,0.2c-0.2,0.6,0.1,1.3,0.6,1.7
		c0.5,0.5,1.3,0.6,2.1,0.4c0.8-0.2,1.5-0.7,2.2-1.2c0.7-0.5,1.5-1.2,2.5-1.5c1-0.4,2.1-0.3,3.1,0.1c1,0.3,2,0.8,3,1.2
		c2,0.7,4.3,0.6,6.7,0.5c8.1-0.3,15.4-0.7,20.8-0.9c2.6-0.1,4.7-0.2,6.3-0.2c0.7,0,1.3,0,1.7,0C216,331.4,216.2,331.5,216.2,331.5"
		/>
	<path class="st9" d="M222.9,348.2c0,0.1-15.3,0.3-34.2,0.3c-18.9,0-34.2-0.1-34.2-0.3c0-0.1,15.3-0.3,34.2-0.3
		C207.6,347.9,222.9,348,222.9,348.2"/>
	<path class="st2" d="M147.6,133.9c0.1,0,0.1,0.7,0.2,1.9c0.1,1.2,0.2,2.9,0.4,4.9l0,0.2l-0.2,0c-1.6,0.2-3.4,0.4-5.3,0.6
		c-1.3,0.1-2.6,0.3-3.7,0.4l-0.3,0l0-0.3c-0.1-2.4-0.1-4.5-0.2-6c0-1.5,0-2.4,0.1-2.4c0.1,0,0.1,0.9,0.3,2.3c0.1,1.5,0.2,3.6,0.3,6
		l-0.3-0.2c1.2-0.1,2.4-0.3,3.7-0.4c1.9-0.2,3.7-0.4,5.3-0.6l-0.2,0.2c-0.1-2-0.2-3.7-0.2-4.9C147.5,134.6,147.5,133.9,147.6,133.9"
		/>
	<path class="st2" d="M142.9,129.2c0.1,0.1-1.9,1.6-4.2,3.5c-2.3,1.9-4.2,3.5-4.3,3.4c-0.1-0.1,1.6-1.9,4-3.8
		C140.8,130.4,142.9,129.1,142.9,129.2"/>
	<path class="st2" d="M151,135.9c-0.1,0.1-2-1.3-4.2-3.1c-2.2-1.8-4-3.4-3.9-3.5c0.1-0.1,2,1.3,4.2,3.1
		C149.4,134.2,151.1,135.8,151,135.9"/>
	
		<rect x="173.3" y="76.8" transform="matrix(9.258403e-02 -0.9957 0.9957 9.258403e-02 79.9629 260.3637)" class="st9" width="19.1" height="19.1"/>
	<path class="st2" d="M182.2,90.4c-0.1,0-0.1-0.8,0-2.1c0-0.3,0-0.7,0-1c0-0.2,0-0.4,0.2-0.6c0.1-0.2,0.3-0.4,0.5-0.5
		c0.4-0.2,0.8-0.4,1.1-0.6c0.3-0.2,0.6-0.6,0.8-1c0.3-0.8,0-1.7-0.6-2.2c-0.6-0.5-1.3-0.7-1.9-0.6c-1.2,0.2-1.7,0.9-1.8,0.8
		c0,0,0-0.2,0.3-0.5c0.3-0.3,0.7-0.6,1.4-0.7c0.7-0.1,1.6,0,2.3,0.6c0.4,0.3,0.7,0.7,0.8,1.2c0.2,0.5,0.2,1.1,0,1.6
		c-0.2,0.5-0.5,0.9-0.9,1.2c-0.4,0.3-0.9,0.4-1.2,0.6c-0.3,0.2-0.5,0.4-0.5,0.8c0,0.4-0.1,0.7-0.1,1
		C182.4,89.6,182.3,90.4,182.2,90.4"/>
	<path class="st2" d="M181.9,91.4c0,0.1,0,0.2,0,0.2c0.1,0.1,0,0,0.1,0c0,0,0,0,0,0c0,0,0,0,0,0c0-0.1-0.1-0.1-0.1-0.2
		c0-0.1,0.1-0.2,0.3,0c0.1,0.1,0.2,0.2,0.2,0.4c0,0.2-0.2,0.4-0.4,0.4c-0.2,0-0.4,0-0.5-0.2c-0.1-0.2-0.1-0.3,0-0.4
		C181.7,91.3,181.9,91.4,181.9,91.4"/>
	<rect x="66.9" y="63.4" transform="matrix(0.9914 -0.131 0.131 0.9914 -8.8531 10.5874)" class="st9" width="18.3" height="18.3"/>
	
		<rect x="87.3" y="87.4" transform="matrix(9.256583e-02 -0.9957 0.9957 9.256583e-02 -8.6085 183.7316)" class="st0" width="18.3" height="18.3"/>
	
		<rect x="119.9" y="85.3" transform="matrix(9.261544e-02 -0.9957 0.9957 9.261544e-02 23.0941 214.246)" class="st11" width="18.3" height="18.3"/>
	<rect x="108.9" y="62" class="st9" width="18.3" height="18.3"/>
	<rect x="133.7" y="62" class="st9" width="18.3" height="18.3"/>
	<rect x="88.1" y="62.3" class="st11" width="18.3" height="18.3"/>
	<path class="st2" d="M116,99.8c0,0.1-1.8,0.3-4,0.3c-2.2,0-4-0.1-4-0.3c0-0.1,1.8-0.3,4-0.3C114.2,99.5,116,99.6,116,99.8"/>
	<path class="st2" d="M113,97.9c0.1-0.1,1.3,0.7,3.1,1.3l0.4,0.1l-0.4,0.3c0,0-0.1,0.1-0.1,0.1c-1.5,1.3-2.7,2.3-2.8,2.2
		c-0.1-0.1,1-1.2,2.5-2.6c0,0,0.1-0.1,0.1-0.1l0.1,0.4C114.1,99.1,112.9,98,113,97.9"/>
	<path class="st2" d="M113.1,139.8c0,0-0.6,0.1-1.8,0.1c-1.2,0-2.8,0.1-4.8,0.1c-1,0-2.1,0.1-3.3,0.1c-1.2,0-2.5-0.2-3.8-0.6
		c-1.3-0.5-2.6-1.3-3.3-2.6c-0.8-1.3-1.1-2.8-1.3-4.4c-0.6-6.1-1.1-11.7-1.4-15.7c-0.2-1.9-0.3-3.5-0.4-4.8
		c-0.1-1.1-0.1-1.7-0.1-1.8c0,0,0.1,0.6,0.3,1.7c0.1,1.2,0.3,2.8,0.5,4.7c0.4,4.1,1,9.6,1.6,15.7c0.2,1.5,0.5,3,1.3,4.2
		c0.7,1.2,1.9,2,3.1,2.5c1.2,0.5,2.5,0.6,3.6,0.6c1.2,0,2.3-0.1,3.3-0.1c2,0,3.6,0,4.8,0.1C112.4,139.7,113.1,139.8,113.1,139.8"/>
	<path class="st2" d="M111.3,142.4c-0.1-0.1,1-1.4,2.6-2.7c0.1,0,0.1-0.1,0.2-0.1l0,0.4c-1.8-0.9-2.9-2.2-2.8-2.2
		c0.1-0.1,1.3,0.9,3,1.8l0.4,0.2l-0.3,0.3c-0.1,0-0.1,0.1-0.2,0.1C112.6,141.4,111.4,142.5,111.3,142.4"/>
	
		<rect x="76.1" y="240.9" transform="matrix(9.258391e-02 -0.9957 0.9957 9.258391e-02 -171.5857 311.1985)" class="st0" width="17.6" height="17.6"/>
	<rect x="54.3" y="189.4" class="st11" width="17.6" height="17.6"/>
	<rect x="77.2" y="164.4" class="st0" width="17.6" height="17.6"/>
	
		<rect x="77.2" y="188" transform="matrix(0.9979 -6.532705e-02 6.532705e-02 0.9979 -12.6717 6.0374)" class="st5" width="17.6" height="17.6"/>
	
		<rect x="77.2" y="213.2" transform="matrix(9.261253e-02 -0.9957 0.9957 9.261253e-02 -143.0236 287.0509)" class="st11" width="17.6" height="17.6"/>
	<path class="st2" d="M98.3,248.9c0,0,0.7-0.5,2-1.5c1.3-0.9,3-2.4,4.8-4.5c1.8-2.1,3.8-4.9,5.3-8.2c1.6-3.4,2.7-7.3,3-11.6
		c0.3-4.3-0.4-8.4-1.9-11.7c-1.5-3.4-3.8-5.9-6.1-7.5c-2.3-1.6-4.5-2.3-6-2.6c-1.5-0.3-2.4-0.2-2.4-0.3c0,0,0.2,0,0.6,0
		c0.4,0,1,0,1.8,0.1c1.6,0.2,3.8,0.9,6.2,2.5c2.4,1.6,4.8,4.1,6.3,7.6c1.6,3.4,2.3,7.6,2,12c-0.3,4.3-1.5,8.4-3.1,11.8
		c-1.6,3.4-3.6,6.2-5.5,8.3c-1.9,2.1-3.7,3.6-5,4.5c-0.6,0.5-1.2,0.8-1.5,1C98.5,248.9,98.3,249,98.3,248.9"/>
	<path class="st2" d="M104.1,250.3c0,0.1-2.8,0.4-6.3,0.6h0l-0.3,0l0-0.3c0.4-3.5,0.9-6.2,1-6.2c0.1,0-0.1,2.8-0.5,6.3l-0.3-0.3l0,0
		C101.2,250.2,104,250.2,104.1,250.3"/>
	<path class="st2" d="M145.9,178.3c0,0.1-10.2,0.3-22.8,0.3c-12.6,0-22.8-0.1-22.8-0.3c0-0.1,10.2-0.3,22.8-0.3
		C135.7,178,145.9,178.2,145.9,178.3"/>
	<path class="st2" d="M143.7,181.6c-0.1-0.1,1.1-1.7,2.7-3.6c0-0.1,0.1-0.1,0.1-0.1l0.1,0.4c-2-1.2-3.6-2.3-3.5-2.5
		c0.1-0.1,1.8,0.8,3.8,2l0.3,0.2l-0.2,0.2c0,0-0.1,0.1-0.1,0.1C145.2,180.2,143.8,181.7,143.7,181.6"/>
	<path class="st2" d="M250.3,298c0,0.1-4.2,0.3-9.5,0.3c-5.2,0-9.5-0.1-9.5-0.3c0-0.1,4.2-0.3,9.5-0.3
		C246.1,297.8,250.3,297.9,250.3,298"/>
	<path class="st2" d="M249.2,302.8c-0.1,0,0-0.5,0.3-1.4c0.3-0.8,0.7-2,1.6-3.1l0,0.3c-0.1-0.1-0.2-0.3-0.2-0.4
		c-1.3-2.6-3-4.2-2.9-4.3c0.1-0.1,2,1.5,3.4,4.1c0.1,0.2,0.2,0.3,0.2,0.5l0.1,0.1l-0.1,0.1C249.8,300.8,249.3,302.9,249.2,302.8"/>
	
		<rect x="255.1" y="287.5" transform="matrix(0.9979 -6.536560e-02 6.536560e-02 0.9979 -19.0678 18.1647)" class="st0" width="26" height="26"/>
	<path class="st1" d="M272.9,296c0,0.1-0.4-0.3-0.9-0.2c-0.3,0-0.5,0.2-0.7,0.5c-0.1,0.3-0.1,0.7,0.2,1c0.3,0.3,0.7,0.3,1,0.2
		c0.3-0.1,0.5-0.4,0.6-0.7C273.1,296.3,272.8,296,272.9,296c0-0.1,0.5,0.2,0.5,1c0,0.4-0.3,0.8-0.8,1c-0.5,0.2-1.1,0.1-1.5-0.3
		c-0.4-0.4-0.5-1.1-0.2-1.6c0.2-0.5,0.7-0.7,1.1-0.7C272.7,295.4,272.9,295.9,272.9,296"/>
	<path class="st1" d="M273.4,300.7c0,0-0.1,0.1-0.2,0.2c-0.2,0.1-0.4,0.3-0.7,0.5c-0.7,0.4-2,0.7-3.4,0.1l0.2,0
		c-1.6,1.5-3.6,3.4-5.9,5.6l-0.1,0.1l-0.1,0c-0.6-0.1-1.2-0.3-1.8-0.4l-0.2,0l0-0.2c0-0.4,0-0.8,0.1-1.2l0-0.1l0.1-0.1
		c0.2-0.1,0.3-0.3,0.5-0.5l0.1-0.1l0.1,0c0.2,0.1,0.5,0.1,0.8,0.2l-0.3,0.3c0-0.3-0.1-0.5-0.1-0.8l0-0.1l0.1-0.1
		c0.3-0.3,0.6-0.5,0.9-0.8l0.1-0.1l0.1,0c0.4,0.1,0.8,0.2,1.2,0.3l-0.3,0.3c-0.1-0.4-0.1-0.9-0.2-1.3l0-0.1l0.1-0.1
		c0.1-0.1,0.2-0.2,0.3-0.2c0.2-0.2,0.5-0.5,0.7-0.7l0.1-0.1l0.1,0c0.4,0.1,0.8,0.2,1.2,0.3l-0.3,0.3c-0.1-0.4-0.1-0.9-0.2-1.3l0-0.1
		l0.1-0.1c0.3-0.2,0.5-0.5,0.8-0.7l0,0.3c-0.7-1.2-0.7-2.6-0.2-3.7c0.5-1.1,1.5-1.9,2.6-2.3c1.1-0.3,2.2-0.2,3,0.2
		c0.9,0.4,1.5,1.1,1.8,1.9c0.7,1.5,0.3,2.9-0.1,3.6C273.9,300.5,273.4,300.7,273.4,300.7c0,0,0.3-0.3,0.7-1.1c0.4-0.7,0.7-2.1,0-3.4
		c-0.3-0.7-0.9-1.3-1.7-1.7c-0.8-0.4-1.8-0.5-2.7-0.2c-0.9,0.3-1.8,1-2.2,2c-0.4,1-0.4,2.2,0.2,3.3l0.1,0.2l-0.1,0.1
		c-0.3,0.2-0.5,0.5-0.8,0.7l0.1-0.2c0.1,0.4,0.1,0.9,0.2,1.3l0.1,0.4l-0.4-0.1c-0.4-0.1-0.8-0.2-1.2-0.3l0.2-0.1
		c-0.2,0.2-0.5,0.5-0.7,0.7c-0.1,0.1-0.2,0.2-0.3,0.2l0.1-0.2c0.1,0.5,0.1,0.9,0.2,1.3l0.1,0.4l-0.4-0.1c-0.4-0.1-0.8-0.2-1.2-0.3
		l0.2-0.1c-0.3,0.3-0.6,0.5-0.9,0.8l0.1-0.2c0,0.3,0.1,0.6,0.1,0.8l0.1,0.4l-0.4-0.1c-0.3-0.1-0.5-0.1-0.8-0.2l0.2-0.1
		c-0.2,0.2-0.3,0.3-0.5,0.5l0.1-0.2c0,0.4-0.1,0.8-0.1,1.2l-0.2-0.3c0.6,0.2,1.2,0.3,1.8,0.5l-0.2,0.1c2.3-2.1,4.4-4,6-5.5l0.1-0.1
		l0.1,0c1.3,0.6,2.5,0.3,3.2,0C273.1,301,273.4,300.7,273.4,300.7"/>
	<path class="st1" d="M272.9,296c0,0.1-0.4-0.3-0.9-0.2c-0.3,0-0.5,0.2-0.7,0.5c-0.1,0.3-0.1,0.7,0.2,1c0.3,0.3,0.7,0.3,1,0.2
		c0.3-0.1,0.5-0.4,0.6-0.7C273.1,296.3,272.8,296,272.9,296c0-0.1,0.5,0.2,0.5,1c0,0.4-0.3,0.8-0.8,1c-0.5,0.2-1.1,0.1-1.5-0.3
		c-0.4-0.4-0.5-1.1-0.2-1.6c0.2-0.5,0.7-0.7,1.1-0.7C272.7,295.4,272.9,295.9,272.9,296"/>
	<path class="st1" d="M273.4,300.7c0,0-0.1,0.1-0.2,0.2c-0.2,0.1-0.4,0.3-0.7,0.5c-0.7,0.4-2,0.7-3.4,0.1l0.2,0
		c-1.6,1.5-3.6,3.4-5.9,5.6l-0.1,0.1l-0.1,0c-0.6-0.1-1.2-0.3-1.8-0.4l-0.2,0l0-0.2c0-0.4,0-0.8,0.1-1.2l0-0.1l0.1-0.1
		c0.2-0.1,0.3-0.3,0.5-0.5l0.1-0.1l0.1,0c0.2,0.1,0.5,0.1,0.8,0.2l-0.3,0.3c0-0.3-0.1-0.5-0.1-0.8l0-0.1l0.1-0.1
		c0.3-0.3,0.6-0.5,0.9-0.8l0.1-0.1l0.1,0c0.4,0.1,0.8,0.2,1.2,0.3l-0.3,0.3c-0.1-0.4-0.1-0.9-0.2-1.3l0-0.1l0.1-0.1
		c0.1-0.1,0.2-0.2,0.3-0.2c0.2-0.2,0.5-0.5,0.7-0.7l0.1-0.1l0.1,0c0.4,0.1,0.8,0.2,1.2,0.3l-0.3,0.3c-0.1-0.4-0.1-0.9-0.2-1.3l0-0.1
		l0.1-0.1c0.3-0.2,0.5-0.5,0.8-0.7l0,0.3c-0.7-1.2-0.7-2.6-0.2-3.7c0.5-1.1,1.5-1.9,2.6-2.3c1.1-0.3,2.2-0.2,3,0.2
		c0.9,0.4,1.5,1.1,1.8,1.9c0.7,1.5,0.3,2.9-0.1,3.6C273.9,300.5,273.4,300.7,273.4,300.7c0,0,0.3-0.3,0.7-1.1c0.4-0.7,0.7-2.1,0-3.4
		c-0.3-0.7-0.9-1.3-1.7-1.7c-0.8-0.4-1.8-0.5-2.7-0.2c-0.9,0.3-1.8,1-2.2,2c-0.4,1-0.4,2.2,0.2,3.3l0.1,0.2l-0.1,0.1
		c-0.3,0.2-0.5,0.5-0.8,0.7l0.1-0.2c0.1,0.4,0.1,0.9,0.2,1.3l0.1,0.4l-0.4-0.1c-0.4-0.1-0.8-0.2-1.2-0.3l0.2-0.1
		c-0.2,0.2-0.5,0.5-0.7,0.7c-0.1,0.1-0.2,0.2-0.3,0.2l0.1-0.2c0.1,0.5,0.1,0.9,0.2,1.3l0.1,0.4l-0.4-0.1c-0.4-0.1-0.8-0.2-1.2-0.3
		l0.2-0.1c-0.3,0.3-0.6,0.5-0.9,0.8l0.1-0.2c0,0.3,0.1,0.6,0.1,0.8l0.1,0.4l-0.4-0.1c-0.3-0.1-0.5-0.1-0.8-0.2l0.2-0.1
		c-0.2,0.2-0.3,0.3-0.5,0.5l0.1-0.2c0,0.4-0.1,0.8-0.1,1.2l-0.2-0.3c0.6,0.2,1.2,0.3,1.8,0.5l-0.2,0.1c2.3-2.1,4.4-4,6-5.5l0.1-0.1
		l0.1,0c1.3,0.6,2.5,0.3,3.2,0C273.1,301,273.4,300.7,273.4,300.7"/>
	<path class="st2" d="M270.6,313.3c0,0,0,0.2,0.1,0.6c0,0.5,0.1,1.1,0.1,1.9c0.1,1.6,0.2,3.9,0.2,6.8c0.1,2.9,0.1,6.3,0.1,10.1
		c0,1.9,0,3.9-0.1,6c0,1,0,2.1-0.2,3.2c-0.2,1.1-0.7,2.2-1.7,2.9c-1,0.7-2.1,1-3.2,1.1c-1.1,0.2-2.1,0.3-3.2,0.4
		c-2.1,0.2-4.1,0.4-6,0.5c-3.8,0.2-7.3,0.2-10.1,0.1c-2.9-0.1-5.2-0.3-6.8-0.4c-0.8-0.1-1.4-0.2-1.8-0.2c-0.4-0.1-0.6-0.1-0.6-0.1
		c0,0,0.2,0,0.6,0c0.5,0,1.1,0.1,1.9,0.1c1.6,0.1,3.9,0.2,6.8,0.3c2.9,0,6.3,0,10.1-0.2c1.9-0.1,3.9-0.3,5.9-0.5
		c1-0.1,2.1-0.2,3.1-0.4c1-0.2,2.1-0.4,2.9-1c0.8-0.6,1.3-1.6,1.5-2.6c0.2-1,0.2-2.1,0.2-3.1c0-2.1,0.1-4.1,0.1-6
		c0.1-3.8,0.1-7.2,0-10.1c0-2.8-0.1-5.1-0.1-6.8c0-0.8,0-1.4,0-1.9C270.6,313.5,270.6,313.3,270.6,313.3"/>
	<path class="st2" d="M243.3,351.8c0,0.1-0.9-0.5-2.3-1.3c-1.4-0.8-3.4-1.9-5.7-3l-0.4-0.2l0.3-0.3c0.2-0.2,0.4-0.3,0.5-0.5
		c2-1.8,3.9-3.4,5.2-4.5c1.4-1.1,2.2-1.8,2.3-1.8c0,0.1-0.7,0.8-2,2c-1.3,1.2-3.1,2.9-5.1,4.6c-0.2,0.2-0.4,0.3-0.5,0.5l-0.1-0.4
		c2.3,1.1,4.3,2.2,5.6,3.1C242.6,351.1,243.4,351.8,243.3,351.8"/>
	<path class="st9" d="M223.8,126.7c0,0,1-0.3,2.8,0c1.8,0.3,4.4,1.3,6.4,3.9c1,1.3,1.8,3,2,4.9c0.1,1,0.1,2-0.1,3c-0.2,1-0.5,2-1,3
		c-0.9,1.9-2.5,3.7-4.5,4.9c-2,1.2-4.6,1.7-7,1.4c-2.5-0.3-4.8-1.3-6.6-2.7c-1.8-1.5-3.2-3.4-3.9-5.5c-0.7-2-0.9-4.2-0.5-6
		c0.4-1.9,1.3-3.5,2.4-4.7c1.1-1.2,2.4-1.9,3.7-2.4c1.2-0.4,2.3-0.6,3.2-0.6c0.9,0,1.6,0.2,2,0.3c0.4,0.2,0.7,0.3,0.7,0.3
		c0,0.1-0.9-0.4-2.7-0.4c-0.9,0-2,0.2-3.1,0.6c-1.2,0.5-2.4,1.2-3.5,2.4c-1.1,1.1-1.9,2.7-2.3,4.5c-0.3,1.8-0.2,3.8,0.5,5.8
		c0.7,2,2,3.8,3.7,5.2c1.8,1.4,4,2.4,6.4,2.6c2.4,0.3,4.8-0.2,6.7-1.3c1.9-1.1,3.5-2.8,4.4-4.7c0.5-0.9,0.8-1.9,1-2.9
		c0.2-1,0.2-1.9,0.1-2.8c-0.2-1.8-0.9-3.4-1.9-4.7c-1.9-2.5-4.5-3.6-6.2-3.9C224.8,126.6,223.8,126.8,223.8,126.7"/>
	<path class="st9" d="M249.6,113.5c0,0,0,0.4-0.1,1.1c-0.1,0.7-0.4,1.7-0.8,2.8c-0.9,2.3-2.7,5.4-5.8,7.7c-3.1,2.3-6.5,3.2-9,3.5
		c-1.2,0.1-2.2,0.1-2.9,0c-0.7-0.1-1.1-0.2-1.1-0.2c0-0.1,1.5,0.1,4-0.2c2.4-0.3,5.7-1.3,8.7-3.5c3-2.2,4.8-5.2,5.8-7.4
		C249.3,115,249.5,113.5,249.6,113.5"/>
	<path class="st6" d="M251.4,115.2c-0.1,0.1-1-1.1-2-2.6l0.4,0c0,0-0.1,0.1-0.1,0.1c-1.3,1.4-2.5,2.4-2.6,2.3
		c-0.1-0.1,0.9-1.3,2.2-2.6c0,0,0.1-0.1,0.1-0.1l0.2-0.2l0.2,0.3C250.8,113.9,251.5,115.1,251.4,115.2"/>
	<rect x="261.1" y="126.9" class="st9" width="16.4" height="16.4"/>
	
		<rect x="261.4" y="109.1" transform="matrix(0.9914 -0.131 0.131 0.9914 -13.0463 36.3441)" class="st9" width="16.4" height="16.4"/>
	
		<rect x="258.9" y="91.4" transform="matrix(0.9914 -0.131 0.131 0.9914 -10.7507 35.8408)" class="st12" width="16.4" height="16.4"/>
	
		<rect x="234.1" y="91.4" transform="matrix(0.14 -0.9902 0.9902 0.14 109.7627 325.6554)" class="st9" width="16.4" height="16.4"/>
	<path class="st6" d="M258.9,101.3c0,0.1-1.9,0.3-4.2,0.4c-2.3,0.1-4.2,0-4.2-0.1c0-0.1,1.9-0.3,4.2-0.4
		C256.9,101.1,258.9,101.1,258.9,101.3"/>
	<path class="st9" d="M145.7,128.8c0,0,0.2,0,0.7,0.2c0.4,0.1,1,0.4,1.7,0.9c1.4,0.9,3.2,2.9,3.8,5.9c0.3,1.5,0.2,3.2-0.4,4.9
		c-0.6,1.7-1.7,3.3-3.2,4.7c-1.5,1.4-3.4,2.4-5.5,3c-2.1,0.5-4.5,0.6-6.7-0.2c-2.2-0.7-4.1-2.2-5.3-4.1c-1.2-1.9-1.6-4-1.6-6
		c0.1-2,0.6-3.9,1.6-5.4c1-1.5,2.2-2.7,3.5-3.5c2.6-1.7,5.1-2,6.8-2.1c0.8,0,1.5,0.1,1.9,0.1c0.4,0.1,0.7,0.1,0.7,0.1
		c0,0.1-0.9-0.1-2.6-0.1c-1.6,0.1-4.1,0.5-6.6,2.2c-1.2,0.8-2.4,1.9-3.3,3.4c-0.9,1.5-1.4,3.3-1.5,5.2c0,1.9,0.4,4,1.5,5.8
		c1.1,1.8,2.9,3.2,5,3.9c2.1,0.7,4.4,0.7,6.4,0.2c2-0.5,3.9-1.5,5.3-2.8c1.4-1.3,2.5-2.9,3.1-4.5c0.6-1.6,0.7-3.3,0.4-4.7
		c-0.5-2.9-2.2-4.9-3.5-5.8C146.6,129,145.7,128.9,145.7,128.8"/>
	<path class="st9" d="M183.6,103.8c0,0,0,0.2,0.1,0.5c0,0.3,0.1,0.9,0.1,1.5c0,1.3-0.1,3.2-0.5,5.5c-0.4,2.3-1.2,5-2.6,7.8
		c-1.4,2.8-3.3,5.7-5.8,8.2c-2.6,2.5-5.4,4.5-8.2,5.8c-2.8,1.4-5.5,2.2-7.8,2.6c-2.3,0.4-4.2,0.5-5.5,0.5c-0.7,0-1.2,0-1.5-0.1
		c-0.3,0-0.5,0-0.5-0.1c0,0,0.7,0,2-0.1c1.3,0,3.2-0.2,5.4-0.7c4.5-0.9,10.7-3.4,15.7-8.4c5-5,7.5-11.2,8.4-15.7
		c0.5-2.3,0.6-4.2,0.7-5.4C183.6,104.5,183.6,103.8,183.6,103.8"/>
	<path class="st6" d="M188,107.8c-0.1,0.1-1.9-2.2-4.1-5.2l0.4,0c-0.1,0.1-0.1,0.2-0.2,0.3c-1.9,3.4-3.6,6-3.7,6
		c-0.1-0.1,1.3-2.9,3.3-6.2c0.1-0.1,0.1-0.2,0.2-0.3l0.2-0.3l0.2,0.3C186.4,105.3,188.1,107.7,188,107.8"/>
	<rect x="0.5" y="-0.9" class="st8" width="500" height="500"/>
	<linearGradient id="SVGID_6_" gradientUnits="userSpaceOnUse" x1="320.2287" y1="175.4216" x2="379.7295" y2="175.4216">
		<stop  offset="0" style="stop-color:#704091"/>
		<stop  offset="1" style="stop-color:#45277C"/>
	</linearGradient>
	<path class="st13" d="M378.9,182.2c-3.7,16-19.7,25.9-35.7,22.2c-16-3.7-25.9-19.7-22.2-35.7c3.7-16,19.7-25.9,35.7-22.2
		C372.7,150.2,382.7,166.2,378.9,182.2"/>
	<path class="st1" d="M357.2,189.4l-19.9-4.6l0.6-2.4c1.3-5.5,6.8-8.9,12.3-7.6c5.5,1.3,8.9,6.8,7.6,12.3L357.2,189.4z"/>
	<path class="st1" d="M357.2,170.9c-0.8,3.2-4,5.2-7.2,4.5c-3.2-0.8-5.2-4-4.5-7.2c0.8-3.2,4-5.2,7.2-4.5
		C355.9,164.5,357.9,167.7,357.2,170.9"/>
	<path class="st14" d="M338.8,202.7c0,0-1.4-5.8-2.6-6.8c-1.2-1.1-3.8-3.9-4.4-6.1c-0.4-1.5-1.5-1.2-1.5-1.2l1,5.7l-9.6-8.3
		c0,0-0.9,1.5,0,3.3c0.9,1.8,0.5,1.6,0.5,1.6s-1.4,0.6-1,1.8c0.4,1.3,1.3,2.9,1.3,2.9s-1.4,1.2-1.2,2.7c0,0-0.7,1.1-0.7,2.8
		c0,1.7,2.4,5.3,2.4,5.3l13.6,9.6l7.4-9.4L338.8,202.7z"/>
	<path class="st15" d="M328.1,191.6c-0.1,0.1,1.2,1.3,2.7,2.7c1.6,1.4,2.9,2.5,3,2.4c0.1-0.1-1.2-1.3-2.7-2.7
		C329.5,192.6,328.1,191.5,328.1,191.6"/>
	<path class="st15" d="M322.1,190.4c-0.1,0.1,0.9,1.6,2.3,3.5c1.3,1.9,2.5,3.3,2.6,3.2c0.1-0.1-0.9-1.6-2.3-3.5
		C323.4,191.8,322.2,190.4,322.1,190.4"/>
	<path class="st15" d="M322.2,195.1c-0.1,0.1,0.4,1,1,2c0.6,1.1,1.2,1.9,1.3,1.8c0.1-0.1-0.4-1-1-2
		C322.8,195.9,322.2,195.1,322.2,195.1"/>
	<path class="st15" d="M321.3,198.2c-0.1,0.1,0.1,0.6,0.5,1.3c0.3,0.7,0.6,1.2,0.7,1.2c0.1,0,0-0.6-0.3-1.3
		C321.8,198.6,321.4,198.1,321.3,198.2"/>
	<path class="st2" d="M381.6,141c0.1,0,0-1.5,0.7-3.6c0.2-0.5,0.5-1.1,0.9-1.5c0.4-0.4,1-0.2,1.4,0.5c0.7,1.2,1,2.9,1,4.6
		c0,1.7-0.3,3.4-1,4.6c-0.4,0.6-1,0.9-1.4,0.5c-0.5-0.4-0.7-1-0.9-1.5C381.7,142.5,381.8,141,381.6,141c0,0-0.1,0.4-0.1,1
		c0,0.6,0.1,1.6,0.4,2.7c0.2,0.6,0.4,1.2,1,1.7c0.3,0.3,0.8,0.5,1.2,0.3c0.4-0.2,0.7-0.5,1-0.8c0.9-1.4,1.1-3.2,1.1-4.9
		c0-1.8-0.3-3.5-1.1-4.9c-0.2-0.3-0.5-0.7-1-0.8c-0.4-0.2-0.9,0-1.2,0.3c-0.6,0.5-0.8,1.2-1,1.7c-0.4,1.1-0.4,2.1-0.4,2.7
		C381.6,140.6,381.6,141,381.6,141"/>
	<path class="st14" d="M407.5,186.8L407.5,186.8c-6.3,0.5-11.8-4.4-12.1-10.7c-0.3-6.1-0.5-12.3-0.5-12.3s-9.2-0.8-9.9-10
		c-0.7-9.1-0.5-30.3-0.5-30.3c10.3-5.2,22.6-4.5,32.2,2l-0.5,32.2l0.1,17.3C416.3,180.9,413.3,186.3,407.5,186.8"/>
	<path class="st15" d="M395.7,148.3c0,0,0,0.2,0.1,0.4c0.2,0.2,0.5,0.5,1,0.5c1,0.1,2.3-1,2.4-2.5c0-0.7-0.2-1.5-0.7-1.9
		c-0.4-0.5-1-0.7-1.4-0.8c-0.9-0.2-1.5,0.2-1.4,0.2c0,0.1,0.6,0,1.3,0.2c0.7,0.2,1.7,1.1,1.6,2.3c0,1.2-1,2.1-1.7,2.1
		C396.1,148.8,395.8,148.3,395.7,148.3"/>
	<path class="st2" d="M381.6,140.5c0,0.2,2.7,0.7,6.2,1.3c3.4,0.6,6.2,0.9,6.3,0.7c0-0.2-2.7-0.7-6.2-1.3
		C384.4,140.7,381.6,140.4,381.6,140.5"/>
	<linearGradient id="SVGID_7_" gradientUnits="userSpaceOnUse" x1="376.7657" y1="138.6943" x2="434.705" y2="138.6943">
		<stop  offset="0" style="stop-color:#704091"/>
		<stop  offset="1" style="stop-color:#45277C"/>
	</linearGradient>
	<path class="st16" d="M434.7,142.7c0.2-3.6-2.4-7.2-5.9-8.2c1-1.4,1.2-3.2,0.5-4.8c-0.6-1.5-2.1-2.7-3.8-3c-0.3-0.1-0.7-0.1-1-0.1
		c-0.2-0.2-0.3-0.4-0.5-0.5c-2.9-2.5-3.1-6.5-6.4-8.4c-3.2-1.9-7.4-2.1-10.5-0.1c-2.2-1.1-4.2-2.5-6.3-3.6c-3-1.5-6.6-2.4-9.6-0.9
		c-2.1,1.1-3.6,3.2-5.6,4.4c-3,1.7-7,1.3-8.4,5.7c-0.5,1.5-0.5,3.2,0.1,4.7c2,5.9,9.4,8.3,14.6,5.7c0.1,1-0.9,3.2,0.2,6.4
		c0.3,1,0.5,2.6,2,2.6c1.6-2,4.1-2.7,6.2-1.4c2.1,1.4,2.9,4.4,1.8,6.6c-0.8,1.6-2.6,3-4.5,3.4c-1.7,0.4-2.9,2-2.7,3.8
		c0.3,2.3,4.1,3.1,5.8,5c2.7,2.9,8.6,4.2,12.5,4.6c3.4,0.4,3.5,0.5,4.9-1.6c1.1,0,2.1-0.1,3.1-0.5c4.9-1.7,8-7.3,6.8-12.3
		C431.6,149.7,434.5,146.4,434.7,142.7"/>
	<path class="st12" d="M415.9,146.3c0,0-0.4,0.2-1.2,0.3c-0.8,0.1-2,0.1-3.4-0.5c-1.4-0.5-2.9-1.7-3.7-3.5c-0.8-1.8-1-4.1,0.1-6.2
		c0-0.1,0.1-0.1,0.1-0.2l0.1,0.2c-2.2,0.2-4.4,0.2-6.2-0.4c-1.9-0.5-3.3-1.6-4.2-2.8c-0.9-1.2-1.2-2.4-1.2-3.2
		c0-0.8,0.1-1.2,0.1-1.2c0,0-0.1,0.4,0,1.2c0.1,0.8,0.4,1.9,1.3,3.1c0.9,1.1,2.3,2.2,4.1,2.7c1.8,0.5,3.9,0.6,6.1,0.4l0.2,0
		l-0.1,0.2c0,0.1-0.1,0.1-0.1,0.2c-1,2-0.9,4.3-0.1,6c0.8,1.8,2.2,2.9,3.6,3.4c1.3,0.6,2.6,0.6,3.4,0.5
		C415.5,146.4,415.9,146.3,415.9,146.3"/>
	<path class="st12" d="M423.8,138.7c0,0,0.3-0.3,0.8-1c0.5-0.7,1-1.8,1.2-3.3c0.2-1.5-0.1-3.4-1.3-5c-1.2-1.6-3.3-2.7-5.6-2.7
		c-0.9,0-1.8,0.2-2.6,0.5l-0.1,0.1l0-0.1c-0.3-2-1.4-3.6-2.7-4.6c-1.4-1-2.9-1.3-4.1-1.2c-1.2,0.1-2.2,0.4-2.8,0.7
		c-0.6,0.3-0.9,0.6-0.9,0.5c0,0,0.3-0.3,0.9-0.6c0.6-0.3,1.6-0.7,2.8-0.8c1.3-0.1,2.8,0.2,4.2,1.2c1.4,1,2.6,2.7,2.8,4.7l-0.1-0.1
		c0.8-0.3,1.7-0.5,2.7-0.5c2.4,0,4.5,1.2,5.7,2.8c1.2,1.6,1.5,3.6,1.3,5.1c-0.2,1.5-0.8,2.7-1.3,3.3
		C424.1,138.4,423.8,138.7,423.8,138.7"/>
	<path class="st12" d="M414.8,153.1c0,0-0.1,0.1-0.4,0.3c-0.3,0.1-0.7,0.3-1.2,0.4c-0.5,0.1-1.2,0-1.9-0.2c-0.7-0.3-1.4-0.8-1.8-1.6
		l0.2,0c-0.6,0.5-1.3,0.9-2.1,1.2c-1.1,0.4-2.3,0.4-3.3,0.2c-1-0.2-1.8-0.7-2.4-1.1c-0.6-0.5-1-0.9-1.2-1.3
		c-0.2-0.4-0.3-0.6-0.3-0.6c0,0,0.5,0.9,1.7,1.7c0.6,0.4,1.4,0.9,2.4,1.1c1,0.2,2.1,0.2,3.1-0.2c0.8-0.3,1.5-0.7,2-1.1l0.1-0.1
		l0.1,0.1c0.4,0.7,1.1,1.2,1.7,1.5c0.7,0.3,1.3,0.3,1.8,0.3C414.3,153.5,414.8,153.1,414.8,153.1"/>
	<path class="st9" d="M429.8,142c-0.7-1.6-2.3-2.8-4-3.1c-1.7-0.3-4.8,1.5-4.8,1.5c-0.4-0.7-1.2-0.9-1.2-0.9
		c-1.7-0.3-3.5,0.6-4.4,2.1c-0.8,1.5-0.6,3.5,0.6,4.8c-1.5,0.9-2.4,2.8-2,4.5c0.3,1.7,1.9,3.1,3.6,3.3c1.7,0.2,3.5-0.8,4.3-2.3
		c1.4,1.6,4.1,1.9,5.9,0.6c1.7-1.3,2.3-4,1.2-5.8C430.3,145.7,430.5,143.6,429.8,142"/>
	<path class="st1" d="M419.6,145.2c-0.1,0-0.7-1.1-2-1.9c-0.6-0.4-1.3-0.7-1.8-0.7c-0.5-0.1-0.8-0.1-0.8-0.1c0,0,0.3-0.1,0.8,0
		c0.5,0.1,1.2,0.3,1.9,0.7c0.7,0.4,1.1,0.9,1.4,1.4C419.5,144.9,419.6,145.2,419.6,145.2"/>
	<path class="st1" d="M419.5,139.6c0,0,0.2,0.2,0.5,0.6c0.3,0.4,0.7,1,0.9,1.8c0.5,1.5,0.2,2.8,0.2,2.8c-0.1,0,0.2-1.3-0.3-2.7
		C420.2,140.6,419.4,139.6,419.5,139.6"/>
	<path class="st1" d="M423.6,139.2c0,0,0.6,0.9,0.3,2.2c-0.3,1.3-1.2,1.9-1.2,1.9c-0.1,0,0.7-0.7,1-1.9
		C423.9,140.2,423.5,139.3,423.6,139.2"/>
	<path class="st1" d="M427,139.3c0.1,0,0.4,1.2-0.2,2.5c-0.3,0.7-0.8,1.1-1.2,1.3c-0.4,0.2-0.7,0.3-0.7,0.2c0,0,1.1-0.4,1.7-1.6
		c0.3-0.6,0.4-1.2,0.4-1.7C427.1,139.6,427,139.4,427,139.3"/>
	<path class="st1" d="M414.6,147.8c-0.1-0.1,0.8-0.6,1.9-0.6c1.1-0.1,2,0.3,2,0.4c0,0-0.9-0.2-1.9-0.1
		C415.4,147.5,414.6,147.9,414.6,147.8"/>
	<path class="st1" d="M414.6,152.3c0,0,0-0.3,0.2-0.7c0.2-0.4,0.5-0.9,1-1.4c1.2-0.8,2.4-0.5,2.3-0.4c0,0.1-1.1-0.1-2.2,0.6
		c-0.5,0.4-0.8,0.9-1,1.3C414.7,152,414.6,152.3,414.6,152.3"/>
	<path class="st12" d="M439.1,150.1c0,0,0.4,0,1-0.2c0.6-0.2,1.5-0.7,2.2-1.8c0.7-1,1.1-2.5,0.5-4.1c-0.5-1.5-1.8-2.9-3.5-3.7
		c-1.7-0.7-3.6-0.8-5.2-0.5c-1.6,0.2-3,0.8-4.1,1.3c-1.1,0.5-2,1-2.6,1.3c-0.3,0.1-0.5,0.2-0.7,0.4c-0.2,0.1-0.3,0.1-0.3,0.1
		c0,0,0.1-0.1,0.2-0.2c0.2-0.1,0.4-0.2,0.7-0.4c0.6-0.3,1.5-0.8,2.6-1.3c1.1-0.5,2.5-1.1,4.1-1.3c1.6-0.3,3.5-0.2,5.3,0.5
		c1.8,0.8,3.1,2.2,3.6,3.8c0.3,0.8,0.3,1.6,0.2,2.3c-0.1,0.7-0.4,1.4-0.8,1.9c-0.7,1-1.7,1.6-2.3,1.7
		C439.5,150.2,439.1,150.1,439.1,150.1"/>
	<linearGradient id="SVGID_8_" gradientUnits="userSpaceOnUse" x1="415.9341" y1="153.5621" x2="443.0237" y2="153.5621">
		<stop  offset="0" style="stop-color:#704091"/>
		<stop  offset="1" style="stop-color:#45277C"/>
	</linearGradient>
	<path class="st17" d="M439.6,150.3c2.9-0.6,4.2-4.5,2.9-7.1c-1.4-2.6-4.6-3.9-7.5-3.6c-2.9,0.2-5.7,1.7-8.2,3.2
		c-2.1-1-4.8,0.2-5.8,2.2c-2.1-0.2-4.3,1.2-4.9,3.3c-0.7,2.3,0.8,5.1,3.2,5.7c-2.4,1.9-3.4,5.4-2.5,8.4c1,2.9,3.9,5.1,7,5.2
		c3.1,0.1,6.2-1.8,7.4-4.7c3.3,1.9,8,0.8,10.1-2.4C443.3,157.3,442.6,152.6,439.6,150.3"/>
	<path class="st12" d="M442.4,156.1c0,0,0.1,0.4,0,1.1c-0.2,0.7-0.7,1.6-1.9,2.2c-1.1,0.6-2.7,0.9-4.5,0.5c-1.7-0.3-3.6-1.4-4.8-3.2
		l0.2,0c0,1.5-1,3-2.5,3.8c-1.4,0.9-3.4,0.8-4.9,0c-1.3-0.7-2.4-1.8-3-3c-0.3-0.6-0.5-1.3-0.5-2c0-0.7,0.3-1.4,0.7-1.9l0.1,0.2
		c-2.4,0.5-4.6-1-5.2-2.9c-0.7-1.9,0-3.7,1-4.7c1-1,2.2-1.3,2.9-1.4c0.8-0.1,1.2,0.1,1.2,0.1c0,0-0.4-0.1-1.2,0
		c-0.7,0.1-1.9,0.4-2.8,1.4c-1,1-1.5,2.8-0.9,4.6c0.6,1.8,2.8,3.2,5,2.7l0.3-0.1l-0.2,0.2c-0.9,0.9-0.8,2.5-0.2,3.7
		c0.6,1.2,1.6,2.3,2.9,2.9c1.5,0.8,3.4,0.8,4.8,0c1.4-0.8,2.3-2.2,2.4-3.7l0-0.3l0.2,0.3c1.2,1.8,3,2.8,4.7,3.1
		c1.7,0.4,3.3,0.1,4.4-0.5c1.1-0.6,1.7-1.5,1.9-2.1C442.5,156.5,442.3,156.1,442.4,156.1"/>
	<path class="st12" d="M440.5,149.2c0,0,0.3-0.3,0.4-1c0.1-0.7-0.1-1.8-1.1-2.7c-0.9-0.8-2.4-1.5-4.1-1.6c-1.7-0.1-3.5,0.6-4.9,2
		c-0.4,0.4-0.7,0.9-1,1.3l-0.2,0.3l0-0.4c-0.1-1.7-1.2-3.2-2.5-3.9c-1.3-0.8-2.7-0.7-3.8-0.3c-1.1,0.4-1.8,1-2.2,1.4
		c-0.4,0.5-0.6,0.8-0.6,0.8c0,0,0.1-0.3,0.5-0.8c0.4-0.5,1.1-1.1,2.2-1.5c1.1-0.4,2.6-0.5,3.9,0.3c1.3,0.7,2.5,2.3,2.6,4.1l-0.2,0
		c0.3-0.5,0.6-0.9,1-1.4c1.4-1.5,3.3-2.2,5-2.1c1.7,0.1,3.2,0.8,4.2,1.7c1,0.9,1.2,2.1,1.1,2.8c-0.1,0.4-0.2,0.6-0.3,0.8
		C440.6,149.1,440.5,149.2,440.5,149.2"/>
	<path class="st12" d="M440.4,158.3c0,0,0,0.3-0.1,0.9c-0.1,0.6-0.4,1.4-1,2.2c-0.6,0.8-1.6,1.7-3.1,2.1c-1.4,0.4-3.2,0.3-4.7-0.7
		l0.1,0c-1.2,2.5-4.1,4.6-7.5,4.7c-3,0.1-5.6-1.6-7.1-3.7c-1.5-2.1-1.8-4.6-1.2-6.5c0.6-1.9,2.1-2.8,3.1-3.1c0.5-0.1,1-0.1,1.2-0.1
		c0.3,0,0.4,0.1,0.4,0.1c0,0-0.6-0.2-1.6,0.1c-1,0.3-2.5,1.2-3,3.1c-0.6,1.8-0.2,4.3,1.2,6.3c1.4,2,4,3.7,6.9,3.6
		c1.6,0,3.2-0.6,4.5-1.4c1.3-0.8,2.3-2,2.9-3.2l0-0.1l0.1,0.1c1.5,0.9,3.2,1.1,4.6,0.7c1.4-0.4,2.4-1.2,3-2.1c0.6-0.8,0.9-1.6,1-2.2
		C440.4,158.6,440.4,158.3,440.4,158.3"/>
	<path class="st12" d="M434.8,151.5c0,0-0.1,0.2-0.4,0.6c-0.3,0.3-0.8,0.8-1.6,1.1c-0.8,0.3-1.8,0.5-2.9,0.1
		c-1.1-0.3-2.1-1.1-2.7-2.3l0.1,0.1c-0.1,0.1-0.3,0.1-0.4,0.2c-1.3,0.4-2.7,0.2-3.7-0.3c-1.1-0.5-1.8-1.4-2.1-2.2
		c-0.4-0.8-0.5-1.5-0.5-2c0-0.5,0.1-0.8,0.1-0.8c0.1,0-0.2,1.1,0.6,2.7c0.4,0.8,1.1,1.6,2.1,2.1c1,0.5,2.3,0.7,3.6,0.3
		c0.1,0,0.3-0.1,0.4-0.2l0.1,0l0,0.1c0.6,1.1,1.6,1.9,2.6,2.2c1,0.3,2,0.2,2.8-0.1C434.2,152.4,434.8,151.4,434.8,151.5"/>
	<polygon class="st14" points="445.7,407.4 448.6,461.1 429.2,465.8 425.3,413.3 	"/>
	<polygon class="st9" points="449.2,460.6 452.5,475.2 430.1,475.2 429.2,465.7 	"/>
	<path class="st2" d="M429.7,473.1c0,0.1,1.2,0.2,3.3,0.2c2,0,4.8,0,7.9-0.1c3-0.1,5.6-0.2,7.9-0.3c2-0.1,3.3-0.2,3.3-0.3
		c0-0.1-1.2-0.2-3.3-0.2c-2,0-4.8,0-7.9,0.2c-3,0.1-5.6,0.2-7.9,0.3C430.9,472.9,429.7,473,429.7,473.1"/>
	<path class="st2" d="M439.2,463.5c-0.2,0-0.2,2.1,0,4.7s0.5,4.7,0.6,4.7c0.2,0,0.2-2.1,0-4.7C439.6,465.6,439.3,463.5,439.2,463.5"
		/>
	<g class="st18">
		<g>
			<defs>
				<rect id="SVGID_9_" x="429.9" y="472.5" width="22.6" height="2.7"/>
			</defs>
			<clipPath id="SVGID_10_">
				<use xlink:href="#SVGID_9_"  style="overflow:visible;"/>
			</clipPath>
			<polyline class="st19" points="452.5,475.2 430.1,475.2 429.9,473.1 452.1,472.5 452.5,475 			"/>
		</g>
	</g>
	<polygon class="st14" points="371.8,433.5 367.1,469.1 349.9,467.9 353.5,435.3 	"/>
	<path class="st9" d="M349.7,464L349.7,464c0,0-19.4,6.5-19.7,10.1l37,1.1l0.3-9.7l-1.4,0.3C360.5,466.9,354.8,466.3,349.7,464"/>
	<g class="st18">
		<g>
			<defs>
				<rect id="SVGID_11_" x="361.2" y="467.1" width="2.9" height="2.9"/>
			</defs>
			<clipPath id="SVGID_12_">
				<use xlink:href="#SVGID_11_"  style="overflow:visible;"/>
			</clipPath>
			<path class="st20" d="M363,467.2c0.7,0.2,1.2,1,1,1.8c-0.2,0.7-1,1.2-1.7,1c-0.7-0.2-1.3-1.2-1-1.9c0.3-0.7,1.3-1.2,1.9-0.8"/>
		</g>
	</g>
	<g class="st18">
		<g>
			<defs>
				<rect id="SVGID_13_" x="330" y="472.2" width="37" height="3"/>
			</defs>
			<clipPath id="SVGID_14_">
				<use xlink:href="#SVGID_13_"  style="overflow:visible;"/>
			</clipPath>
			<path class="st21" d="M367,475.2l0-3l-35.5,0.1c0,0-1.7,0.7-1.5,1.8L367,475.2z"/>
		</g>
	</g>
	<path class="st2" d="M349.1,463.8c0,0.2,0.9,0.3,1.8,0.9c0.9,0.6,1.3,1.4,1.5,1.3c0.2,0-0.1-1.1-1.1-1.8
		C350.2,463.5,349.1,463.7,349.1,463.8"/>
	<path class="st2" d="M345.2,465.3c0,0.2,0.7,0.5,1.3,1.3c0.6,0.8,0.7,1.6,0.9,1.6c0.2,0,0.3-1-0.4-2
		C346.3,465.3,345.2,465.1,345.2,465.3"/>
	<path class="st2" d="M342.8,469.9c0.2,0,0.4-0.9,0-1.9c-0.4-1-1.3-1.4-1.4-1.3c-0.1,0.1,0.4,0.7,0.8,1.5
		C342.6,469.1,342.7,469.9,342.8,469.9"/>
	<path class="st2" d="M349.5,463.7c0,0.1,0.7,0.2,1.9,0c0.6-0.1,1.2-0.2,2-0.5c0.4-0.1,0.7-0.3,1.1-0.5c0.2-0.1,0.4-0.2,0.6-0.4
		c0.2-0.2,0.3-0.7,0.1-1c-0.2-0.3-0.5-0.4-0.8-0.4c-0.3,0-0.5,0-0.7,0.1c-0.4,0.1-0.8,0.2-1.2,0.4c-0.7,0.3-1.3,0.7-1.7,1.1
		c-0.9,0.8-1.2,1.4-1.1,1.5c0.1,0.1,0.5-0.5,1.4-1.1c0.4-0.3,1-0.6,1.7-0.9c0.3-0.1,0.7-0.2,1.1-0.3c0.4-0.1,0.7-0.1,0.8,0.1
		c0,0.1,0,0.1,0,0.2c-0.1,0.1-0.2,0.2-0.4,0.3c-0.3,0.2-0.7,0.4-1,0.5c-0.7,0.3-1.3,0.5-1.8,0.6
		C350.2,463.6,349.5,463.6,349.5,463.7"/>
	<path class="st2" d="M349.7,464c0.1,0,0.4-0.6,0.5-1.8c0-0.6,0-1.3-0.2-2c-0.1-0.4-0.2-0.8-0.4-1.1c-0.2-0.4-0.5-0.9-1.2-1
		c-0.4,0-0.7,0.3-0.8,0.5c-0.1,0.2-0.2,0.5-0.2,0.7c-0.1,0.4-0.1,0.9,0,1.2c0.1,0.8,0.4,1.5,0.7,1.9c0.7,1,1.4,1.2,1.5,1.2
		c0.1-0.1-0.6-0.5-1.1-1.4c-0.3-0.5-0.5-1.1-0.5-1.8c0-0.3,0-0.7,0.1-1.1c0.1-0.4,0.2-0.7,0.4-0.7c0.2,0,0.5,0.3,0.6,0.6
		c0.2,0.3,0.3,0.7,0.4,1c0.2,0.7,0.3,1.3,0.3,1.9C349.9,463.3,349.6,464,349.7,464"/>
	<path class="st0" d="M431.3,253.3c0,0,13.7,22.8,13.7,36.5l3.4,166.3l-21.6,5.1l-16.5-162.5c0,0-39.9,162.9-41.2,162.9
		c-1.3,0-20.9-3.5-20.9-3.5L378,254L431.3,253.3z"/>
	<path class="st12" d="M422.8,294.2c0,0,0,0.1,0,0.4c0,0.3,0.1,0.7,0.2,1.2c0.2,1.1,0.4,2.7,0.7,4.7c0.7,4.1,1.6,10,2.7,17.2
		c2.2,14.5,4.9,34.7,7.2,57.1c2.3,22.4,3.7,42.7,4.5,57.4c0.4,7.4,0.7,13.3,0.9,17.4c0.1,2,0.2,3.6,0.2,4.7c0,0.5,0.1,0.9,0.1,1.2
		c0,0.3,0,0.4,0,0.4c0,0,0-0.1,0-0.4c0-0.3,0-0.7,0-1.2c0-1.1-0.1-2.7-0.1-4.7c-0.1-4.1-0.3-10.1-0.7-17.4
		c-0.7-14.7-2-35.1-4.3-57.4c-2.3-22.4-5.1-42.6-7.4-57.1c-1.1-7.3-2.1-13.2-2.9-17.2c-0.4-2-0.7-3.6-0.9-4.7
		c-0.1-0.5-0.2-0.9-0.2-1.2C422.9,294.4,422.8,294.2,422.8,294.2"/>
	<path class="st12" d="M388.7,297c-0.2,0-6.7,36.5-14.7,81.5c-8,45-14.3,81.6-14.1,81.6c0.2,0,6.7-36.5,14.7-81.5
		C382.5,333.5,388.8,297,388.7,297"/>
	<path class="st12" d="M411.1,298.4c0,0,0.1-0.1,0.2-0.4c0.1-0.3,0.3-0.7,0.5-1.2c0.4-1.1,1-2.7,1.6-4.7c1.1-4,2-9.8,1.5-16.2
		c-0.1-1.6-0.3-3.1-0.6-4.6c-0.3-1.5-0.7-2.9-1-4.2c-0.8-2.7-1.5-5-2.2-7c-0.7-2-1.3-3.6-1.7-4.6c-0.2-0.5-0.4-0.9-0.5-1.2
		c-0.1-0.3-0.2-0.4-0.2-0.4c0,0,0,0.2,0.1,0.5c0.1,0.4,0.2,0.8,0.4,1.3c0.4,1.2,0.9,2.8,1.5,4.7c0.6,2,1.4,4.4,2.1,7
		c0.4,1.3,0.7,2.7,1,4.2c0.2,1.5,0.4,3,0.6,4.6c0.5,6.3-0.3,12.1-1.4,16.1c-0.5,2-1.1,3.6-1.4,4.7
		C411.3,297.8,411,298.4,411.1,298.4"/>
	<path class="st12" d="M405,270.5c0,0,0,0.1,0,0.3c0,0.2,0,0.5,0,0.9c0,0.8-0.1,1.9-0.1,3.3c-0.1,2.9-0.2,6.8-0.4,11.6l0.1-0.2
		c-2.5,1-5.3,2.2-8.3,3.4l0.2,0c-2.1-1.3-4.4-2.7-6.7-4.1c-0.1-0.1-0.3-0.2-0.4-0.3l0.1,0.2c-0.5-5.5-1-10.6-1.4-15.1l-0.2,0.2
		c5.1,0,9.4-0.1,12.4-0.1c1.5,0,2.7,0,3.5-0.1c0.4,0,0.7,0,0.9,0C404.8,270.5,405,270.5,405,270.5c0,0-0.4,0-1.2-0.1
		c-0.9,0-2,0-3.5-0.1c-3.1,0-7.4-0.1-12.6-0.1l-0.3,0l0,0.3c0.4,4.5,0.8,9.6,1.3,15.1l0,0.1l0.1,0.1c0.1,0.1,0.3,0.2,0.4,0.3
		c2.3,1.4,4.6,2.8,6.8,4.1l0.1,0.1l0.1,0c3-1.2,5.8-2.4,8.3-3.4l0.1-0.1l0-0.1c0.1-4.8,0.1-8.8,0.2-11.7c0-1.3,0-2.4,0-3.2
		C405,270.9,405,270.5,405,270.5"/>
	<path class="st12" d="M436.2,266.1c0,0,0,0.4,0.1,1.1c0.1,0.8,0.3,1.8,0.5,3c0.4,2.6,1,6.3,1.7,10.7l0.1-0.2c-1.9,1.4-4,3-6.3,4.7
		l0.2,0c-2.4-0.7-5-1.4-7.6-2.1c-0.1,0-0.3-0.1-0.4-0.1l0.2,0.2c-1.5-5-2.8-9.6-4-13.7l-0.2,0.3c4.6-1.1,8.5-2,11.3-2.7
		c1.3-0.3,2.4-0.6,3.2-0.8C435.8,266.2,436.2,266.1,436.2,266.1c0,0-0.4,0-1.1,0.2c-0.8,0.2-1.9,0.4-3.2,0.7
		c-2.8,0.6-6.8,1.5-11.5,2.5l-0.2,0.1l0.1,0.2c1.2,4,2.5,8.7,4,13.7l0,0.1l0.1,0c0.1,0,0.3,0.1,0.4,0.1c2.7,0.7,5.2,1.4,7.6,2.1
		l0.1,0l0.1-0.1c2.2-1.7,4.3-3.3,6.2-4.7l0.1-0.1l0-0.1c-0.8-4.4-1.5-8.1-2-10.8c-0.2-1.2-0.4-2.2-0.6-3
		C436.3,266.4,436.2,266.1,436.2,266.1"/>
	<path class="st12" d="M392.6,295.2c0,0.1,4.1,1.2,9.2,2.3c5.1,1.1,9.3,1.9,9.3,1.8c0-0.1-4.1-1.2-9.2-2.3
		C396.8,295.8,392.6,295,392.6,295.2"/>
	<path class="st12" d="M419.4,295.9c0,0.1,0.9,0.1,2.4,0c1.5-0.1,3.4-0.4,5.6-0.9c2.2-0.5,4.1-1.1,5.4-1.7c1.4-0.5,2.1-1,2.1-1
		c0-0.1-0.9,0.2-2.2,0.7c-1.4,0.4-3.3,1-5.4,1.5c-2.1,0.5-4.1,0.8-5.5,1C420.3,295.7,419.4,295.8,419.4,295.9"/>
	<polyline class="st9" points="392.7,172.3 395,167.4 415.7,166.7 419,173 393,173 	"/>
	<polygon class="st9" points="341.8,204.4 331.6,214.2 357.8,237.6 365.4,219.6 	"/>
	<polygon class="st9" points="443.6,234.1 423.7,226.2 428.2,209.7 444.4,215.2 	"/>
	<path class="st9" d="M359.3,238.5c-5-2.5-6.2-8.4-3.8-13.4l20.6-44.1c0.5-1.1,1.2-2.1,2.1-2.8c8.1-7,17.1-5.8,17.1-5.8l21.5-0.6
		c0,0,16.9,0,23.2,13.3c0.5,1,10.3,20.5,16.8,33.3c3,5.9,0.1,13.1-6.1,15.4c-5.5,2-11.6-0.6-14-5.9l-7-15.7l-4.4,22.5l6.4,18.5
		l-53.3,0.7l4.1-24.8l1.3-17.7l-10.8,22.3C370.4,239,364.3,241,359.3,238.5"/>
	<g class="st22">
		<g>
			<defs>
				<rect id="SVGID_15_" x="393" y="218.1" width="30.7" height="18.2"/>
			</defs>
			<clipPath id="SVGID_16_">
				<use xlink:href="#SVGID_15_"  style="overflow:visible;"/>
			</clipPath>
			<path class="st23" d="M423.4,234.4c-4,3-10,2-15,1.2c-5-0.8-9.8-3.2-13-7.1c-1.5-1.7-2.6-3.9-2.4-6.2c0.2-2.3,2.2-4.4,4.4-4.2
				c2.6,0.3,3.8,3.2,5.1,5.5c3.9,7.2,12.8,11.4,20.8,9.8C423.3,233.4,424.1,233.8,423.4,234.4"/>
		</g>
	</g>
	<g class="st22">
		<g>
			<defs>
				<rect id="SVGID_17_" x="382" y="199.7" width="8.5" height="33.1"/>
			</defs>
			<clipPath id="SVGID_18_">
				<use xlink:href="#SVGID_17_"  style="overflow:visible;"/>
			</clipPath>
			<path class="st24" d="M390.5,199.7c-1.3,10.1-0.7,9.4-2.8,19.4c-1,4.9-2.3,10.1-5.7,13.8l1.7-21.2L390.5,199.7z"/>
		</g>
	</g>
	<polygon class="st9" points="431.6,253.3 433.1,248.8 429.2,246.2 380.2,242.2 376.8,248.6 378.3,254 	"/>
	<path class="st2" d="M429.8,214.5c-0.1,0,0.3,1,1.1,2.5c0.7,1.5,1.8,3.6,3.1,5.8c1.3,2.2,2.6,4.2,3.6,5.5c1,1.4,1.6,2.2,1.7,2.2
		c0.1,0-0.5-0.9-1.4-2.4c-0.9-1.4-2.1-3.4-3.4-5.6c-1.3-2.2-2.4-4.2-3.3-5.7C430.4,215.3,429.8,214.4,429.8,214.5"/>
	<path class="st2" d="M434.5,222.9c-0.1,0-0.3,1.7,0.3,3.7c0.6,2,1.8,3.3,1.9,3.2c0.1-0.1-0.8-1.5-1.4-3.4
		C434.7,224.6,434.6,222.9,434.5,222.9"/>
	<path class="st2" d="M381.8,178.6c0,0.1,0.9,0.4,2.2,1.2c1.3,0.8,3,2.2,4.3,4.2c1.3,2,1.9,4.1,2.1,5.6c0.2,1.5,0.2,2.5,0.3,2.5
		c0.1,0,0.3-1,0.1-2.6c-0.1-1.6-0.7-3.8-2.1-5.9c-1.4-2.1-3.2-3.5-4.6-4.2C382.8,178.7,381.8,178.5,381.8,178.6"/>
	<path class="st2" d="M425.3,235c0.1,0,2.5-10.2,5.4-22.8c2.8-12.6,5-22.9,4.8-22.9c-0.1,0-2.5,10.2-5.4,22.8
		C427.3,224.7,425.1,235,425.3,235"/>
	<path class="st2" d="M354.5,221.8c0.1,0.1,1.1-1,2.4-2.2c1.3-1.2,2.4-2.2,2.3-2.3c-0.1-0.1-1.3,0.6-2.7,1.9
		C355.2,220.5,354.4,221.7,354.5,221.8"/>
	<path class="st2" d="M372.4,234.7c0,0,0.3-0.5,0.8-1.4c0.5-0.9,1.2-2.2,2-3.8c1.7-3.2,3.9-7.7,6.4-12.7c2.5-5,4.7-9.4,6.4-12.7
		c0.8-1.5,1.5-2.8,2-3.8c0.5-0.9,0.7-1.4,0.7-1.4c0,0-0.3,0.5-0.9,1.3c-0.5,0.9-1.2,2.1-2.1,3.7c-1.8,3.2-4.1,7.6-6.5,12.6
		c-2.4,4.9-4.6,9.4-6.2,12.7c-0.8,1.6-1.4,2.9-1.9,3.9C372.6,234.2,372.4,234.7,372.4,234.7"/>
	<path class="st2" d="M391.6,221.1c0,0,0,0.1,0,0.3c0,0.2,0.1,0.6,0.2,1c0.2,0.9,0.6,2.1,1.3,3.4c1.5,2.8,4.6,6,9,8
		c4.4,2,8.7,2.6,11.8,2.9c1.5,0.2,2.8,0.3,3.7,0.3c0.9,0.1,1.3,0.1,1.3,0c0,0-0.5-0.1-1.3-0.2c-1-0.1-2.2-0.3-3.6-0.5
		c-3-0.5-7.3-1.1-11.6-3c-4.3-1.9-7.4-5-8.9-7.7C391.9,223,391.8,221.1,391.6,221.1"/>
	<path class="st2" d="M402.4,247c0,0.1,6.6,0.7,14.8,1.3c8.2,0.6,14.8,0.9,14.8,0.8c0-0.1-6.6-0.7-14.8-1.3
		C409,247.2,402.4,246.8,402.4,247"/>
	<path class="st2" d="M393.8,243c-0.1,0-0.8,2.2-1.1,5c-0.3,2.8-0.1,5.1,0,5.1c0.2,0,0.2-2.3,0.5-5.1C393.6,245.3,394,243,393.8,243
		"/>
	<path class="st2" d="M390.4,239.8c-0.1,0-0.3,0.8-0.4,2c-0.2,1.3-0.3,3-0.1,5c0.1,2,0.5,3.7,0.8,4.9c0.3,1.2,0.7,2,0.7,1.9
		c0.2,0-0.8-3.1-1-6.9C390.1,242.9,390.6,239.8,390.4,239.8"/>
	<path class="st2" d="M392.6,172.7c0,0.1,4.8,0,10.7-0.3c5.9-0.3,10.6-0.7,10.6-0.9c0-0.1-4.8,0-10.7,0.3
		C397.4,172.2,392.6,172.6,392.6,172.7"/>
	<path class="st2" d="M393.9,172.4c0,0-0.2,0-0.7,0.1c-0.5,0.1-1.2,0.2-2,0.3c-0.9,0.2-1.9,0.3-3.1,0.6c-1.2,0.2-2.6,0.5-4,1.2
		c-1.4,0.7-2.8,1.6-4.2,2.8c-1.4,1.2-2.6,2.7-3.6,4.5c-1.8,3.7-3.7,7.9-5.8,12.2c-4.1,8.6-7.8,16.4-10.5,22.1
		c-1.3,2.8-2.4,5.1-3.2,6.7c-0.4,0.7-0.7,1.3-0.9,1.8c-0.2,0.4-0.3,0.6-0.3,0.6c0,0,0.1-0.2,0.2-0.7c0.2-0.5,0.5-1.1,0.8-1.8
		c0.8-1.6,1.8-3.9,3.1-6.8c2.6-5.7,6.3-13.5,10.3-22.2c2.1-4.3,3.9-8.4,5.8-12.2c1-1.8,2.3-3.4,3.8-4.6c1.4-1.2,2.9-2.1,4.3-2.8
		c1.4-0.7,2.9-1,4.1-1.2c1.2-0.2,2.3-0.4,3.2-0.5c0.9-0.1,1.5-0.2,2-0.2C393.6,172.3,393.9,172.3,393.9,172.4"/>
	<path class="st25" d="M378.2,225.8c0,0-0.1,0-0.2,0c-0.2,0-0.4-0.1-0.6-0.1c-0.5-0.1-1.3-0.2-2.3-0.4c-1.9-0.4-4.6-0.9-7.3-2.2
		c-2.7-1.3-4.8-3.1-6-4.7c-1.2-1.6-1.5-2.8-1.5-2.8c0,0,0.1,0.3,0.4,0.8c0.2,0.5,0.6,1.2,1.2,2c1.2,1.6,3.3,3.4,6,4.6
		c2.7,1.2,5.4,1.8,7.3,2.2c0.9,0.2,1.6,0.3,2.3,0.5c0.2,0,0.4,0.1,0.6,0.1C378.1,225.8,378.2,225.8,378.2,225.8"/>
	<path class="st25" d="M355.2,214c0,0-0.2,0.1-0.6,0.2c-0.4,0.1-0.9,0.3-1.6,0.5c-1.3,0.5-3,1.3-4.7,2.5c-1.7,1.3-2.9,2.7-3.7,3.9
		c-0.4,0.6-0.7,1-0.9,1.4c-0.2,0.3-0.3,0.5-0.3,0.5c0,0,0.1-0.2,0.2-0.5c0.2-0.4,0.4-0.8,0.8-1.4c0.8-1.2,2-2.6,3.7-3.9
		c1.7-1.3,3.5-2.1,4.8-2.5c0.7-0.2,1.2-0.4,1.6-0.4C355,214,355.2,214,355.2,214"/>
	<path class="st25" d="M388.9,201.1c0,0-0.1,0-0.2,0c-0.2,0-0.4,0-0.6,0c-0.5,0-1.2-0.1-2.1-0.3c-1.7-0.3-4.1-0.9-6.6-1.9
		c-2.5-1-4.6-2.2-6.1-3.2c-0.7-0.5-1.3-0.9-1.7-1.2c-0.2-0.1-0.3-0.2-0.4-0.4c-0.1-0.1-0.1-0.1-0.1-0.1c0,0,0.1,0,0.2,0.1
		c0.1,0.1,0.3,0.2,0.5,0.3c0.4,0.3,1,0.7,1.7,1.2c1.5,0.9,3.6,2.1,6.1,3.1c2.5,1,4.8,1.6,6.6,1.9c0.9,0.2,1.6,0.3,2.1,0.3
		c0.2,0,0.4,0.1,0.6,0.1C388.8,201.1,388.9,201.1,388.9,201.1"/>
	<path class="st25" d="M434.2,178.7c0,0-0.7-0.1-1.9-0.2c-1.2-0.1-3,0-5.1,0.3c-2.1,0.3-4.6,1-7.5,1.6c-2.8,0.6-6,0.9-9.3,0.7
		c-3.3-0.1-6.5-0.5-9.3-0.8c-2.9-0.3-5.4-0.4-7.6-0.4c-2.2,0-3.9,0.3-5.1,0.5c-0.5,0.1-1,0.2-1.4,0.3c-0.3,0.1-0.5,0.1-0.5,0.1
		s0.2-0.1,0.5-0.1c0.4-0.1,0.8-0.2,1.4-0.4c1.2-0.2,2.9-0.6,5.1-0.6c2.2-0.1,4.8,0,7.6,0.3c2.9,0.3,6,0.6,9.3,0.8
		c3.3,0.2,6.5-0.1,9.3-0.7c2.8-0.6,5.3-1.2,7.5-1.5c2.1-0.3,3.9-0.4,5.1-0.3c0.6,0,1.1,0.1,1.4,0.2
		C434,178.6,434.2,178.7,434.2,178.7"/>
	<path class="st25" d="M431.8,204.4c0,0-0.2,0-0.4,0c-0.3,0-0.8,0.1-1.3,0.1c-1.2,0.1-2.7,0.2-4.6,0.3c-3.9,0.2-9.3,0.7-15.3,0.8
		c-6,0.1-11.4-0.3-15.3-1c-3.9-0.7-6.2-1.5-6.2-1.5s0.2,0,0.4,0.1c0.3,0.1,0.7,0.2,1.2,0.3c1.1,0.3,2.6,0.6,4.5,1
		c3.9,0.7,9.3,1.1,15.3,0.9c6-0.1,11.4-0.5,15.3-0.7c1.9-0.1,3.5-0.2,4.6-0.3c0.5,0,0.9,0,1.3-0.1
		C431.6,204.4,431.8,204.4,431.8,204.4"/>
	<path class="st25" d="M450.6,206.8c0,0,0,0.1-0.1,0.2c-0.1,0.1-0.3,0.3-0.4,0.5c-0.4,0.4-0.9,1-1.6,1.6c-1.4,1.3-3.6,2.9-6.2,4.3
		c-2.6,1.4-5.2,2.2-7,2.7c-0.9,0.2-1.7,0.4-2.2,0.5c-0.2,0-0.4,0.1-0.6,0.1c-0.1,0-0.2,0-0.2,0c0,0,0.1,0,0.2-0.1
		c0.2,0,0.4-0.1,0.6-0.1c0.5-0.1,1.3-0.3,2.2-0.5c1.9-0.5,4.4-1.4,7-2.7c2.6-1.4,4.7-3,6.2-4.2c0.7-0.6,1.3-1.2,1.7-1.5
		c0.2-0.2,0.3-0.3,0.4-0.4C450.5,206.9,450.6,206.8,450.6,206.8"/>
	<path class="st25" d="M441.8,191.3c0,0-0.1,0.1-0.2,0.3c-0.2,0.2-0.4,0.4-0.7,0.6c-0.6,0.5-1.6,1.2-2.7,1.7c-1.1,0.5-2.3,0.9-3.1,1
		c-0.4,0.1-0.7,0.1-1,0.1c-0.2,0-0.4,0-0.4,0c0,0,0.5-0.1,1.3-0.3c0.8-0.2,1.9-0.5,3-1.1c1.1-0.5,2.1-1.1,2.7-1.6
		C441.4,191.7,441.7,191.3,441.8,191.3"/>
	<path class="st25" d="M457.7,223c0,0-0.6,1-2,2.3c-0.7,0.7-1.6,1.4-2.6,2.1c-1.1,0.7-2.3,1.4-3.6,1.9c-1.4,0.5-2.7,0.9-3.9,1.1
		c-1.2,0.2-2.4,0.3-3.3,0.3c-1.9,0-3.1-0.3-3.1-0.3c0,0,0.1,0,0.2,0c0.2,0,0.4,0,0.6,0.1c0.5,0.1,1.3,0.1,2.2,0.1
		c1.9,0,4.5-0.4,7.2-1.5c2.7-1.1,4.8-2.7,6.2-3.9c0.7-0.6,1.2-1.2,1.6-1.6c0.1-0.2,0.3-0.3,0.4-0.5C457.6,223,457.7,223,457.7,223"
		/>
	<path class="st9" d="M417.4,168.7c0,0-0.1,0-0.2,0c-0.2,0-0.4,0-0.7,0c-0.7,0-1.6-0.1-2.5-0.1c-2.1-0.1-5.1-0.1-8.4,0.1
		c-3.3,0.2-6.2,0.6-8.3,0.9c-1,0.2-1.8,0.3-2.5,0.4c-0.2,0-0.5,0.1-0.7,0.1c-0.2,0-0.2,0-0.2,0c0,0,0.1,0,0.2-0.1
		c0.2,0,0.4-0.1,0.7-0.2c0.6-0.1,1.4-0.3,2.5-0.5c2.1-0.4,5.1-0.8,8.4-1c3.3-0.2,6.3-0.2,8.4-0.1c1.1,0.1,1.9,0.1,2.5,0.2
		c0.2,0,0.5,0,0.7,0.1C417.3,168.7,417.4,168.7,417.4,168.7"/>
	<path class="st25" d="M391.7,225.6c0,0-0.1,0-0.4,0c-0.2,0-0.6-0.1-1-0.1c-0.9-0.2-2-0.5-3.2-1c-1.2-0.5-2.3-1.1-3-1.6
		c-0.4-0.3-0.6-0.5-0.8-0.6c-0.2-0.2-0.3-0.2-0.3-0.3c0,0,0.4,0.3,1.2,0.8c0.7,0.5,1.8,1.1,3,1.6c1.2,0.5,2.4,0.8,3.2,1
		C391.2,225.5,391.7,225.5,391.7,225.6"/>
	<path class="st25" d="M426.2,229.5c0,0-0.1,0-0.3,0c-0.3,0-0.5,0.1-0.9,0.1c-0.7,0.1-1.8,0.2-3.2,0.3c-2.7,0.2-6.4,0.5-10.4,0.6
		c-4.1,0.1-7.8,0-10.5-0.1c-1.3-0.1-2.4-0.1-3.2-0.2c-0.3,0-0.6,0-0.9-0.1c-0.2,0-0.3,0-0.3,0c0,0,0.1,0,0.3,0c0.3,0,0.5,0,0.9,0
		c0.9,0,1.9,0.1,3.2,0.1c2.7,0.1,6.4,0.1,10.5,0c4.1-0.1,7.8-0.3,10.4-0.5c1.2-0.1,2.3-0.2,3.2-0.2c0.3,0,0.6,0,0.9-0.1
		C426.1,229.5,426.2,229.5,426.2,229.5"/>
	<path class="st9" d="M389.6,248.7c0,0-0.2,0.1-0.5,0.1c-0.3,0.1-0.8,0.1-1.4,0.2c-1.2,0.2-2.8,0.3-4.6,0.3c-1.8,0-3.4-0.2-4.6-0.4
		c-0.6-0.1-1.1-0.2-1.4-0.2c-0.3-0.1-0.5-0.1-0.5-0.1c0,0,0.2,0,0.5,0.1c0.4,0.1,0.9,0.1,1.4,0.2c1.2,0.1,2.8,0.3,4.6,0.3
		c1.8,0,3.4-0.1,4.6-0.2c0.5-0.1,0.9-0.1,1.4-0.2C389.4,248.7,389.6,248.7,389.6,248.7"/>
	<path class="st25" d="M392.9,246.7c0,0-0.5-0.6-1.4-0.8c-0.8-0.3-1.6-0.1-1.6-0.2c0,0,0.7-0.3,1.6,0
		C392.5,246,392.9,246.7,392.9,246.7"/>
	<path class="st25" d="M425,249.1c0,0-0.1,0-0.3,0.1c-0.3,0.1-0.6,0.1-0.9,0.2c-0.8,0.2-2,0.4-3.4,0.6c-2.9,0.4-6.9,0.9-11.4,1.1
		c-4.5,0.2-8.5,0.1-11.5-0.1c-1.5-0.1-2.6-0.2-3.5-0.3c-0.4,0-0.7-0.1-0.9-0.1c-0.2,0-0.3,0-0.3,0c0,0,0.1,0,0.3,0
		c0.3,0,0.6,0,0.9,0.1c0.8,0.1,2,0.1,3.5,0.2c2.9,0.1,7,0.2,11.4,0c4.5-0.2,8.5-0.6,11.4-1c1.5-0.2,2.6-0.4,3.4-0.5
		c0.4-0.1,0.7-0.1,0.9-0.1C424.9,249.1,425,249.1,425,249.1"/>
	<rect x="0.5" y="-0.9" class="st8" width="500" height="500"/>
	<rect x="0.5" y="-0.9" class="st8" width="500" height="500"/>
</g>
</svg>
