<?xml version="1.0" encoding="utf-8"?>
<!-- Generator: Adobe Illustrator 21.0.0, SVG Export Plug-In . SVG Version: 6.00 Build 0)  -->
<svg version="1.1" id="Calque_1" xmlns="http://www.w3.org/2000/svg" xmlns:xlink="http://www.w3.org/1999/xlink" x="0px" y="0px"
	 viewBox="0 0 500 500" style="enable-background:new 0 0 500 500;" xml:space="preserve">
<style type="text/css">
	.st0{fill:#FCC103;}
	.st1{fill:url(#SVGID_1_);}
	.st2{fill:url(#SVGID_2_);}
	.st3{fill:#241B46;}
	.st4{fill:#FBFBFB;}
	.st5{fill:#1A2E35;}
	.st6{fill:#E1E1E0;}
	.st7{fill:#FFFFFF;}
	.st8{fill:#342565;}
	.st9{fill:url(#SVGID_3_);}
	.st10{fill:url(#SVGID_4_);}
	.st11{fill:url(#SVGID_5_);}
	.st12{fill:url(#SVGID_6_);}
	.st13{fill:url(#SVGID_7_);}
	.st14{fill:#F0C386;}
	.st15{fill:#D4A26F;}
	.st16{fill:#BF654E;}
	.st17{fill:url(#SVGID_8_);}
	.st18{fill:url(#SVGID_9_);}
	.st19{fill:#385A65;}
	.st20{opacity:0.2;}
	.st21{fill:none;stroke:#44555B;stroke-width:5.000000e-02;stroke-miterlimit:10;}
	.st22{fill:none;stroke:#FFFFFF;stroke-width:5.000000e-02;stroke-miterlimit:10;}
	.st23{fill:url(#SVGID_10_);}
	.st24{fill:url(#SVGID_11_);}
	.st25{fill:url(#SVGID_12_);}
	.st26{font-family:'MyriadPro-Regular';}
	.st27{font-size:11px;}
	.st28{font-family:'FuturaLight';}
	.st29{font-size:12px;}
</style>
<g>
	<g>
		<g>
			<path class="st0" d="M205.9,465.2c0,0-11.8,4.8-10.6,10.3c1.2,5.5,7.3,8.1,13.5,7.5c6.2-0.6,17.5-5.7,17.5-5.7l5.8-3.1
				c0,0-7.1-0.1-10.7-1.4C217.3,471.3,205.9,465.2,205.9,465.2z"/>
		</g>
	</g>
	<g>
		<g>
			<linearGradient id="SVGID_1_" gradientUnits="userSpaceOnUse" x1="218.8926" y1="470.3481" x2="351.1133" y2="470.3481">
				<stop  offset="0" style="stop-color:#714090"/>
				<stop  offset="1" style="stop-color:#45277C"/>
			</linearGradient>
			<path class="st1" d="M220.5,474.8l42,6.6l88.7-8.8l-48.6-13.3l-82,11.8c-0.9,0.1-1.6,0.9-1.6,1.9l0,0
				C218.9,473.9,219.6,474.7,220.5,474.8z"/>
		</g>
	</g>
	<g>
		<g>
			<g>
				<linearGradient id="SVGID_2_" gradientUnits="userSpaceOnUse" x1="73.8917" y1="168.4844" x2="462.2256" y2="168.4844">
					<stop  offset="0" style="stop-color:#714090"/>
					<stop  offset="1" style="stop-color:#45277C"/>
				</linearGradient>
				<rect x="73.9" y="39.3" class="st2" width="388.3" height="258.3"/>
			</g>
		</g>
		<g>
			<g>
				<g>
					<rect x="62.1" y="50.9" class="st3" width="388.3" height="258.3"/>
				</g>
			</g>
		</g>
		<g>
			<g>
				<g>
					<rect x="48.9" y="64.3" class="st4" width="388.3" height="256.4"/>
				</g>
			</g>
			<g>
				<g>
					<g>
						<path class="st5" d="M437.2,320.7c0-1.7-0.1-100-0.2-256.4l0.2,0.2c-106.7,0-241.8,0-388.3,0.1h0l0.3-0.3
							c0,91.2,0,178.1,0,256.4l-0.2-0.2C277.5,320.6,435,320.7,437.2,320.7c-2.1,0-159.7,0.1-388.3,0.2h-0.2v-0.2
							c0-78.4,0-165.2,0-256.4V64h0.3h0c146.5,0,281.6,0,388.3,0.1h0.2v0.2C437.3,220.7,437.2,319,437.2,320.7z"/>
					</g>
				</g>
			</g>
		</g>
		<g>
			<g>
				<g>
					<path class="st6" d="M363.2,303.7h-40.6c-1,0-1.8-0.8-1.8-1.8v-20.9c0-1,0.8-1.8,1.8-1.8h40.6c1,0,1.8,0.8,1.8,1.8V302
						C365,302.9,364.2,303.7,363.2,303.7z"/>
				</g>
			</g>
			<g>
				<g>
					<g>
						<path class="st7" d="M340.4,292.5c0,1.1-0.8,1.8-2.5,1.8h-3.1v-6.7h2.9c1.5,0,2.3,0.6,2.3,1.7c0,0.8-0.4,1.3-1,1.5
							C339.9,291.1,340.4,291.6,340.4,292.5z M335.6,288.2v2.4h2.1c1.1,0,1.7-0.4,1.7-1.2s-0.6-1.2-1.7-1.2H335.6z M339.7,292.5
							c0-0.9-0.6-1.2-1.8-1.2h-2.4v2.5h2.4C339.1,293.7,339.7,293.3,339.7,292.5z"/>
					</g>
					<g>
						<path class="st7" d="M345.7,291.2v3.1H345v-0.8c-0.3,0.5-0.9,0.8-1.7,0.8c-1.1,0-1.8-0.6-1.8-1.5c0-0.8,0.5-1.4,1.9-1.4h1.6
							v-0.3c0-0.9-0.5-1.3-1.4-1.3c-0.6,0-1.3,0.2-1.7,0.6l-0.3-0.5c0.5-0.4,1.2-0.7,2-0.7C345,289.3,345.7,289.9,345.7,291.2z
							 M345,292.8V292h-1.6c-1,0-1.3,0.4-1.3,0.9c0,0.6,0.5,0.9,1.3,0.9C344.2,293.8,344.7,293.5,345,292.8z"/>
					</g>
					<g>
						<path class="st7" d="M347,291.8c0-1.5,1.1-2.5,2.6-2.5c0.8,0,1.6,0.3,2,1l-0.5,0.3c-0.3-0.5-0.9-0.7-1.5-0.7
							c-1.1,0-1.9,0.8-1.9,2c0,1.2,0.8,2,1.9,2c0.6,0,1.1-0.2,1.5-0.7l0.5,0.3c-0.4,0.6-1.1,1-2,1C348.1,294.4,347,293.3,347,291.8z
							"/>
					</g>
					<g>
						<path class="st7" d="M354.7,291.8l-1.2,1.1v1.4h-0.7v-7.1h0.7v4.8l3-2.7h0.8l-2.1,2l2.3,3h-0.8L354.7,291.8z"/>
					</g>
				</g>
				<g>
					<g>
						<g>
							<g>
								<path class="st7" d="M329.5,289.4c0.1,0.1-0.7,0.9-1.8,1.9l0,0l0-0.2c1.1,1,1.9,1.8,1.8,1.8c-0.1,0.1-1-0.7-2-1.6l-0.1-0.1
									l0.1-0.1l0,0C328.5,290.1,329.4,289.4,329.5,289.4z"/>
							</g>
						</g>
					</g>
					<g>
						<g>
							<g>
								<ellipse class="st7" cx="330" cy="291.2" rx="2.4" ry="0.2"/>
							</g>
						</g>
					</g>
				</g>
			</g>
		</g>
		<g>
			<g>
				<g>
					<path class="st0" d="M415.1,303.7h-40.6c-1,0-1.8-0.8-1.8-1.8v-20.9c0-1,0.8-1.8,1.8-1.8h40.6c1,0,1.8,0.8,1.8,1.8V302
						C416.8,302.9,416,303.7,415.1,303.7z"/>
				</g>
			</g>
		</g>
		<g>
			<g>
				<g>
					<path class="st7" d="M386.5,287.6v6.7H386l-4.3-5.4v5.4H381v-6.7h0.6l4.3,5.4v-5.4H386.5z"/>
				</g>
				<g>
					<path class="st7" d="M392.9,292h-4.2c0.1,1,0.9,1.7,2,1.7c0.6,0,1.2-0.2,1.5-0.7l0.4,0.4c-0.4,0.5-1.1,0.8-1.9,0.8
						c-1.6,0-2.6-1.1-2.6-2.6c0-1.5,1-2.5,2.4-2.5c1.4,0,2.4,1,2.4,2.5C392.9,291.9,392.9,291.9,392.9,292z M388.7,291.5h3.6
						c-0.1-1-0.8-1.7-1.8-1.7C389.5,289.8,388.8,290.5,388.7,291.5z"/>
				</g>
				<g>
					<path class="st7" d="M397.4,294.3l-1.6-2.1l-1.6,2.1h-0.8l2-2.6l-1.9-2.4h0.8l1.5,2l1.5-2h0.7l-1.9,2.4l2,2.6H397.4z"/>
				</g>
				<g>
					<path class="st7" d="M401.9,294c-0.3,0.2-0.7,0.4-1.1,0.4c-0.9,0-1.5-0.5-1.5-1.5v-3h-0.9v-0.6h0.9v-1.1h0.7v1.1h1.5v0.6H400v3
						c0,0.6,0.3,0.9,0.9,0.9c0.3,0,0.6-0.1,0.7-0.3L401.9,294z"/>
				</g>
			</g>
			<g>
				<g>
					<g>
						<g>
							<path class="st7" d="M406.5,292.9c-0.1-0.1,0.7-0.9,1.8-1.9l0,0l0,0.2c-1.1-1-1.9-1.8-1.8-1.8c0.1-0.1,1,0.7,2,1.6l0.1,0.1
								l-0.1,0.1l0,0C407.4,292.3,406.5,293,406.5,292.9z"/>
						</g>
					</g>
				</g>
				<g>
					<g>
						<g>
							<ellipse class="st7" cx="406" cy="291.2" rx="2.4" ry="0.2"/>
						</g>
					</g>
				</g>
			</g>
		</g>
		<g>
			<g>
				<circle class="st0" cx="95.4" cy="137.7" r="9.8"/>
			</g>
		</g>
		<g>
			<g>
				<g>
					<path class="st5" d="M296,138.3c-0.1,0,0-0.9-0.4-2.4c-0.4-1.5-1.4-3.6-3.6-5.3c-1.1-0.8-2.5-1.5-4.1-1.8
						c-1.6-0.3-3.4-0.2-5,0.4c-0.9,0.3-1.7,0.7-2.4,1.3c-0.8,0.6-1.5,1.2-2,2c-1.2,1.6-1.8,3.6-1.9,5.7c0,2.1,0.7,4.1,1.9,5.7
						c0.6,0.8,1.3,1.5,2,2c0.8,0.6,1.6,1,2.4,1.3c1.7,0.6,3.5,0.7,5,0.4c1.6-0.3,3-1,4.1-1.8c2.2-1.7,3.2-3.8,3.6-5.3
						C296,139.2,296,138.3,296,138.3c0,0,0.1,0.9-0.2,2.4c-0.3,1.5-1.3,3.8-3.6,5.5c-1.1,0.9-2.6,1.6-4.2,1.9
						c-1.6,0.3-3.5,0.3-5.3-0.4c-0.9-0.3-1.8-0.8-2.6-1.4c-0.8-0.6-1.5-1.3-2.1-2.1c-1.2-1.7-2-3.8-2-6c0-2.2,0.7-4.3,2-6
						c0.6-0.8,1.3-1.6,2.1-2.1c0.8-0.6,1.7-1.1,2.6-1.4c1.8-0.7,3.6-0.7,5.3-0.4c1.7,0.3,3.1,1,4.2,1.9c2.3,1.8,3.2,4,3.6,5.5
						C296.2,137.4,296,138.3,296,138.3z"/>
				</g>
			</g>
		</g>
		<g>
			<g>
				<g>
					<path class="st5" d="M391.4,137.2c-0.1,0,0-0.9-0.4-2.4c-0.4-1.5-1.4-3.6-3.6-5.3c-1.1-0.8-2.5-1.5-4.1-1.8
						c-1.6-0.3-3.4-0.2-5,0.4c-0.9,0.3-1.7,0.7-2.4,1.3c-0.8,0.6-1.5,1.2-2,2c-1.2,1.6-1.8,3.6-1.9,5.7c0,2.1,0.7,4.1,1.9,5.7
						c0.6,0.8,1.3,1.5,2,2c0.8,0.6,1.6,1,2.4,1.3c1.7,0.6,3.5,0.7,5,0.4c1.6-0.3,3-1,4.1-1.8c2.2-1.7,3.2-3.8,3.6-5.3
						C391.3,138,391.3,137.2,391.4,137.2c0,0,0.1,0.9-0.2,2.4c-0.3,1.5-1.3,3.8-3.6,5.5c-1.1,0.9-2.6,1.6-4.2,1.9
						c-1.6,0.3-3.5,0.3-5.3-0.4c-0.9-0.3-1.8-0.8-2.6-1.4c-0.8-0.6-1.5-1.3-2.1-2.1c-1.2-1.6-2-3.8-2-6c0-2.2,0.7-4.3,2-6
						c0.6-0.8,1.3-1.6,2.1-2.1c0.8-0.6,1.7-1.1,2.6-1.4c1.8-0.7,3.6-0.7,5.3-0.4c1.7,0.3,3.1,1,4.2,1.9c2.3,1.8,3.2,4,3.6,5.5
						C391.5,136.3,391.4,137.2,391.4,137.2z"/>
				</g>
			</g>
		</g>
		<g>
			<g>
				<g>
					<path class="st7" d="M99.5,135.1c0.1,0.1-1.6,2.1-3.8,4.4c-0.4,0.4-0.7,0.7-1,1.1l-0.2,0.2l-0.2-0.2c-1.8-1.7-3.1-3.1-3-3.2
						c0.1-0.1,1.5,1.1,3.3,2.8l-0.4,0c0.3-0.4,0.7-0.7,1-1.1C97.5,136.8,99.4,135,99.5,135.1z"/>
				</g>
			</g>
		</g>
		<g>
			<g>
				<rect x="107.1" y="135.7" class="st0" width="71.2" height="4"/>
			</g>
		</g>
		<g>
			<g>
				<circle class="st0" cx="190.5" cy="137.7" r="9.8"/>
			</g>
		</g>
		<g>
			<g>
				<g>
					<path class="st7" d="M194.6,135.1c0.1,0.1-1.6,2.1-3.8,4.4c-0.4,0.4-0.7,0.7-1,1.1l-0.2,0.2l-0.2-0.2c-1.8-1.7-3.1-3.1-3-3.2
						c0.1-0.1,1.5,1.1,3.3,2.8l-0.4,0c0.3-0.4,0.7-0.7,1-1.1C192.6,136.8,194.5,135,194.6,135.1z"/>
				</g>
			</g>
		</g>
		<g>
			<g>
				<rect x="202.2" y="135.7" class="st0" width="71.2" height="4"/>
			</g>
		</g>
		<g>
			<g>
				<g>
					<ellipse class="st5" cx="334.4" cy="137.2" rx="35.6" ry="0.3"/>
				</g>
			</g>
		</g>
		<g>
			<g>
				<g>
					<path class="st4" d="M48.9,106c128.2,0,260.1,0,388.3,0"/>
				</g>
			</g>
		</g>
		<g>
			<g>
				<g>
					<path class="st5" d="M387.6,193.5c0,0.1-66.3,0.3-148.1,0.3c-81.8,0-148.1-0.1-148.1-0.3c0-0.1,66.3-0.3,148.1-0.3
						C321.2,193.2,387.6,193.3,387.6,193.5z"/>
				</g>
			</g>
		</g>
		<g>
			<g>
				<g>
					<path class="st5" d="M223.4,205.2c0,0-0.1,0-0.3,0c-0.3,0-0.6,0-1,0c-0.9,0-2.2,0-3.8,0c-3.4,0-8.2,0-14.2,0.1
						c-12,0-28.5,0-46.7,0.1c-18.2,0-34.7-0.1-46.7-0.1c-6,0-10.8-0.1-14.2-0.1c-1.6,0-2.9,0-3.8,0c-0.4,0-0.7,0-1,0
						c-0.2,0-0.3,0-0.3,0c0,0,0.1,0,0.3,0c0.3,0,0.6,0,1,0c0.9,0,2.2,0,3.8,0c3.4,0,8.2,0,14.2-0.1c12,0,28.5,0,46.7-0.1
						c18.2,0,34.7,0.1,46.7,0.1c6,0,10.8,0.1,14.2,0.1c1.6,0,2.9,0,3.8,0c0.4,0,0.7,0,1,0C223.3,205.1,223.4,205.2,223.4,205.2z"/>
				</g>
			</g>
		</g>
		<g>
			<g>
				<g>
					<g>
						<path class="st5" d="M357.3,222.2c0,0.1-54.2,0.3-121,0.3c-66.8,0-121-0.1-121-0.3c0-0.1,54.2-0.3,121-0.3
							C303.2,221.9,357.3,222,357.3,222.2z"/>
					</g>
				</g>
			</g>
			<g>
				<g>
					<path class="st6" d="M100.2,226c-2.9,0-5.3-2.4-5.3-5.3c0-2.9,2.4-5.3,5.3-5.3c2.9,0,5.3,2.4,5.3,5.3
						C105.5,223.7,103.1,226,100.2,226z M100.2,216.5c-2.4,0-4.3,1.9-4.3,4.3c0,2.4,1.9,4.3,4.3,4.3c2.4,0,4.3-1.9,4.3-4.3
						C104.5,218.4,102.6,216.5,100.2,216.5z"/>
				</g>
			</g>
		</g>
		<g>
			<g>
				<g>
					<g>
						<path class="st8" d="M308.3,235.1c0,0-0.2,0-0.5,0c-0.4,0-0.8,0-1.5,0c-1.3,0-3.2,0-5.6,0c-4.9,0-12,0-20.7,0.1
							c-17.5,0-41.6,0-68.2,0.1c-26.6,0-50.7-0.1-68.2-0.1c-8.7,0-15.8-0.1-20.7-0.1c-2.4,0-4.3,0-5.6,0c-0.6,0-1.1,0-1.5,0
							c-0.3,0-0.5,0-0.5,0s0.2,0,0.5,0c0.4,0,0.8,0,1.5,0c1.3,0,3.2,0,5.6,0c4.9,0,12,0,20.7-0.1c17.5,0,41.6,0,68.2-0.1
							c26.6,0,50.7,0.1,68.2,0.1c8.7,0,15.8,0.1,20.7,0.1c2.4,0,4.3,0,5.6,0c0.6,0,1.1,0,1.5,0C308.1,235.1,308.3,235.1,308.3,235.1
							z"/>
					</g>
				</g>
			</g>
			<g>
				<g>
					<path class="st8" d="M100.2,240.4c-2.9,0-5.3-2.4-5.3-5.3c0-2.9,2.4-5.3,5.3-5.3c2.9,0,5.3,2.4,5.3,5.3
						C105.5,238,103.1,240.4,100.2,240.4z M100.2,230.8c-2.4,0-4.3,1.9-4.3,4.3c0,2.4,1.9,4.3,4.3,4.3c2.4,0,4.3-1.9,4.3-4.3
						C104.5,232.8,102.6,230.8,100.2,230.8z"/>
				</g>
			</g>
			<g>
				<g>
					<circle class="st8" cx="100.2" cy="235.1" r="2.3"/>
				</g>
			</g>
		</g>
		<g>
			<g>
				<g>
					<g>
						<path class="st5" d="M357.3,250.9c0,0.1-54.2,0.3-121,0.3c-66.8,0-121-0.1-121-0.3s54.2-0.3,121-0.3
							C303.2,250.7,357.3,250.8,357.3,250.9z"/>
					</g>
				</g>
			</g>
			<g>
				<g>
					<path class="st6" d="M100.2,254.8c-2.9,0-5.3-2.4-5.3-5.3c0-2.9,2.4-5.3,5.3-5.3c2.9,0,5.3,2.4,5.3,5.3
						C105.5,252.4,103.1,254.8,100.2,254.8z M100.2,245.2c-2.4,0-4.3,1.9-4.3,4.3c0,2.4,1.9,4.3,4.3,4.3c2.4,0,4.3-1.9,4.3-4.3
						C104.5,247.1,102.6,245.2,100.2,245.2z"/>
				</g>
			</g>
		</g>
		<g>
			<g>
				<g>
					<linearGradient id="SVGID_3_" gradientUnits="userSpaceOnUse" x1="148.4089" y1="292.053" x2="200.7325" y2="292.053">
						<stop  offset="0" style="stop-color:#714090"/>
						<stop  offset="1" style="stop-color:#45277C"/>
					</linearGradient>
					<path class="st9" d="M188.2,252.9c-4.8,2.1-5.9,6.1-6,8.4c-0.1,2.3,0,5-1.8,6.4c-1.7,1.3-4.2,0.7-6.3,1.5
						c-2.6,1-3.9,3.9-4.5,6.6c-0.6,2.7-0.7,5.6-2.3,7.9c-1.5,2.2-3.9,3.6-6.2,5c-2.2,1.5-4.4,3.4-4.9,6.1c-0.6,3.8,2.7,7.6,1.4,11.2
						c-0.9,2.3-3.4,3.5-5.2,5.1c-2.4,2.1-3.9,5.2-4.1,8.4c-0.2,3.2,1,6.4,3.2,8.8c1.7,1.9,4.3,3.2,6.8,2.8c2.5-0.4,4.4-2.2,6.3-3.8
						c6.8-6.1,14.5-11.2,22.7-15.2c2.1-1,4.4-2.2,5.5-4.3c0.6-1.1,0.7-2.3,0.9-3.5c2.3-15.7,4.6-31.5,6.9-47.2"/>
				</g>
			</g>
			<g>
				<g>
					<linearGradient id="SVGID_4_" gradientUnits="userSpaceOnUse" x1="206.5248" y1="287.2145" x2="261.9372" y2="287.2145">
						<stop  offset="0" style="stop-color:#714090"/>
						<stop  offset="1" style="stop-color:#45277C"/>
					</linearGradient>
					<path class="st10" d="M211.5,237.9c-0.9-3.5,1.1-7.2,4.1-9.2c3-2,6.8-2.4,10.3-2.3c3.7,0.1,7.8,1,9.8,4.1
						c1.3,1.9,1.5,4.4,2.6,6.4c3.2,5.7,12.1,5.8,15.6,11.3c3.3,5.3-0.1,12.2,0.7,18.3c0.5,4.1,2.9,7.7,4.8,11.5
						c1.9,3.7,3.2,8.1,1.7,12c-1.7,4.1-6.5,6.8-7,11.2c-0.6,5.5,5.9,10.5,3.9,15.7c-1.5,3.8-7,5.3-7.6,9.3c-0.3,2.2,1,4.2,1.6,6.3
						c1.5,5.4-2,11.2-7,13.7c-5,2.5-11,2.1-16.2,0.3c-8.4-2.9-15.5-9.3-19.3-17.3c-3.8-8-4.1-17.6-1-25.9"/>
				</g>
			</g>
			<g>
				<g>
					<g>
						<linearGradient id="SVGID_5_" gradientUnits="userSpaceOnUse" x1="151.6711" y1="265.0827" x2="211.2168" y2="265.0827">
							<stop  offset="0" style="stop-color:#714090"/>
							<stop  offset="1" style="stop-color:#45277C"/>
						</linearGradient>
						<path class="st11" d="M155.3,291.3c0,0-0.1-0.4-0.8-0.7c-0.3-0.1-0.8-0.2-1.3-0.1c-0.5,0.1-1,0.5-1.2,1.1
							c-0.2,0.6-0.1,1.4,0.3,2.1c0.4,0.7,1.3,1.1,2.2,1.1c0.9,0,1.9-0.4,2.6-1.2c0.7-0.8,1.3-1.8,1.6-2.9c0.7-2.3,0.5-5,0.8-7.9
							c0.2-1.4,0.5-2.9,1.2-4.3c0.4-0.7,0.8-1.4,1.4-1.9c0.6-0.6,1.3-1,2.1-1.3c1.6-0.5,3.3-0.6,4.9-0.8c1.6-0.2,3.4-0.7,4.4-2
							c1.1-1.3,1.2-3.2,1-4.9c-0.1-1.8-0.5-3.6-0.4-5.5c0.2-1.9,0.8-3.7,1.8-5.3c1-1.5,2.5-2.8,4.2-3.4c1.7-0.6,3.6-0.4,5.2-0.2
							c1.6,0.1,3.4,0.2,4.6-0.8c1.2-0.9,1.5-2.6,1.6-4c0.1-1.5,0.1-3,0.4-4.4c0.7-2.8,2.5-5.1,4.5-6.6c2-1.5,4.3-2.1,6.2-2.1
							c2,0,3.6,0.4,4.9,0.9c1.3,0.5,2.1,1.2,2.7,1.6c0.6,0.5,0.8,0.8,0.8,0.8c0,0-0.3-0.2-0.9-0.7c-0.6-0.4-1.4-1-2.7-1.5
							c-1.2-0.5-2.9-0.9-4.8-0.8c-1.9,0.1-4.1,0.7-6,2.1c-1.9,1.4-3.6,3.6-4.3,6.4c-0.4,1.4-0.3,2.8-0.4,4.4
							c-0.1,0.8-0.1,1.6-0.4,2.3c-0.2,0.8-0.7,1.5-1.4,2c-0.7,0.5-1.5,0.8-2.4,0.9c-0.8,0.1-1.7,0.1-2.5,0c-1.7-0.1-3.4-0.3-5,0.2
							c-1.6,0.6-3,1.7-4,3.2c-1,1.5-1.6,3.2-1.8,5c-0.1,1.8,0.2,3.6,0.4,5.4c0.1,0.9,0.1,1.8-0.1,2.7c-0.1,0.9-0.5,1.8-1.1,2.5
							c-0.6,0.7-1.4,1.3-2.2,1.6c-0.8,0.3-1.7,0.5-2.5,0.6c-1.7,0.2-3.3,0.3-4.8,0.8c-0.7,0.3-1.4,0.6-2,1.1c-0.6,0.5-1,1.1-1.3,1.8
							c-0.7,1.3-1,2.8-1.2,4.2c-0.3,2.8-0.1,5.5-0.8,7.9c-0.4,1.2-0.9,2.3-1.7,3.1c-0.8,0.8-1.9,1.3-2.9,1.2c-1,0-2-0.5-2.4-1.2
							c-0.5-0.7-0.6-1.6-0.3-2.3c0.2-0.7,0.9-1.1,1.4-1.2c0.5-0.1,1,0,1.3,0.2C155.2,290.9,155.3,291.4,155.3,291.3z"/>
					</g>
				</g>
			</g>
			<g>
				<g>
					<g>
						<linearGradient id="SVGID_6_" gradientUnits="userSpaceOnUse" x1="231.875" y1="268.8602" x2="266.1477" y2="268.8602">
							<stop  offset="0" style="stop-color:#714090"/>
							<stop  offset="1" style="stop-color:#45277C"/>
						</linearGradient>
						<path class="st12" d="M264.5,303.7c0,0,0,0.1,0.1,0.3c0.1,0.2,0.1,0.4,0.1,0.8c0,0.7-0.5,1.9-1.7,2.6
							c-0.6,0.4-1.4,0.6-2.3,0.5c-0.8-0.2-1.7-0.7-2.3-1.4c-0.6-0.8-1.1-1.8-1.2-2.9c-0.1-1.1,0.1-2.3,0.6-3.5
							c0.9-2.3,2.9-4.3,4.7-6.5c0.9-1.1,1.7-2.3,2.3-3.7c0.5-1.4,0.8-2.9,0.8-4.5c0-1.6-0.4-3.2-1.1-4.7c-0.7-1.5-1.7-2.8-3-4
							c-1.3-1.2-2.7-2.3-4-3.6c-1.3-1.3-2.3-3-2.5-5c-0.2-1.9,0.3-3.8,0.9-5.5c0.5-1.7,1-3.4,1.2-5.2c0.3-3.4-0.6-6.9-2.7-9.3
							c-1-1.2-2.3-2.1-3.7-2.7c-1.4-0.6-2.8-0.7-4.3-0.7c-1.4,0-2.9,0-4.2-0.5c-1.3-0.6-2.2-1.7-2.7-2.8c-1-2.3-1-4.6-1.5-6.4
							c-0.2-0.9-0.5-1.8-0.9-2.5c-0.4-0.7-0.9-1.2-1.5-1.6c-1.1-0.8-2.2-0.9-2.9-0.8c-0.7,0.1-1,0.4-1,0.4c0,0,0.3-0.3,1-0.5
							c0.7-0.2,1.9-0.1,3,0.7c0.6,0.4,1.2,0.9,1.6,1.7c0.4,0.7,0.7,1.6,1,2.6c0.5,1.9,0.5,4.2,1.5,6.4c0.5,1.1,1.3,2.1,2.5,2.6
							c1.2,0.5,2.6,0.5,4,0.5c1.4,0,3,0,4.5,0.7c1.5,0.6,2.8,1.6,3.9,2.8c2.2,2.5,3.1,6.1,2.8,9.7c-0.1,1.8-0.7,3.5-1.2,5.3
							c-0.5,1.7-1,3.5-0.8,5.3c0.2,1.8,1.2,3.4,2.4,4.7c1.2,1.3,2.7,2.4,3.9,3.6c1.3,1.2,2.4,2.6,3.1,4.2c0.7,1.6,1.1,3.3,1.1,4.9
							c0,1.6-0.3,3.3-0.8,4.7c-0.6,1.5-1.4,2.7-2.4,3.8c-1.9,2.2-3.8,4.1-4.7,6.4c-0.5,1.1-0.7,2.2-0.6,3.3c0.1,1.1,0.5,2,1.1,2.8
							c0.6,0.7,1.4,1.2,2.2,1.4c0.8,0.2,1.5-0.1,2.1-0.4c1.2-0.7,1.6-1.7,1.7-2.4C264.7,304.1,264.5,303.7,264.5,303.7z"/>
					</g>
				</g>
			</g>
		</g>
		<g>
			<g>
				<linearGradient id="SVGID_7_" gradientUnits="userSpaceOnUse" x1="155.421" y1="294.1172" x2="203.9874" y2="294.1172">
					<stop  offset="0" style="stop-color:#714090"/>
					<stop  offset="1" style="stop-color:#45277C"/>
				</linearGradient>
				<path class="st13" d="M186.7,254.1c-1.9,0.5-2.9,2.7-2.9,4.6c0,2,0.8,3.8,1.3,5.7c0.5,1.9,0.8,4-0.2,5.8
					c-1.9,3.5-7.2,3.3-9.8,6.3c-3.3,3.8-0.2,10.1-2.6,14.5c-2.1,4-8.2,5.3-9.4,9.7c-0.8,2.8,0.8,5.9,0,8.7c-0.9,3.2-4.4,4.8-6.3,7.5
					c-1.9,2.7-1.9,6.5-0.6,9.6c1.1,2.7,3.2,5,5.4,6.9c0.3,0.2,0.6,0.5,0.9,0.7l34.4-8l6.9-63.7L186.7,254.1z"/>
			</g>
		</g>
		<g>
			<g>
				<g>
					<g>
						<g>
							<g>
								<g>
									<g>
										<g>
											<g>
												<g>
													<g>
														<g>
															<path class="st14" d="M205.6,242.3c-2.6-0.3-5,1.5-5.5,4l0,0l-11.4,66.9c-1.6,7.9,8.9,14.7,17.3,16.3l0,0
																c8.5,1.6,9.7-2.5,11.4-9.9c2.9-12.4,3.9-17.1,3.8-17c0,0,11.1,0.5,16.3-13c2.6-6.7,4.7-18.2,6.1-27.6
																c1.3-8.5-2.1-19.9-10.6-20.8L205.6,242.3z"/>
														</g>
													</g>
												</g>
											</g>
										</g>
									</g>
								</g>
							</g>
						</g>
					</g>
				</g>
			</g>
		</g>
		<g>
			<g>
				<g>
					<g>
						<g>
							<g>
								<g>
									<g>
										<g>
											<g>
												<g>
													<g>
														<g>
															<path class="st5" d="M238.6,270.5c-0.2,1-1.1,1.6-2.1,1.4c-1-0.2-1.7-1.1-1.5-2c0.2-1,1.1-1.6,2.1-1.4
																C238.1,268.6,238.8,269.5,238.6,270.5z"/>
														</g>
													</g>
												</g>
											</g>
										</g>
									</g>
								</g>
							</g>
						</g>
					</g>
				</g>
			</g>
			<g>
				<g>
					<g>
						<g>
							<g>
								<g>
									<g>
										<g>
											<g>
												<g>
													<g>
														<g>
															<g>
																<path class="st5" d="M239.9,268.7c-0.3,0.2-1.4-1.1-3.3-1.5c-1.9-0.4-3.5,0.3-3.7,0c-0.1-0.1,0.2-0.5,0.9-0.8
																	c0.7-0.3,1.8-0.5,3-0.3c1.2,0.3,2.1,0.9,2.6,1.5C239.9,268.1,240.1,268.6,239.9,268.7z"/>
															</g>
														</g>
													</g>
												</g>
											</g>
										</g>
									</g>
								</g>
							</g>
						</g>
					</g>
				</g>
			</g>
		</g>
		<g>
			<g>
				<g>
					<g>
						<g>
							<g>
								<g>
									<g>
										<g>
											<g>
												<g>
													<g>
														<g>
															<path class="st5" d="M219.5,266.4c-0.2,1-1.1,1.6-2.1,1.4c-1-0.2-1.7-1.1-1.5-2c0.2-1,1.1-1.6,2.1-1.4
																C218.9,264.5,219.6,265.4,219.5,266.4z"/>
														</g>
													</g>
												</g>
											</g>
										</g>
									</g>
								</g>
							</g>
						</g>
					</g>
				</g>
			</g>
			<g>
				<g>
					<g>
						<g>
							<g>
								<g>
									<g>
										<g>
											<g>
												<g>
													<g>
														<g>
															<g>
																<path class="st5" d="M220.9,264.4c-0.3,0.2-1.4-1.1-3.3-1.5c-1.9-0.4-3.5,0.3-3.7,0c-0.1-0.1,0.2-0.5,0.9-0.8
																	c0.7-0.3,1.8-0.5,3-0.3c1.2,0.3,2.1,0.9,2.6,1.5C220.9,263.8,221,264.3,220.9,264.4z"/>
															</g>
														</g>
													</g>
												</g>
											</g>
										</g>
									</g>
								</g>
							</g>
						</g>
					</g>
				</g>
			</g>
		</g>
		<g>
			<g>
				<g>
					<g>
						<g>
							<g>
								<g>
									<g>
										<g>
											<g>
												<g>
													<g>
														<g>
															<path class="st5" d="M224.9,279.6c0-0.1,1.3-0.1,3.2,0.1c0.5,0.1,1,0.1,1.1-0.3c0.2-0.3,0.1-0.9,0-1.5
																c-0.2-1.3-0.4-2.6-0.7-4.1c-0.9-5.8-1.4-10.5-1.2-10.5c0.2,0,1.1,4.6,2,10.4c0.2,1.4,0.4,2.8,0.6,4.1
																c0.1,0.6,0.3,1.3-0.2,2c-0.2,0.3-0.6,0.5-1,0.5c-0.3,0-0.6,0-0.9-0.1C226.1,280,224.8,279.7,224.9,279.6z"/>
														</g>
													</g>
												</g>
											</g>
										</g>
									</g>
								</g>
							</g>
						</g>
					</g>
				</g>
			</g>
		</g>
		<g>
			<g>
				<g>
					<g>
						<g>
							<g>
								<g>
									<g>
										<g>
											<g>
												<g>
													<g>
														<g>
															<path class="st15" d="M221.3,302.7c0,0-9.5-1.4-17.6-9c0,0,2.6,10.9,16.9,12.5L221.3,302.7z"/>
														</g>
													</g>
												</g>
											</g>
										</g>
									</g>
								</g>
							</g>
						</g>
					</g>
				</g>
			</g>
		</g>
		<g>
			<g>
				<g>
					<g>
						<g>
							<g>
								<g>
									<g>
										<g>
											<g>
												<g>
													<g>
														<path class="st16" d="M223.1,284.1c-0.5-1.1-1.6-1.8-2.8-2c-0.9-0.1-1.8,0.1-2.4,0.7c-0.7,0.6-1,1.5-0.6,2.3
															c0.4,0.8,1.4,1.2,2.4,1.2s1.9-0.5,2.8-0.9c0.2-0.1,0.5-0.3,0.7-0.5C223.2,284.7,223.2,284.4,223.1,284.1"/>
													</g>
												</g>
											</g>
										</g>
									</g>
								</g>
							</g>
						</g>
					</g>
				</g>
			</g>
		</g>
		<g>
			<g>
				<g>
					<g>
						<g>
							<g>
								<g>
									<g>
										<g>
											<g>
												<g>
													<g>
														<g>
															<path class="st5" d="M218.9,279.7c0.3,0-0.1,2.1,1.3,4c1.5,1.9,3.7,2.1,3.7,2.4c0,0.1-0.6,0.3-1.5,0.1
																c-0.9-0.2-2.2-0.7-3.1-1.9c-0.9-1.1-1.1-2.5-1-3.3C218.4,280.2,218.8,279.7,218.9,279.7z"/>
														</g>
													</g>
												</g>
											</g>
										</g>
									</g>
								</g>
							</g>
						</g>
					</g>
				</g>
			</g>
		</g>
		<g>
			<g>
				<g>
					<g>
						<g>
							<g>
								<g>
									<g>
										<g>
											<g>
												<g>
													<g>
														<path class="st5" d="M222.5,260.7c-0.3,0.5-2.2-0.2-4.5-0.4c-2.3-0.3-4.3,0-4.5-0.5c-0.1-0.3,0.3-0.7,1.2-1
															c0.8-0.4,2.1-0.6,3.5-0.4c1.4,0.1,2.6,0.6,3.3,1.1C222.3,259.9,222.6,260.4,222.5,260.7z"/>
													</g>
												</g>
											</g>
										</g>
									</g>
								</g>
							</g>
						</g>
					</g>
				</g>
			</g>
		</g>
		<g>
			<g>
				<g>
					<g>
						<g>
							<g>
								<g>
									<g>
										<g>
											<g>
												<g>
													<g>
														<path class="st5" d="M240.4,265.2c-0.4,0.4-1.7-0.4-3.3-0.7c-1.6-0.4-3-0.3-3.2-0.9c-0.1-0.3,0.2-0.6,0.9-0.9
															c0.7-0.3,1.7-0.4,2.8-0.2c1.1,0.3,2,0.9,2.4,1.4C240.5,264.5,240.6,265,240.4,265.2z"/>
													</g>
												</g>
											</g>
										</g>
									</g>
								</g>
							</g>
						</g>
					</g>
				</g>
			</g>
		</g>
		<g>
			<g>
				<g>
					<g>
						<g>
							<g>
								<linearGradient id="SVGID_8_" gradientUnits="userSpaceOnUse" x1="182.2012" y1="266.5702" x2="217.6748" y2="266.5702">
									<stop  offset="0" style="stop-color:#714090"/>
									<stop  offset="1" style="stop-color:#45277C"/>
								</linearGradient>
								<path class="st17" d="M215.7,239.8c-2.7-2.8-6.7-4.7-10.6-4.5c-4,0.3-7.8,3-8.7,6.7c-0.6,2.4-0.1,5.3-1.7,7.3
									c-1.5,1.9-4.2,2.2-6.4,3.3c-3.4,1.8-5.2,6-4.1,9.6c0.9,3.1,3.7,5.9,3.3,9.1c-0.4,3-3.4,5-4.7,7.8c-1.4,3.1-0.3,6.8,1.8,9.5
									c2.1,2.7,5.1,4.6,8,6.4c2.3,1.4,4.7,2.9,7.4,2.9c3.2,0,6.1-2.4,7.1-5.3c1.1-2.9,0.5-6.3-1.1-9c-1.4-2.4-3.5-4.6-3.4-7.3
									c0.2-4.2,5.8-6.5,6.3-10.7c0.3-2.1-0.8-4.2-1.7-6.2c-0.9-2-1.5-4.4-0.3-6.2c1.5-2.4,5.1-2.3,7.5-3.8c2.1-1.2,3.3-3.6,3.1-6
									c-0.2-2.4-1.9-4.5-4.1-5.4"/>
							</g>
						</g>
					</g>
				</g>
			</g>
		</g>
		<g>
			<g>
				<g>
					<g>
						<g>
							<g>
								<linearGradient id="SVGID_9_" gradientUnits="userSpaceOnUse" x1="213.754" y1="251.5519" x2="252.9854" y2="251.5519">
									<stop  offset="0" style="stop-color:#714090"/>
									<stop  offset="1" style="stop-color:#45277C"/>
								</linearGradient>
								<path class="st18" d="M214.9,236.3c-0.6,2.8,0.1,5.8,1.8,8.1c1.8,2.3,4.5,3.7,7.4,3.8c2.2,0.1,4.8-0.5,6.4,1
									c1.7,1.6,1.1,4.6,2.5,6.4c2,2.7,6.3,1.5,9.3,3.1c2.3,1.2,3.3,3.9,4.5,6.1c1.2,2.3,3.2,4.6,5.8,4.4c0.3-2.2,0.6-4.4,0.4-6.6
									c-0.2-2.2-1-4.5-2.5-6c-0.9-0.9-1.9-1.5-2.7-2.5c-1.7-2-1.5-5-2.3-7.5c-1-3.3-3.6-6-6.8-7c-2.7-0.9-5.7-0.7-8.2-1.9
									c-1.9-0.9-3.3-2.6-5.2-3.4c-3.7-1.6-8,0.4-11.4,2.6"/>
							</g>
						</g>
					</g>
				</g>
			</g>
		</g>
		<g>
			<g>
				<g>
					<path class="st19" d="M163.8,316.8c0,0-0.4,0-1.1-0.3c-0.7-0.3-1.6-0.9-2.5-2.1c-0.8-1.1-1.5-2.9-1.3-4.9c0.2-2,1.2-4.2,3-6
						c0.9-0.9,2-1.6,3.1-2.4c1-0.8,2.1-1.8,2.5-3.2c0.4-1.4,0.1-2.9,0-4.5c-0.1-1.6,0.2-3.3,1-4.8c0.8-1.5,1.9-2.9,3.4-3.9
						c1.5-1,3.3-1.6,5.1-1.6c1.8-0.1,3.7,0.1,5.5-0.1c0.9-0.1,1.8-0.4,2.5-0.8c0.8-0.5,1.4-1.2,1.8-2c0.9-1.6,1.1-3.5,1.6-5.3
						c0.2-0.9,0.5-1.8,1-2.7c0.4-0.8,1.1-1.6,1.8-2.1c1.6-1.1,3.4-1.4,5.1-1.8c1.7-0.3,3.3-0.8,4.6-1.7c0.6-0.5,1.2-1.1,1.5-1.8
						c0.3-0.7,0.4-1.5,0.4-2.2c-0.1-1.5-0.6-3-1.1-4.4c-0.5-1.4-0.8-2.8-0.7-4.3c0.1-0.7,0.3-1.4,0.6-2c0.4-0.6,0.9-1.1,1.4-1.4
						c1.1-0.7,2.4-0.8,3.5-1c1.1-0.2,2.2-0.3,3.1-0.5c1.9-0.5,3.2-1.7,4.1-2.7c0.9-1.1,1.2-2.1,1.4-2.8c0.2-0.7,0.2-1.1,0.2-1.1
						c0,0,0,0.4-0.1,1.1c-0.2,0.7-0.5,1.8-1.4,2.9c-0.8,1.1-2.2,2.4-4.2,2.9c-1,0.3-2,0.4-3.1,0.6c-1.1,0.2-2.3,0.4-3.3,1
						c-1,0.6-1.8,1.8-1.9,3.1c-0.1,1.3,0.2,2.7,0.7,4.1c0.5,1.4,1,2.8,1.1,4.5c0,0.8-0.1,1.7-0.4,2.4c-0.3,0.8-0.9,1.5-1.6,2
						c-1.4,1-3.1,1.5-4.8,1.8c-1.7,0.4-3.4,0.7-4.9,1.7c-1.4,1-2.2,2.7-2.6,4.5c-0.5,1.8-0.7,3.7-1.6,5.5c-0.5,0.9-1.1,1.7-2,2.2
						c-0.8,0.5-1.8,0.8-2.7,0.9c-1.9,0.2-3.7,0-5.5,0.1c-3.6,0-6.7,2.3-8.1,5.2c-0.7,1.4-1.1,3-1,4.5c0.1,1.5,0.4,3.1,0,4.6
						c-0.4,1.5-1.6,2.6-2.7,3.4c-1.1,0.8-2.2,1.5-3.1,2.4c-1.8,1.7-2.8,3.8-3,5.8c-0.2,2,0.4,3.6,1.2,4.7c0.8,1.1,1.7,1.8,2.3,2.1
						C163.5,316.7,163.8,316.8,163.8,316.8z"/>
				</g>
			</g>
		</g>
		<g>
			<g>
				<g>
					<path class="st19" d="M246.8,338c0,0,0.4-0.3,0.9-1c0.5-0.7,1.1-1.8,1.1-3.5c0.1-1.6-0.3-3.6-1.3-5.6c-1-2.1-2.6-4.2-3.6-7
						c-1-2.8-1.2-6.2,0-9.5c0.5-1.6,1.4-3.2,2.6-4.6c1.2-1.4,2.7-2.6,3.8-4.1c1.1-1.4,2-3.4,1.4-5.3c-0.6-1.9-2.3-3.2-3.7-4.6
						c-0.8-0.7-1.5-1.5-2-2.5c-0.5-1-0.8-2.1-0.9-3.2c-0.2-2.2,0.3-4.4,1.1-6.5c0.8-2.1,1.9-4,2.8-6c0.9-1.9,1.6-3.9,1.8-6
						c0.3-4.1-1.5-8.1-4.3-10.6c-1.4-1.3-3.1-2-4.7-3c-0.8-0.5-1.5-1.1-2-1.9c-0.5-0.8-0.7-1.7-0.8-2.5c-0.2-0.8-0.3-1.6-0.8-2.3
						c-0.4-0.7-1-1.2-1.7-1.5c-1.4-0.7-2.9-1-4.3-1.4c-1.4-0.3-2.8-0.7-4-1.3c-1.2-0.6-2.2-1.4-3-2.2c-1.7-1.6-2.7-3.4-3.2-5
						c-0.6-1.5-0.7-2.8-0.8-3.7c0-0.9,0-1.3,0-1.3c0.1,0-0.2,1.9,0.9,4.9c0.6,1.5,1.6,3.2,3.3,4.8c0.8,0.8,1.8,1.5,3,2.1
						c1.1,0.6,2.5,1,3.9,1.3c1.4,0.3,2.9,0.6,4.4,1.4c0.7,0.4,1.4,0.9,1.9,1.7c0.5,0.7,0.7,1.6,0.8,2.4c0.2,0.8,0.3,1.7,0.8,2.4
						c0.4,0.7,1.1,1.3,1.9,1.8c1.5,1,3.3,1.7,4.7,3c2.9,2.6,4.8,6.7,4.5,11c-0.2,2.1-0.9,4.2-1.8,6.2c-0.9,2-2,3.9-2.8,5.9
						c-0.8,2-1.3,4.2-1.1,6.3c0.1,1,0.4,2.1,0.9,3c0.5,0.9,1.2,1.7,1.9,2.4c0.7,0.7,1.5,1.4,2.2,2.2c0.7,0.8,1.3,1.7,1.6,2.7
						c0.3,1,0.2,2.1-0.1,3.1c-0.3,1-0.8,1.8-1.4,2.6c-1.2,1.5-2.7,2.7-3.9,4.1c-1.2,1.4-2,2.9-2.6,4.5c-1.1,3.2-1,6.5,0,9.2
						c1,2.7,2.5,4.9,3.5,7c1,2.1,1.4,4.1,1.3,5.8c-0.1,1.7-0.7,2.8-1.3,3.5C247.2,337.8,246.8,338,246.8,338z"/>
				</g>
			</g>
		</g>
		<g>
			<g>
				<g>
					<path class="st0" d="M235.5,326.1c0,0,8.9,8.3,8.6,22c-0.3,13.7,1.9,38.5,1.9,38.5l37.9,23.1l-10.7,16.4l-41.7-18.5l-8.7-17.9
						L235.5,326.1z"/>
				</g>
			</g>
		</g>
		<g>
			<g>
				<g>
					<path class="st0" d="M247.1,419.9c0,0,1.4-2.7-2.6-4.8l-6.4,0l-12.6-21.7l10-67.3l-17.1-13l-37.9-3.4l-13.2,68.1l16.9,30.9
						l33.6,13.8L247.1,419.9z"/>
				</g>
			</g>
		</g>
		<g>
			<g>
				<g>
					<path class="st0" d="M187.2,310.2l0.8-6.4c0.1-1.2,1.4-2.1,2.6-1.7c9.4,7.4,19.1,11.1,29.2,8.1c1.4,0.4,2.2,1.8,1.9,3.2
						l-4,16.1l-10.4,3.1l-13.7-2.7l-6.4-11.8V310.2z"/>
				</g>
			</g>
		</g>
		<g>
			<g>
				<g>
					<path class="st5" d="M220,314.7c0,0-0.4,0.3-1.2,0.7c-0.8,0.4-2,1-3.6,1.5c-3.1,1-7.8,1.7-12.7,0.5c-4.9-1.1-8.9-3.7-11.2-5.9
						c-1.2-1.1-2.1-2.1-2.6-2.9c-0.5-0.7-0.8-1.2-0.8-1.2c0.1-0.1,1.2,1.6,3.6,3.8c2.4,2.1,6.3,4.6,11.1,5.7
						c4.8,1.1,9.4,0.5,12.5-0.4C218.2,315.6,220,314.6,220,314.7z"/>
				</g>
			</g>
		</g>
		<g class="st20">
			<g>
				<g>
					<path d="M189.1,308.7c-0.6,1.2-0.3,2.7,0.5,3.8c0.7,1.1,1.8,1.9,2.9,2.7c3.7,2.7,7.5,5.5,11.9,6.7c4.4,1.3,9.6,0.8,12.9-2.3
						c1-0.9,1.7-2.6,0.7-3.4c-0.8-0.6-1.9-0.2-2.8,0.1c-4.5,1.7-9.6,1.9-14.1,0.5c-4.6-1.4-8.7-4.4-11.4-8.4"/>
				</g>
			</g>
		</g>
		<g>
			<g>
				<g>
					<path class="st0" d="M183.8,381.5l61.9,33.2l-22.3,13.5l-42.6-12.5c-22.6-6-28.8-15.4-28.5-25c0.1-3.5-0.3-38,1.2-54.8
						c2.1-23,27.1-26.1,27.1-26.1l-0.4,19.7l0.3,24l0.8,22c2.3-1.1,2.8,3.1,2.8,3.1L183.8,381.5z"/>
				</g>
			</g>
		</g>
		<g>
			<g>
				<g>
					
						<ellipse transform="matrix(1 -9.132837e-03 9.132837e-03 1 -3.2755 1.6647)" class="st5" cx="180.6" cy="359.5" rx="0.3" ry="18.6"/>
				</g>
			</g>
		</g>
		<g>
			<g>
				<g>
					<path class="st5" d="M183.6,382.7c-0.1,0,0.1-0.4,0.2-1c0.1-0.6,0.1-1.5-0.4-2.4c-0.5-0.8-1.3-1.3-1.9-1.5
						c-0.6-0.2-1-0.2-1-0.3c0-0.1,0.4-0.2,1.1,0c0.7,0.1,1.6,0.6,2.2,1.6c0.6,1,0.5,2,0.3,2.7C184,382.4,183.6,382.7,183.6,382.7z"
						/>
				</g>
			</g>
		</g>
		<g>
			<g>
				<g>
					<path class="st21" d="M235,410.5"/>
				</g>
			</g>
		</g>
		<g>
			<g>
				<g>
					<path class="st5" d="M183.6,382.7c0,0,0,0,0.1,0.1c0.1,0.1,0.2,0.1,0.4,0.2c0.3,0.2,0.8,0.5,1.5,0.8c1.3,0.7,3.1,1.7,5.4,2.9
						c4.7,2.4,11,5.7,18,9.2c7,3.6,13.4,6.8,18.1,9.2c2.3,1.2,4.1,2.1,5.5,2.8c0.6,0.3,1.1,0.6,1.5,0.8c0.3,0.2,0.5,0.3,0.5,0.3
						c0,0-0.2-0.1-0.5-0.2c-0.4-0.2-0.9-0.4-1.5-0.7c-1.4-0.7-3.2-1.6-5.5-2.7c-4.7-2.3-11.1-5.5-18.1-9.1c-7.1-3.6-13.4-6.9-18-9.4
						C186.2,384.5,183.4,382.9,183.6,382.7z"/>
				</g>
			</g>
		</g>
		<g>
			<g>
				<g>
					<path class="st5" d="M224.1,394.1c0,0.1-1.1-0.2-2.9-0.7c-1.8-0.5-4.2-1.3-6.9-2.2c-2.7-0.9-5-1.8-6.8-2.5
						c-1.7-0.7-2.7-1.1-2.7-1.2c0-0.1,1.1,0.3,2.9,0.9c1.9,0.6,4.2,1.4,6.8,2.3c2.6,0.9,4.9,1.7,6.8,2.3
						C223.1,393.6,224.1,394,224.1,394.1z"/>
				</g>
			</g>
		</g>
		<g>
			<g>
				<g>
					<path class="st5" d="M208.8,368.6c0,0-0.1,0.3-0.3,0.7c-0.2,0.5-0.6,1.1-1.1,1.8c-0.5,0.7-1.3,1.6-2.2,2.4
						c-0.9,0.8-2,1.6-3.2,2.3c-1.2,0.7-2.5,1.1-3.7,1.5c-1.2,0.3-2.3,0.5-3.2,0.5c-0.9,0.1-1.7,0-2.2,0c-0.5-0.1-0.8-0.1-0.8-0.1
						c0-0.1,1.1,0,2.9-0.2c0.9-0.1,1.9-0.3,3.1-0.6c1.1-0.3,2.3-0.8,3.5-1.5c1.2-0.7,2.2-1.4,3.1-2.2c0.9-0.8,1.6-1.5,2.2-2.2
						C208.2,369.5,208.8,368.5,208.8,368.6z"/>
				</g>
			</g>
		</g>
		<g>
			<g>
				<g>
					<path class="st5" d="M180.5,335.2c-0.1,0-0.2-1.4-0.5-3.6c-0.3-2.2-0.9-5.3-2.3-8.4c-1.4-3.1-3.6-5.5-5.4-6.7
						c-1.8-1.3-3.2-1.7-3.2-1.8c0,0,0.4,0,1,0.2c0.6,0.2,1.5,0.6,2.4,1.2c1.9,1.2,4.2,3.6,5.7,6.8c1.5,3.2,2,6.4,2.2,8.6
						c0.1,1.1,0.2,2.1,0.2,2.7C180.6,334.8,180.6,335.2,180.5,335.2z"/>
				</g>
			</g>
		</g>
		<g>
			<g>
				<g>
					<path class="st5" d="M246.6,386.5c0,0.1-0.7,0.4-1.6,1.3c-0.9,0.9-2,2.2-3,3.9c-1,1.6-1.7,3.2-2,4.5c-0.3,1.2-0.4,2-0.4,2
						c-0.1,0-0.2-0.8,0.1-2.1c0.3-1.3,0.9-3,1.9-4.6c1-1.7,2.2-3,3.2-3.9C245.8,386.6,246.6,386.5,246.6,386.5z"/>
				</g>
			</g>
		</g>
		<g class="st20">
			<g>
				<g>
					<path d="M237.4,410.9c2.1-4,1.5-8.7,0.4-13c-1.2-4.3-2.9-8.5-3.3-12.9c-0.3-3.8,0.5-7.7,1.3-11.5c0.8-3.8,1.5-7.6,1.1-11.5
						c-0.4-3.8-2.1-7.7-5.3-9.8c1.3,3.2,2.6,6.4,3,9.8c0.4,3.4-0.1,7.1-2.2,9.8c-1.1,1.4-2.5,2.5-3.2,4.2c-0.9,2.2-0.8,4.6-1.5,6.7
						c-0.8,2.4-2.1,10.3-2.1,10.3c-0.1,0.4,2.4,4.9,4.8,8.1C232.8,404.3,235.7,407.2,237.4,410.9"/>
				</g>
			</g>
		</g>
		<g>
			<g>
				<g>
					<path class="st5" d="M237.5,410.6c0,0-0.1-0.1-0.3-0.3c-0.2-0.2-0.4-0.5-0.7-0.9c-0.6-0.9-1.5-2-2.5-3.5
						c-2.2-3.1-5.2-7.3-8.7-12.4l-0.1-0.1l0-0.1c1-4.8,2.1-10.2,3.2-15.9c0.1-0.6,0.2-1.2,0.4-1.8l0-0.1l0.1-0.1
						c3.8-3.9,5.8-9.1,5.7-13.6c-0.2-4.6-1.9-8.4-4-10.8l0,0l0-0.1c-0.2-2.6-0.3-4.6-0.4-6c0-0.7-0.1-1.2-0.1-1.6c0-0.4,0-0.6,0-0.6
						c0,0,0,0.2,0.1,0.5c0,0.4,0.1,0.9,0.2,1.6c0.1,1.5,0.3,3.5,0.5,6l0-0.1c2.1,2.4,3.9,6.3,4.2,11c0.1,2.4-0.4,4.8-1.4,7.3
						c-1,2.4-2.5,4.8-4.4,6.8l0.1-0.1c-0.1,0.6-0.2,1.2-0.4,1.8c-1.2,5.7-2.3,11.2-3.3,15.9l0-0.2c3.5,5.1,6.5,9.4,8.6,12.5
						c1,1.5,1.8,2.7,2.4,3.6c0.3,0.4,0.5,0.7,0.6,1C237.5,410.5,237.5,410.6,237.5,410.6z"/>
				</g>
			</g>
		</g>
		<g class="st20">
			<g>
				<g>
					<path d="M192.6,377.9c-0.6-0.5-1.6,0.3-1.5,1.1c0,0.8,0.7,1.4,1.4,1.8c1.8,1.1,4.1,1.4,6.2,1.2c2.7-0.2,5.3-1.1,7.3-3
						c1.9-1.8,3-4.6,2.5-7.2c0-0.2-0.1-0.4-0.3-0.6c-0.5-0.5-1.3,0.1-1.8,0.6c-3.4,3.6-8.3,5.9-13.2,6.1"/>
				</g>
			</g>
		</g>
		<g class="st20">
			<g>
				<g>
					<path d="M180.5,377.5c-2.3-1-5.2-0.3-6.8,1.7c-0.5,0.6-0.8,1.5-0.4,2.2c0.3,0.6,1.1,0.7,1.8,0.6c0.6-0.1,1.2-0.6,1.7-1
						c1.1-0.9,2.3-1.8,3.4-2.8c0.2-0.1,0.3-0.3,0.4-0.5c0.1-0.2,0-0.4-0.2-0.5"/>
				</g>
			</g>
		</g>
		<g>
			<g>
				<g>
					<path class="st5" d="M175.3,382.7c-0.1,0,0-0.5,0.3-1.2c0.3-0.7,0.9-1.7,1.8-2.5c0.9-0.8,1.9-1.3,2.7-1.5
						c0.8-0.2,1.3-0.2,1.3-0.1c0,0.2-1.9,0.5-3.6,2C176,380.9,175.4,382.8,175.3,382.7z"/>
				</g>
			</g>
		</g>
		<g>
			<g>
				<g>
					
						<ellipse transform="matrix(3.156739e-02 -0.9995 0.9995 3.156739e-02 -187.3396 486.0217)" class="st4" cx="157.1" cy="339.7" rx="8.9" ry="0.3"/>
				</g>
			</g>
		</g>
		<g>
			<g>
				<g>
					
						<ellipse transform="matrix(1 -1.368697e-03 1.368697e-03 1 -0.4814 0.2211)" class="st4" cx="161.3" cy="351.9" rx="0.3" ry="10.7"/>
				</g>
			</g>
		</g>
		<g>
			<g>
				<g>
					<path class="st4" d="M169.3,327.2c0.1,0,0.1,0.9,0.1,2.4c0,1.5-0.1,3.6-0.2,5.8c-0.1,2.3-0.2,4.3-0.3,5.8
						c-0.1,1.5-0.2,2.4-0.3,2.4c-0.1,0-0.1-0.9-0.1-2.4c0-1.5,0.1-3.6,0.2-5.9c0.1-2.3,0.2-4.4,0.3-5.9
						C169.1,328.1,169.2,327.2,169.3,327.2z"/>
				</g>
			</g>
		</g>
		<g>
			<g>
				<g>
					<ellipse class="st4" cx="175.2" cy="349" rx="0.3" ry="6.9"/>
				</g>
			</g>
		</g>
		<g>
			<g>
				<g>
					
						<ellipse transform="matrix(5.006970e-02 -0.9987 0.9987 5.006970e-02 -204.2348 515.5702)" class="st4" cx="168.9" cy="365.2" rx="6.5" ry="0.3"/>
				</g>
			</g>
		</g>
		<g>
			<g>
				<g>
					
						<ellipse transform="matrix(0.9999 -1.722550e-02 1.722550e-02 0.9999 -6.4945 2.7276)" class="st4" cx="155.1" cy="378.4" rx="0.3" ry="6.4"/>
				</g>
			</g>
		</g>
		<g>
			<g>
				<g>
					
						<ellipse transform="matrix(5.370305e-02 -0.9986 0.9986 5.370305e-02 -227.7297 521.9409)" class="st4" cx="161.5" cy="381.1" rx="4.6" ry="0.3"/>
				</g>
			</g>
		</g>
		<g>
			<g>
				<g>
					<path class="st4" d="M193.4,393.1c-0.1,0.1-2.8-1.1-6-2.9c-3.2-1.8-5.6-3.6-5.5-3.8c0.1-0.1,2.6,1.5,5.8,3.3
						C190.8,391.5,193.4,392.9,193.4,393.1z"/>
				</g>
			</g>
		</g>
		<g>
			<g>
				<g>
					<path class="st22" d="M194,393.4"/>
				</g>
			</g>
		</g>
		<g>
			<g>
				<g>
					<path class="st4" d="M213.8,403.7c0,0.1-0.8-0.2-2.1-0.9c-1.2-0.6-2.9-1.5-4.7-2.7c-1.8-1.2-3.3-2.3-4.3-3.2
						c-1-0.9-1.6-1.5-1.6-1.6c0.1-0.1,2.7,2.1,6.2,4.3C210.9,402.1,213.9,403.6,213.8,403.7z"/>
				</g>
			</g>
		</g>
		<g>
			<g>
				<g>
					
						<ellipse transform="matrix(0.4226 -0.9063 0.9063 0.4226 -247.7829 425.8035)" class="st4" cx="210.3" cy="407.4" rx="0.3" ry="5.3"/>
				</g>
			</g>
		</g>
		<g>
			<g>
				<g>
					<path class="st4" d="M228.9,414.4c-0.1,0.1-2.4-1.3-5.3-2.8c-3-1.5-5.5-2.5-5.4-2.6c0-0.1,2.7,0.6,5.7,2.2
						C226.8,412.6,229,414.3,228.9,414.4z"/>
				</g>
			</g>
		</g>
		<g>
			<g>
				<g>
					<path class="st4" d="M225.5,421.3c-0.1,0.1-1.6-0.9-3.6-2c-2-1.1-3.6-1.9-3.5-2.1c0.1-0.1,1.8,0.5,3.8,1.6
						C224.1,420,225.6,421.2,225.5,421.3z"/>
				</g>
			</g>
		</g>
		<g>
			<g>
				<g>
					
						<ellipse transform="matrix(0.9992 -3.963994e-02 3.963994e-02 0.9992 -14.7565 7.3158)" class="st4" cx="177.1" cy="375.8" rx="0.3" ry="4.1"/>
				</g>
			</g>
		</g>
		<g>
			<g>
				<g>
					
						<ellipse transform="matrix(0.9919 -0.1273 0.1273 0.9919 -42.4547 29.1731)" class="st4" cx="207" cy="346.8" rx="0.3" ry="5.8"/>
				</g>
			</g>
		</g>
		<g>
			<g>
				<g>
					
						<ellipse transform="matrix(0.9999 -1.460820e-02 1.460820e-02 0.9999 -5.2868 3.1214)" class="st4" cx="211" cy="363.4" rx="0.3" ry="6.1"/>
				</g>
			</g>
		</g>
		<g>
			<g>
				<g>
					<path class="st4" d="M191,372c-0.1,0-0.8-2.5-1-5.6c-0.2-3.2,0-5.7,0.2-5.7c0.2,0,0.1,2.6,0.4,5.7
						C190.7,369.4,191.1,371.9,191,372z"/>
				</g>
			</g>
		</g>
		<g>
			<g>
				<g>
					<path class="st4" d="M197.9,388.7c-0.1,0-0.7-2.3-1-5.3c-0.3-3-0.1-5.4,0.1-5.4c0.2,0,0.2,2.4,0.5,5.4
						C197.7,386.3,198,388.6,197.9,388.7z"/>
				</g>
			</g>
		</g>
		<g>
			<g>
				<g>
					<ellipse class="st4" cx="200.8" cy="358.8" rx="0.3" ry="5.8"/>
				</g>
			</g>
		</g>
		<g>
			<g>
				<g>
					<ellipse class="st4" cx="192.6" cy="348.9" rx="0.3" ry="4.4"/>
				</g>
			</g>
		</g>
		<g>
			<g>
				<g>
					
						<ellipse transform="matrix(0.9998 -2.083256e-02 2.083256e-02 0.9998 -6.9079 4.2621)" class="st4" cx="201.1" cy="333.7" rx="0.3" ry="3.9"/>
				</g>
			</g>
		</g>
		<g>
			<g>
				<g>
					
						<ellipse transform="matrix(0.998 -6.317966e-02 6.317966e-02 0.998 -20.9072 14.3223)" class="st4" cx="216" cy="337.7" rx="0.3" ry="8.3"/>
				</g>
			</g>
		</g>
		<g>
			<g>
				<g>
					<ellipse class="st4" cx="221.6" cy="366" rx="0.3" ry="9.2"/>
				</g>
			</g>
		</g>
		<g>
			<g>
				<g>
					<ellipse class="st4" cx="212.5" cy="383.6" rx="0.3" ry="6.5"/>
				</g>
			</g>
		</g>
		<g>
			<g>
				<g>
					<ellipse class="st4" cx="220.8" cy="396.4" rx="0.3" ry="2.5"/>
				</g>
			</g>
		</g>
		<g>
			<g>
				<g>
					<ellipse class="st4" cx="226.3" cy="343.5" rx="0.3" ry="5.9"/>
				</g>
			</g>
		</g>
		<g>
			<g>
				<g>
					<ellipse class="st4" cx="220.6" cy="324.8" rx="0.3" ry="7.9"/>
				</g>
			</g>
		</g>
		<g>
			<g>
				<g>
					<ellipse class="st4" cx="209.9" cy="324.4" rx="0.3" ry="5.4"/>
				</g>
			</g>
		</g>
		<g>
			<g>
				<g>
					<path class="st4" d="M234.5,343.5c-0.1,0-0.5-2.9-0.6-6.5c-0.1-3.6,0.2-6.5,0.4-6.5c0.1,0,0.1,2.9,0.2,6.5
						C234.5,340.6,234.6,343.5,234.5,343.5z"/>
				</g>
			</g>
		</g>
		<g>
			<g>
				<g>
					<ellipse class="st4" cx="239.2" cy="347.9" rx="0.3" ry="6.6"/>
				</g>
			</g>
		</g>
		<g>
			<g>
				<g>
					<ellipse class="st4" cx="242.1" cy="366.9" rx="0.3" ry="6.8"/>
				</g>
			</g>
		</g>
		<g>
			<g>
				<g>
					<ellipse class="st4" cx="235.5" cy="377" rx="0.3" ry="7.2"/>
				</g>
			</g>
		</g>
		<g>
			<g>
				<g>
					<ellipse class="st4" cx="230.3" cy="388.8" rx="0.3" ry="7.6"/>
				</g>
			</g>
		</g>
		<g>
			<g>
				<g>
					<ellipse class="st4" cx="241.7" cy="385.6" rx="0.3" ry="4.4"/>
				</g>
			</g>
		</g>
		<g>
			<g>
				<g>
					
						<ellipse transform="matrix(0.3858 -0.9226 0.9226 0.3858 -226.2538 477.1823)" class="st4" cx="245.2" cy="408.5" rx="0.3" ry="8.2"/>
				</g>
			</g>
		</g>
		<g>
			<g>
				<g>
					
						<ellipse transform="matrix(0.3359 -0.9419 0.9419 0.3359 -209.9572 511.7901)" class="st4" cx="258" cy="404.8" rx="0.3" ry="8.6"/>
				</g>
			</g>
		</g>
		<g>
			<g>
				<g>
					
						<ellipse transform="matrix(0.4544 -0.8908 0.8908 0.4544 -215.6908 439.9906)" class="st4" cx="251.3" cy="396.1" rx="0.3" ry="6"/>
				</g>
			</g>
		</g>
		<g>
			<g>
				<g>
					<path class="st4" d="M168.7,316.9c0.1,0.1-1.5,1.6-3.1,3.7c-1.6,2.1-2.5,4-2.7,3.9c-0.1,0,0.6-2.1,2.3-4.3
						C166.8,318.1,168.6,316.8,168.7,316.9z"/>
				</g>
			</g>
		</g>
		<g>
			<g>
				<g>
					
						<ellipse transform="matrix(0.979 -0.2039 0.2039 0.979 -60.9346 43.7172)" class="st4" cx="181.7" cy="317.6" rx="0.3" ry="3.2"/>
				</g>
			</g>
		</g>
		<g>
			<g>
				<g>
					<path class="st7" d="M239.6,424l66.1-32.1c6.7-3.3,14.7-2.9,21.1,1l0,0c11.5,7.1,14,22.8,5.2,33.1l-28.7,33.5l-73.2,10.1
						l-6.8-41.4l8.1-12.6L239.6,424z"/>
				</g>
			</g>
			<g>
				<g>
					<g>
						<path class="st7" d="M279.5,437.8c0,0-0.3,0.3-0.8,0.7c-0.5,0.4-1.3,1-2.3,1.6c-2,1.4-4.8,3.2-7.9,5.1
							c-3.1,1.9-6.1,3.5-8.2,4.6c-1.1,0.6-1.9,1-2.5,1.3c-0.6,0.3-1,0.4-1,0.4c0,0,0.3-0.2,0.9-0.6c0.7-0.4,1.5-0.9,2.5-1.4
							c2.1-1.2,5-2.9,8.1-4.8c3.1-1.9,6-3.7,8-4.9c0.9-0.6,1.7-1.1,2.4-1.5C279.2,437.9,279.5,437.7,279.5,437.8z"/>
					</g>
				</g>
			</g>
			<g>
				<g>
					<g>
						<path class="st7" d="M139.8,440.2c0,0,6.6-31.7,9.9-36.6c3.4-4.9,10.5-15.8,19.5-16.9c9-1.1,27.4,9.7,30.8,13.9
							c8.5,10.7,62,67.4,61.3,66.7l-17.2,11.9l-18.2-5.8l-52.3,0C173.6,473.4,137.4,467.3,139.8,440.2z"/>
					</g>
				</g>
				<g>
					<g>
						<g>
							<path class="st7" d="M225.9,473.4c0,0-0.3,0-0.8,0c-0.5,0-1.3-0.2-2.3-0.4c-1.9-0.4-4.7-1.3-8-2.8c-6.5-2.9-15-8-23.6-14.7
								c-8.6-6.6-16.1-13-21.1-18.2c-2.5-2.6-4.4-4.8-5.5-6.4c-0.6-0.8-1-1.5-1.2-1.9c-0.3-0.5-0.4-0.7-0.4-0.7c0,0,0.2,0.2,0.5,0.7
								c0.3,0.4,0.7,1.1,1.3,1.9c1.2,1.6,3.1,3.8,5.6,6.3c5,5,12.5,11.4,21.1,18c8.5,6.7,17,11.8,23.4,14.8c3.2,1.5,5.9,2.5,7.9,3
								c1,0.2,1.7,0.4,2.2,0.5C225.7,473.3,225.9,473.4,225.9,473.4z"/>
						</g>
					</g>
				</g>
				<g>
					<g>
						<g>
							<path class="st7" d="M202.5,466.3c0,0-0.2,0.2-0.7,0.4c-0.5,0.3-1.2,0.6-2,1.1c-0.9,0.5-2,0.9-3.3,1.5
								c-0.6,0.3-1.4,0.5-2.1,0.8c-0.8,0.2-1.5,0.6-2.4,0.8c-3.4,1-7.6,1.7-12.3,1.8c-4.7,0.1-9.9-0.5-15.1-1.9
								c-5.2-1.5-9.9-3.8-13.7-6.5c-0.9-0.7-1.9-1.3-2.7-2.1c-0.9-0.7-1.6-1.5-2.3-2.3c-1.3-1.6-2.4-3.3-3.2-4.8
								c-1.7-3.1-2.4-6-2.7-7.9c-0.1-1-0.2-1.7-0.2-2.3c0-0.5,0-0.8,0-0.8c0.1,0,0,1.1,0.4,3c0.4,1.9,1.2,4.7,2.8,7.8
								c0.8,1.5,1.9,3.2,3.2,4.7c0.7,0.8,1.4,1.5,2.2,2.2c0.8,0.7,1.8,1.3,2.7,2c3.8,2.6,8.4,4.9,13.6,6.4c5.1,1.5,10.3,2,14.9,2
								c4.6-0.1,8.8-0.7,12.2-1.7c0.9-0.2,1.6-0.5,2.4-0.7c0.7-0.3,1.5-0.4,2.1-0.7c1.3-0.6,2.4-1,3.3-1.4c0.8-0.4,1.5-0.8,2-1
								C202.2,466.4,202.5,466.3,202.5,466.3z"/>
						</g>
					</g>
				</g>
			</g>
		</g>
		<g>
			<g>
				<g>
					
						<ellipse transform="matrix(0.7293 -0.6842 0.6842 0.7293 -234.8619 275.7372)" class="st19" cx="231.1" cy="434.7" rx="0.3" ry="42.1"/>
				</g>
			</g>
		</g>
		<g>
			<g>
				<linearGradient id="SVGID_10_" gradientUnits="userSpaceOnUse" x1="263.522" y1="441.093" x2="366.8751" y2="441.093">
					<stop  offset="0" style="stop-color:#714090"/>
					<stop  offset="1" style="stop-color:#45277C"/>
				</linearGradient>
				<path class="st23" d="M273.8,414.6l-10.2,60.1c-0.6,3.4,2.2,6.4,5.6,6l81.9-8.2c2.3-0.2,4.2-2,4.6-4.2l11.1-60.8
					c0.6-3.4-2.2-6.5-5.7-6.1l-82.8,8.9C276,410.6,274.1,412.3,273.8,414.6z"/>
			</g>
		</g>
		<g>
			<g>
				<g>
					<path class="st5" d="M218.9,472.9c0,0,0.1,0,0.2,0c0.2,0,0.4,0,0.6,0.1c0.6,0.1,1.4,0.2,2.5,0.3c2.2,0.3,5.3,0.8,9.2,1.4
						c7.9,1.2,18.9,2.9,31.3,4.9l-0.3,0.2c0.5-3.1,1.1-6.4,1.6-9.7c2.5-14.8,4.7-28.1,6.3-37.9c0.8-4.8,1.5-8.7,2-11.5
						c0.2-1.3,0.4-2.4,0.6-3.1c0.1-0.3,0.1-0.6,0.2-0.8c0-0.2,0.1-0.3,0.1-0.3c0,0,0,0.1,0,0.3c0,0.2-0.1,0.5-0.1,0.8
						c-0.1,0.8-0.3,1.8-0.5,3.1c-0.4,2.8-1.1,6.7-1.8,11.5c-1.6,9.7-3.8,23.1-6.2,37.9c-0.6,3.3-1.1,6.6-1.6,9.7l0,0.3l-0.3,0
						c-12.5-2-23.4-3.8-31.3-5c-3.9-0.6-7-1.2-9.2-1.5c-1-0.2-1.9-0.3-2.5-0.4c-0.3,0-0.5-0.1-0.6-0.1
						C219,473,218.9,473,218.9,472.9z"/>
				</g>
			</g>
		</g>
		<g>
			<g>
				<ellipse class="st4" cx="319.7" cy="440.7" rx="5.3" ry="5.9"/>
			</g>
		</g>
		<g>
			<g>
				<g>
					<linearGradient id="SVGID_11_" gradientUnits="userSpaceOnUse" x1="182.3526" y1="311.4847" x2="207.8704" y2="311.4847">
						<stop  offset="0" style="stop-color:#714090"/>
						<stop  offset="1" style="stop-color:#45277C"/>
					</linearGradient>
					<path class="st24" d="M201.6,277.1c2.1,3.1,4.3,6.3,5.4,9.9c1.2,3.6,1.3,7.7-0.5,11c-1.5,2.7-4.3,4.9-4.8,8
						c-0.8,5.3,5.5,9.2,6,14.5c0.3,3-1.5,5.9-3.4,8.2c-2,2.3-4.3,4.5-5.6,7.2c-1.3,2.8-1.2,6.5,1.2,8.4c-2.9-0.8-5.9,2.3-8.8,1.3
						c-2.5-0.8-3.1-3.9-3.3-6.5c-1.2,1.5-1.6,3.6-1.1,5.5c-4.4-4.5-5.5-12-2.5-17.5c1.7-3.2,4.8-6.1,4.7-9.8c0-4-3.8-7-4.9-10.9
						c-0.7-2.7-0.1-5.5,0.7-8.1c0.8-2.6,1.8-5.3,1.9-8c0.1-2.8-0.1-3.9-2.5-5.3"/>
				</g>
			</g>
			<g>
				<g>
					<g>
						<linearGradient id="SVGID_12_" gradientUnits="userSpaceOnUse" x1="190.4159" y1="306.7728" x2="200.1536" y2="306.7728">
							<stop  offset="0" style="stop-color:#714090"/>
							<stop  offset="1" style="stop-color:#45277C"/>
						</linearGradient>
						<path class="st25" d="M194.2,343.8c0,0-0.1,0-0.2,0c-0.1,0-0.4-0.1-0.6-0.2c-0.5-0.2-1.3-0.7-1.9-1.6c-0.6-0.9-1.1-2.3-1-3.8
							c0-1.6,0.7-3.3,1.8-4.9c1.1-1.6,2.6-3.2,4-5c1.4-1.8,2.7-3.9,2.7-6.5c0-2.5-1.4-4.9-2.9-7.2c-1.5-2.3-3.4-4.7-3.9-7.8
							c-0.3-1.5,0-3.1,0.6-4.4c0.7-1.3,1.6-2.4,2.6-3.4c1-1,2-2,2.7-3c0.8-1.1,1.4-2.2,1.6-3.4c0.2-1.2-0.1-2.4-0.8-3.4
							c-0.6-1-1.4-1.9-2.2-2.8c-1.5-1.7-2.4-3.8-2.7-5.8c-0.3-2,0-3.8,0.6-5.2c0.6-1.5,1.4-2.6,2.1-3.4c0.7-0.8,1.4-1.3,1.9-1.6
							c0.2-0.2,0.4-0.3,0.6-0.3c0.1-0.1,0.2-0.1,0.2-0.1c0,0.1-1.1,0.6-2.5,2.2c-0.7,0.8-1.5,1.9-2,3.3c-0.5,1.4-0.8,3.2-0.5,5.1
							c0.3,1.9,1.2,3.9,2.7,5.5c0.7,0.9,1.6,1.7,2.2,2.8c0.7,1,1.1,2.4,0.9,3.7c-0.2,1.3-0.8,2.6-1.6,3.7c-0.8,1.1-1.8,2.1-2.8,3.1
							c-1,1-1.9,2.1-2.5,3.3c-0.6,1.2-0.8,2.7-0.6,4.1c0.5,2.9,2.3,5.3,3.8,7.6c0.8,1.2,1.5,2.3,2.1,3.6c0.5,1.3,0.9,2.6,0.9,3.9
							c0,1.3-0.4,2.6-0.9,3.7c-0.5,1.1-1.2,2.1-1.9,3c-1.4,1.8-2.9,3.3-4,4.9c-1.1,1.6-1.8,3.2-1.8,4.7c-0.1,1.5,0.4,2.8,0.9,3.7
							c0.6,0.9,1.3,1.4,1.8,1.7C193.9,343.7,194.2,343.7,194.2,343.8z"/>
					</g>
				</g>
			</g>
		</g>
		<g>
			<g>
				<g>
					<g>
						<path class="st14" d="M264.4,435.1c-2.9-2.6,0.4-5.6-4.9-10.5c-3.9-3.7-11.3-10-25.6-14.8l-9,16l15.6,5l-0.2,10.2
							c0,2.1,1.7,3.8,3.8,3.8l8.1-0.1c0,0-2.4,10-2,10.6c1.1,1.7,3.5,0.9,3.8-0.4c0.3-1.3,7-17.5,7-17.5s4.4,3.8,5,1.6
							C266.1,439,267.3,437.6,264.4,435.1z"/>
					</g>
				</g>
				<g>
					<g>
						<g>
							<g>
								<path class="st14" d="M242.6,445c0-0.1,0.4-0.3,0.9-0.8c0.5-0.5,1.2-1.4,1.5-2.5c0.4-1.1,0.4-2.1,0.3-2.9
									c-0.1-0.7-0.3-1.2-0.2-1.2c0,0,0.3,0.4,0.5,1.2c0.2,0.8,0.2,1.9-0.2,3.1c-0.4,1.1-1.1,2-1.7,2.5
									C243.1,444.9,242.6,445,242.6,445z"/>
							</g>
						</g>
					</g>
				</g>
				<g>
					<g>
						<g>
							<g>
								<path class="st14" d="M247.8,444.6c-0.1-0.1,1.1-1.2,1.6-3.1c0.5-1.9,0-3.5,0.1-3.5c0,0,0.2,0.4,0.3,1
									c0.1,0.7,0.1,1.6-0.1,2.6c-0.3,1-0.7,1.8-1.1,2.3C248.2,444.4,247.8,444.7,247.8,444.6z"/>
							</g>
						</g>
					</g>
				</g>
				<g>
					<g>
						<g>
							<g>
								<path class="st14" d="M254.1,438.8c0,0,0.2,0.3,0.2,0.9c0,0.6-0.1,1.3-0.4,2.1c-0.3,0.8-0.8,1.4-1.2,1.8
									c-0.4,0.4-0.7,0.5-0.7,0.5c-0.1-0.1,1-0.9,1.6-2.4C254.1,440.1,253.9,438.8,254.1,438.8z"/>
							</g>
						</g>
					</g>
				</g>
			</g>
		</g>
		<text transform="matrix(1 0 0 1 67.146 116.7891)" class="st8 st26 st27">Benchmarking</text>
		<text transform="matrix(1 0 0 1 168.813 116.7891)" class="st8 st26 st27">User flow</text>
		<text transform="matrix(1 0 0 1 273.813 116.7891)" class="st8 st26 st27">MVP</text>
		<text transform="matrix(1 0 0 1 359.813 116.7891)" class="st8 st26 st27">Usability test</text>
		<text transform="matrix(1 0 0 1 90.8291 182.3867)" class="st8 st28 st29">Step 1</text>
	</g>
</g>
</svg>
