<?xml version="1.0" encoding="utf-8"?>
<!-- Generator: Adobe Illustrator 21.0.0, SVG Export Plug-In . SVG Version: 6.00 Build 0)  -->
<svg version="1.1" id="Calque_1" xmlns="http://www.w3.org/2000/svg" xmlns:xlink="http://www.w3.org/1999/xlink" x="0px" y="0px"
	 viewBox="0 0 500 500" style="enable-background:new 0 0 500 500;" xml:space="preserve">
<style type="text/css">
	.st0{fill:#FFFFFF;}
	.st1{fill:#1A2E35;}
	.st2{fill:#F6F5F5;}
	.st3{fill:#E1E1E0;}
	.st4{fill:#FCC306;}
	.st5{fill:#EA505E;}
	.st6{fill:#352564;}
	.st7{fill:#385A65;}
	.st8{fill:url(#SVGID_1_);}
	.st9{fill:#ECECEC;}
	.st10{opacity:0.7;}
	.st11{opacity:0.2;}
	.st12{fill:none;stroke:#FCC306;stroke-width:1.1316;stroke-miterlimit:10;}
	.st13{fill:#F9BE9D;}
	.st14{fill:#F3986E;}
	.st15{opacity:0.3;}
	.st16{fill:url(#SVGID_2_);}
	.st17{fill:url(#SVGID_3_);}
	.st18{fill:url(#SVGID_4_);}
	.st19{fill:url(#SVGID_5_);}
	.st20{fill:url(#SVGID_6_);}
</style>
<g>
	<g>
		<g>
			<g>
				<polygon class="st0" points="115.7,447.7 117.1,480.3 134.7,479.9 133.3,447.2 				"/>
			</g>
		</g>
	</g>
	<g>
		<g>
			<g>
				<g>
					<g>
						<g>
							<g>
								<path class="st0" d="M167.1,22.3L147,22.5c-2.7,0-4.9,2.3-4.8,5.1l0,3.6c0,2.8-2.1,5.1-4.8,5.1l-39.1,0.3
									c-2.7,0-4.9-2.2-4.9-5.1l0-3.6c0-2.8-2.2-5.1-4.9-5.1L81.4,23l-17.6,0.1c-8.7,0.1-15.7,7.2-15.7,15.9l2.2,253.2
									c0.1,8.7,7.2,15.7,15.9,15.6l103.3-0.9c8.7-0.1,15.7-7.2,15.7-15.9L183,38C182.9,29.2,175.8,22.2,167.1,22.3z"/>
							</g>
							<g>
								<g>
									<path class="st1" d="M167.1,22.3c0,0,0.2,0,0.5,0c0.4,0,0.9,0,1.6,0.1c1.4,0.2,3.5,0.6,5.9,2c1.2,0.7,2.5,1.6,3.6,2.9
										c1.2,1.2,2.3,2.8,3,4.7c0.8,1.9,1.2,4.1,1.2,6.4c0,2.3,0,4.8,0.1,7.4c0.2,21,0.5,51.5,0.8,89.1
										c0.3,37.6,0.7,82.4,1.2,132.1c0.1,6.2,0.1,12.5,0.2,18.9c0,1.6,0,3.2,0,4.8c0,1.6-0.1,3.3-0.6,4.8c-0.4,1.6-1.1,3.1-2,4.5
										c-0.9,1.4-2,2.6-3.3,3.7c-2.5,2.1-5.8,3.4-9.1,3.6c-3.3,0.1-6.6,0.1-9.9,0.1c-6.6,0.1-13.3,0.1-20.1,0.2
										c-13.5,0.1-27.3,0.2-41.3,0.3c-7,0.1-14,0.1-21.1,0.2c-3.5,0-7.1,0.1-10.7,0.1c-3.6,0.2-7.3-0.7-10.3-2.7
										c-3-2-5.3-5.1-6.3-8.6c-0.6-1.7-0.7-3.6-0.7-5.3c0-1.8,0-3.6,0-5.3C50,279,49.9,272,49.9,265c-0.1-14-0.2-27.7-0.4-41.3
										c-0.2-27.1-0.4-53.2-0.7-78c-0.2-24.9-0.4-48.5-0.6-70.6c-0.1-11.1-0.2-21.7-0.3-32c0-1.3,0-2.6,0-3.8c0-0.6,0-1.3,0.1-1.9
										c0.1-0.6,0.1-1.3,0.3-1.9c0.6-2.5,1.7-4.8,3.3-6.7c1.6-1.9,3.6-3.4,5.8-4.4c2.2-1,4.7-1.4,7-1.4c4.7,0,9.3-0.1,13.8-0.1
										c2.2,0,4.4,0,6.6-0.1c1.1,0,2.2,0,3.2,0c1.1-0.1,2.2,0.2,3.1,0.8c0.9,0.6,1.6,1.5,2,2.5c0.4,1,0.3,2.1,0.3,3.1
										c0,0.5,0,1,0,1.5c0,0.5,0,1,0.1,1.5c0.1,1,0.6,1.9,1.2,2.6c0.6,0.7,1.5,1.3,2.4,1.5c0.5,0.1,0.9,0.1,1.4,0.1
										c0.5,0,1,0,1.5,0c1.9,0,3.8,0,5.7,0c7.5-0.1,14.4-0.1,20.8-0.2c3.2,0,6.3,0,9.2-0.1c0.7,0,1.5,0,2.1,0
										c0.7-0.1,1.4-0.3,1.9-0.7c1.2-0.7,1.9-1.9,2.2-3.2c0.1-0.6,0.1-1.3,0.1-1.9c0-0.6,0-1.3,0-1.9c0-0.6,0-1.2,0.1-1.8
										c0.1-0.6,0.3-1.2,0.6-1.7c0.6-1,1.5-1.8,2.5-2.2c1-0.5,2.1-0.3,3.1-0.4c4,0,7.5,0,10.2-0.1c2.8,0,4.9,0,6.3,0
										C166.3,22.3,167.1,22.3,167.1,22.3s-0.7,0-2.1,0c-1.4,0-3.5,0-6.3,0.1c-2.8,0-6.2,0.1-10.2,0.1c-1,0-2.1-0.1-3.1,0.4
										c-1,0.4-1.9,1.2-2.4,2.2c-0.3,0.5-0.5,1.1-0.6,1.6c-0.1,0.6-0.1,1.2-0.1,1.8c0,0.6,0,1.2,0,1.9c0,0.6,0,1.3-0.1,2
										c-0.3,1.3-1.1,2.6-2.3,3.3c-0.6,0.4-1.3,0.6-2,0.7c-0.7,0.1-1.4,0-2.2,0.1c-2.9,0-6,0.1-9.2,0.1
										c-6.4,0.1-13.3,0.1-20.8,0.2c-1.9,0-3.8,0-5.7,0.1c-0.5,0-1,0-1.5,0c-0.5,0-1,0-1.5-0.1c-1-0.2-1.9-0.8-2.6-1.6
										c-0.7-0.8-1.1-1.7-1.3-2.8c-0.1-0.5-0.1-1-0.1-1.5c0-0.5,0-1,0-1.5c0-1,0.1-2.1-0.3-3c-0.3-1-1-1.8-1.9-2.4
										c-0.9-0.6-1.9-0.8-3-0.8c-1.1,0-2.2,0-3.2,0c-2.2,0-4.4,0-6.6,0.1c-4.5,0-9.1,0.1-13.8,0.1c-2.3,0-4.7,0.4-6.9,1.4
										c-2.2,1-4.1,2.5-5.7,4.3c-1.5,1.9-2.6,4.2-3.2,6.6c-0.2,0.6-0.2,1.2-0.3,1.8c0,0.6-0.1,1.2-0.1,1.9c0,1.3,0,2.5,0,3.8
										c0.1,10.3,0.2,20.9,0.3,32c0.2,22.1,0.4,45.7,0.6,70.6c0.2,24.9,0.4,51,0.7,78c0.1,13.5,0.2,27.3,0.4,41.3
										c0.1,7,0.1,14,0.2,21.1c0,1.8,0,3.5,0,5.3c0,1.8,0.1,3.5,0.7,5.2c1,3.4,3.2,6.4,6.2,8.3c2.9,2,6.5,2.9,10.1,2.7
										c3.6,0,7.1-0.1,10.7-0.1c7.1-0.1,14.1-0.1,21.1-0.2c14-0.1,27.7-0.2,41.3-0.3c6.8-0.1,13.5-0.1,20.1-0.2
										c3.3,0,6.6,0,9.9-0.1c3.2-0.2,6.4-1.5,8.8-3.5c1.2-1,2.3-2.2,3.2-3.6c0.9-1.3,1.5-2.8,1.9-4.3c0.5-1.5,0.5-3.1,0.6-4.7
										c0-1.6,0-3.2,0-4.8c-0.1-6.4-0.1-12.7-0.2-18.9c-0.4-49.7-0.8-94.5-1.1-132.1c-0.3-37.6-0.5-68-0.7-89.1
										c0-2.6,0-5.1-0.1-7.4c0-2.3-0.4-4.5-1.2-6.3c-0.8-1.9-1.8-3.4-3-4.7c-1.2-1.2-2.4-2.2-3.6-2.9c-2.4-1.4-4.5-1.9-5.9-2
										c-0.7-0.1-1.2-0.1-1.6-0.1C167.2,22.3,167.1,22.3,167.1,22.3z"/>
								</g>
							</g>
						</g>
					</g>
				</g>
			</g>
		</g>
	</g>
	<g>
		<g>
			<g>
				<g>
					<g>
						
							<ellipse transform="matrix(0.9999 -1.706730e-02 1.706730e-02 0.9999 -0.7943 2.8148)" class="st1" cx="164.5" cy="47.9" rx="5.8" ry="0.1"/>
					</g>
				</g>
			</g>
		</g>
		<g>
			<g>
				<g>
					<g>
						
							<ellipse transform="matrix(0.9999 -1.706744e-02 1.706744e-02 0.9999 -0.8452 2.8162)" class="st1" cx="164.6" cy="50.9" rx="5.8" ry="0.1"/>
					</g>
				</g>
			</g>
		</g>
		<g>
			<g>
				<g>
					<g>
						
							<ellipse transform="matrix(0.9999 -1.706746e-02 1.706746e-02 0.9999 -0.8961 2.8175)" class="st1" cx="164.6" cy="53.9" rx="5.8" ry="0.1"/>
					</g>
				</g>
			</g>
		</g>
	</g>
	<g>
		<g>
			<g>
				<g>
					<path class="st1" d="M64.4,58.1c0,0,0.1,0,0.2,0c0.2,0,0.4,0,0.7,0c0.6,0,1.5,0,2.5-0.1l-0.1,0.1c0-0.6,0-1.2,0-1.8
						c0-0.3,0-0.7,0-1c0.1-0.4,0.4-0.7,0.8-0.8c0.4,0,0.8,0,1.2,0c0.4,0.1,0.8,0.5,0.8,1c0,0.8,0,1.7,0.1,2.6l-0.1-0.1
						c1,0,2.1,0,3.1-0.1L73.5,58c0-1.3,0-2.6-0.1-3.9c0-0.3,0-0.7,0-1c0-0.3-0.2-0.5-0.4-0.7c-0.5-0.5-0.9-0.9-1.4-1.3
						c-0.5-0.4-0.9-0.9-1.3-1.3c-0.2-0.2-0.4-0.4-0.6-0.6c-0.2-0.2-0.4-0.4-0.7-0.5c-0.2-0.1-0.5,0-0.7,0.1
						c-0.2,0.2-0.4,0.4-0.6,0.6c-0.4,0.4-0.8,0.8-1.1,1.1c-0.7,0.7-1.4,1.4-2,2.1c-0.2,0.4-0.1,0.8-0.1,1.2c0,0.4,0,0.8,0,1.1
						c0,0.7,0,1.3,0,1.8c0,0.5,0,0.8,0,1.1C64.4,58,64.4,58.1,64.4,58.1c0,0,0-0.1,0-0.4c0-0.3,0-0.7,0-1.1c0-0.5,0-1.1-0.1-1.8
						c0-0.4,0-0.7,0-1.1c0-0.2,0-0.4,0-0.6c0-0.2,0.1-0.5,0.2-0.7c0.6-0.7,1.3-1.4,2-2.1c0.4-0.4,0.7-0.8,1.1-1.2
						c0.2-0.2,0.4-0.4,0.6-0.6c0.2-0.2,0.6-0.3,0.9-0.2c0.3,0.1,0.6,0.3,0.8,0.5c0.2,0.2,0.4,0.4,0.6,0.6c0.4,0.4,0.9,0.9,1.3,1.3
						c0.5,0.4,0.9,0.9,1.4,1.3c0.1,0.1,0.2,0.2,0.4,0.4c0.1,0.2,0.2,0.3,0.2,0.5c0,0.3,0,0.7,0,1c0,1.3,0,2.6,0.1,3.9v0.1l-0.1,0
						c-1.1,0-2.1,0-3.1,0l-0.1,0l0-0.1c0-0.9,0-1.8,0-2.6c0-0.4-0.3-0.7-0.6-0.8c-0.4,0-0.8,0-1.1,0c-0.3,0-0.6,0.3-0.7,0.6
						c0,0.3,0,0.7,0,1c0,0.7,0,1.3,0,1.8v0.1h-0.1c-1,0-1.9,0-2.5,0c-0.3,0-0.5,0-0.7,0C64.5,58.2,64.4,58.2,64.4,58.1z"/>
				</g>
			</g>
		</g>
	</g>
	<g>
		<g>
			<g>
				<g>
					<g>
						<path class="st2" d="M161.7,93.1l-93.2,0.8c-4.7,0-8.5-3.7-8.5-8.4l0-3.1c0-4.7,3.7-8.5,8.4-8.5l93.2-0.8
							c4.7,0,8.5,3.7,8.5,8.4l0,3.1C170.1,89.2,166.4,93,161.7,93.1z"/>
					</g>
				</g>
			</g>
			<g>
				<g>
					<g>
						<g>
							<path class="st1" d="M161.7,93.1c0,0,0.2,0,0.6-0.1c0.4,0,1-0.1,1.8-0.4c0.8-0.3,1.7-0.7,2.6-1.4c0.9-0.7,1.9-1.8,2.5-3.2
								c0.3-0.7,0.6-1.5,0.6-2.3c0.1-0.8,0.1-1.8,0.1-2.7c0-0.9,0-1.9-0.2-2.9c-0.2-1-0.5-2-1.1-2.9c-1.1-1.8-3.1-3.4-5.6-3.8
								c-1.2-0.2-2.5-0.1-3.8-0.1c-1.3,0-2.7,0-4.1,0c-22.2,0.2-52.9,0.5-86.8,0.8c-2.1,0-4.1,0.8-5.6,2.3c-1.5,1.4-2.4,3.4-2.6,5.4
								c-0.1,1,0,2.1,0,3.1c0,1,0,2,0.3,3c0.5,1.9,1.8,3.6,3.5,4.6c0.8,0.5,1.7,0.9,2.7,1.1c0.9,0.2,1.9,0.2,2.9,0.2
								c2,0,3.9,0,5.8,0c3.8,0,7.6-0.1,11.3-0.1c14.7-0.1,27.9-0.2,39-0.3c11.1-0.1,20.1-0.1,26.3-0.2c3.1,0,5.5,0,7.2,0
								c0.8,0,1.4,0,1.9,0C161.5,93.1,161.7,93.1,161.7,93.1s-0.2,0-0.6,0c-0.4,0-1.1,0-1.9,0c-1.6,0-4.1,0.1-7.2,0.1
								c-6.2,0.1-15.2,0.2-26.3,0.3c-11.1,0.1-24.4,0.2-39,0.4C83,94,79.2,94,75.4,94c-1.9,0-3.9,0-5.8,0.1c-1,0-2,0-3-0.2
								c-1-0.2-2-0.6-2.8-1.2c-1.7-1.1-3-2.9-3.6-4.9c-0.3-1-0.4-2.1-0.4-3.1c0-1-0.1-2,0-3.1c0.2-2.1,1.1-4.2,2.7-5.6
								c1.6-1.5,3.7-2.4,5.9-2.4c33.9-0.3,64.6-0.5,86.8-0.7c1.4,0,2.7,0,4.1,0c1.3,0,2.6-0.1,3.9,0.1c2.5,0.5,4.6,2,5.7,3.9
								c0.6,1,1,2,1.1,3c0.2,1,0.1,2,0.1,3c0,0.9,0,1.9-0.1,2.7c-0.1,0.9-0.4,1.7-0.7,2.4c-0.6,1.4-1.6,2.5-2.6,3.2
								c-1,0.7-1.9,1.1-2.7,1.4c-0.8,0.2-1.4,0.3-1.8,0.3C161.9,93.1,161.7,93.1,161.7,93.1z"/>
						</g>
					</g>
				</g>
			</g>
		</g>
		<g>
			<g>
				<g>
					<g>
						<g>
							<path class="st1" d="M163.3,82.6c0,0,0-0.3-0.2-0.9c-0.2-0.5-0.5-1.3-1.3-1.9c-0.8-0.6-2.1-0.9-3.3-0.4
								c-1.2,0.4-2.2,1.7-2.2,3.2c0,1.5,1.1,2.8,2.3,3.2c1.2,0.4,2.5,0.1,3.3-0.5c0.8-0.6,1.2-1.4,1.3-1.9
								C163.3,82.9,163.3,82.6,163.3,82.6c0,0,0,0.1,0,0.2c0,0.2,0,0.4-0.1,0.7c-0.1,0.6-0.4,1.4-1.3,2.1c-0.8,0.7-2.2,1.1-3.6,0.6
								c-1.4-0.4-2.6-1.9-2.6-3.6c0-1.7,1.1-3.1,2.5-3.6c1.4-0.5,2.8-0.1,3.6,0.6c0.9,0.7,1.2,1.5,1.3,2.1c0.1,0.3,0.1,0.5,0.1,0.7
								C163.3,82.5,163.3,82.6,163.3,82.6z"/>
						</g>
					</g>
				</g>
			</g>
			<g>
				<g>
					<g>
						<g>
							
								<ellipse transform="matrix(0.7285 -0.6851 0.6851 0.7285 -15.1928 135.7882)" class="st1" cx="163.7" cy="87.1" rx="0.2" ry="2.4"/>
						</g>
					</g>
				</g>
			</g>
		</g>
		<g>
			<g>
				<g>
					<path class="st3" d="M74.8,81.8l-2,0l0-0.5l4.5,0l0,0.5l-2,0l0,5.1l-0.6,0L74.8,81.8z"/>
				</g>
			</g>
			<g>
				<g>
					<path class="st3" d="M81.4,84.9l-3.5,0c0.1,0.9,0.7,1.5,1.7,1.4c0.5,0,1-0.2,1.3-0.6l0.3,0.4c-0.4,0.4-1,0.7-1.6,0.7
						c-1.3,0-2.2-0.9-2.2-2.1c0-1.2,0.9-2.1,2-2.1c1.2,0,2,0.9,2.1,2.1C81.4,84.8,81.4,84.9,81.4,84.9z M77.9,84.5l3,0
						c-0.1-0.8-0.7-1.4-1.5-1.4C78.6,83.1,78,83.7,77.9,84.5z"/>
				</g>
			</g>
			<g>
				<g>
					<path class="st3" d="M85.2,86.8l-1.3-1.7l-1.3,1.8l-0.6,0l1.6-2.2l-1.6-2l0.6,0l1.3,1.6l1.2-1.7l0.6,0l-1.6,2.1l1.7,2.1
						L85.2,86.8z"/>
				</g>
			</g>
			<g>
				<g>
					<path class="st3" d="M89,86.5c-0.2,0.2-0.6,0.3-0.9,0.3c-0.8,0-1.2-0.4-1.2-1.2l0-2.5l-0.8,0l0-0.5l0.8,0l0-0.9l0.6,0l0,0.9
						l1.3,0l0,0.5l-1.3,0l0,2.5c0,0.5,0.3,0.8,0.7,0.8c0.2,0,0.5-0.1,0.6-0.2L89,86.5z"/>
				</g>
			</g>
		</g>
	</g>
	<g>
		<g>
			<g>
				
					<rect x="65" y="110.5" transform="matrix(1 -8.806196e-03 8.806196e-03 1 -1.0758 0.6829)" class="st4" width="24.1" height="24.1"/>
			</g>
		</g>
	</g>
	<g>
		<g>
			<g>
				<g>
					
						<ellipse transform="matrix(1 -8.782736e-03 8.782736e-03 1 -0.9838 1.0347)" class="st4" cx="117.3" cy="112.5" rx="18" ry="0.2"/>
				</g>
			</g>
		</g>
	</g>
	<g>
		<g>
			<g>
				<g>
					
						<ellipse transform="matrix(1 -8.817892e-03 8.817892e-03 1 -1.0512 1.1663)" class="st1" cx="131.7" cy="119.8" rx="32.3" ry="0.2"/>
				</g>
			</g>
		</g>
	</g>
	<g>
		<g>
			<g>
				<g>
					
						<ellipse transform="matrix(1 -8.816564e-03 8.816564e-03 1 -1.0975 1.1634)" class="st1" cx="131.4" cy="125.1" rx="32" ry="0.2"/>
				</g>
			</g>
		</g>
	</g>
	<g>
		<g>
			<g>
				<g>
					
						<ellipse transform="matrix(1 -8.812595e-03 8.812595e-03 1 -1.1429 1.0481)" class="st1" cx="118.4" cy="130.2" rx="18.9" ry="0.2"/>
				</g>
			</g>
		</g>
	</g>
	<g>
		<g>
			<g>
				
					<rect x="65.3" y="150.4" transform="matrix(1 -8.806610e-03 8.806610e-03 1 -1.4279 0.6876)" class="st4" width="24.1" height="24.1"/>
			</g>
		</g>
	</g>
	<g>
		<g>
			<g>
				<g>
					<g>
						
							<ellipse transform="matrix(1 -8.782487e-03 8.782487e-03 1 -1.3363 1.0394)" class="st5" cx="117.7" cy="152.7" rx="18" ry="0.2"/>
					</g>
				</g>
			</g>
		</g>
		<g>
			<g>
				<g>
					<g>
						
							<ellipse transform="matrix(1 -8.816142e-03 8.816142e-03 1 -1.4048 1.1707)" class="st1" cx="132.1" cy="159.9" rx="32.3" ry="0.2"/>
					</g>
				</g>
			</g>
		</g>
		<g>
			<g>
				<g>
					<g>
						
							<ellipse transform="matrix(1 -8.816564e-03 8.816564e-03 1 -1.4514 1.168)" class="st1" cx="131.8" cy="165.2" rx="32" ry="0.2"/>
					</g>
				</g>
			</g>
		</g>
		<g>
			<g>
				<g>
					<g>
						
							<ellipse transform="matrix(1 -8.812595e-03 8.812595e-03 1 -1.4966 1.0527)" class="st1" cx="118.7" cy="170.3" rx="18.9" ry="0.2"/>
					</g>
				</g>
			</g>
		</g>
	</g>
	<g>
		<g>
			<g>
				<g>
					
						<rect x="65.7" y="190.6" transform="matrix(1 -8.806610e-03 8.806610e-03 1 -1.7813 0.6922)" class="st6" width="24.1" height="24.1"/>
				</g>
			</g>
		</g>
	</g>
	<g>
		<g>
			<g>
				<g>
					<g>
						
							<ellipse transform="matrix(1 -8.814175e-03 8.814175e-03 1 -1.6948 1.0478)" class="st5" cx="118" cy="192.8" rx="18" ry="0.2"/>
					</g>
				</g>
			</g>
		</g>
		<g>
			<g>
				<g>
					<g>
						
							<ellipse transform="matrix(1 -8.815988e-03 8.815988e-03 1 -1.7586 1.1754)" class="st1" cx="132.4" cy="200.1" rx="32.3" ry="0.2"/>
					</g>
				</g>
			</g>
		</g>
		<g>
			<g>
				<g>
					<g>
						
							<ellipse transform="matrix(1 -8.816564e-03 8.816564e-03 1 -1.8053 1.1727)" class="st1" cx="132.1" cy="205.3" rx="32" ry="0.2"/>
					</g>
				</g>
			</g>
		</g>
		<g>
			<g>
				<g>
					<g>
						
							<ellipse transform="matrix(1 -8.842340e-03 8.842340e-03 1 -1.8565 1.061)" class="st1" cx="119.1" cy="210.5" rx="18.9" ry="0.2"/>
					</g>
				</g>
			</g>
		</g>
	</g>
	<g>
		<g>
			<g>
				
					<rect x="66" y="230.7" transform="matrix(1 -8.853160e-03 8.853160e-03 1 -2.1461 0.7007)" class="st5" width="24.1" height="24.1"/>
			</g>
		</g>
	</g>
	<g>
		<g>
			<g>
				<g>
					<g>
						
							<ellipse transform="matrix(1 -8.814178e-03 8.814178e-03 1 -2.0486 1.0525)" class="st7" cx="118.4" cy="232.9" rx="18" ry="0.2"/>
					</g>
				</g>
			</g>
		</g>
		<g>
			<g>
				<g>
					<g>
						
							<ellipse transform="matrix(1 -8.815833e-03 8.815833e-03 1 -2.1124 1.18)" class="st1" cx="132.8" cy="240.2" rx="32.3" ry="0.2"/>
					</g>
				</g>
			</g>
		</g>
		<g>
			<g>
				<g>
					<g>
						<path class="st1" d="M164.4,245.2c0,0.1-14.3,0.3-32,0.5c-17.7,0.2-32,0.2-32,0.1c0-0.1,14.3-0.3,32-0.5
							C150.1,245.1,164.4,245.1,164.4,245.2z"/>
					</g>
				</g>
			</g>
		</g>
		<g>
			<g>
				<g>
					<g>
						
							<ellipse transform="matrix(1 -8.812354e-03 8.812354e-03 1 -2.204 1.0621)" class="st1" cx="119.4" cy="250.6" rx="18.9" ry="0.2"/>
					</g>
				</g>
			</g>
		</g>
	</g>
	<g>
		<g>
			<g>
				<g>
					<linearGradient id="SVGID_1_" gradientUnits="userSpaceOnUse" x1="66.2688" y1="282.8896" x2="90.5731" y2="282.8896">
						<stop  offset="0" style="stop-color:#704091"/>
						<stop  offset="1" style="stop-color:#45277C"/>
					</linearGradient>
					<polygon class="st8" points="90.6,294.8 66.5,295 66.3,271 90.4,270.7 					"/>
				</g>
			</g>
		</g>
	</g>
	<g>
		<g>
			<g>
				<g>
					<g>
						
							<ellipse transform="matrix(1 -8.814452e-03 8.814452e-03 1 -2.4024 1.0572)" class="st3" cx="118.7" cy="273.1" rx="18" ry="0.2"/>
					</g>
				</g>
			</g>
		</g>
		<g>
			<g>
				<g>
					<g>
						
							<ellipse transform="matrix(1 -8.815833e-03 8.815833e-03 1 -2.4662 1.1847)" class="st9" cx="133.1" cy="280.3" rx="32.3" ry="0.2"/>
					</g>
				</g>
			</g>
		</g>
		<g>
			<g>
				<g>
					<g>
						
							<ellipse transform="matrix(1 -8.816407e-03 8.816407e-03 1 -2.5129 1.1821)" class="st9" cx="132.8" cy="285.6" rx="32" ry="0.2"/>
					</g>
				</g>
			</g>
		</g>
		<g>
			<g>
				<g>
					<g>
						
							<ellipse transform="matrix(1 -8.842604e-03 8.842604e-03 1 -2.5664 1.0704)" class="st9" cx="119.8" cy="290.8" rx="18.9" ry="0.2"/>
					</g>
				</g>
			</g>
		</g>
	</g>
	<g>
		<g>
			<g>
				<g>
					
						<rect x="66" y="230.7" transform="matrix(1 -8.853160e-03 8.853160e-03 1 -2.1461 0.7007)" class="st6" width="24.1" height="24.1"/>
				</g>
			</g>
		</g>
	</g>
	<g>
		<g>
			<g>
				<g>
					<path class="st0" d="M449,297.6l-13.4-0.1c-1.8,0-3.3,1.5-3.3,3.4l0,2.4c0,1.9-1.5,3.4-3.3,3.4l-26.1-0.2
						c-1.8,0-3.2-1.5-3.2-3.4l0-2.4c0-1.9-1.4-3.4-3.2-3.4l-4.7,0l-11.7-0.1c-5.8,0-10.6,4.6-10.6,10.4l-1,108.6
						c0,5.8,4.6,10.5,10.5,10.6l68.9,0.5c5.8,0,10.6-4.6,10.6-10.4l1-108.6C459.5,302.4,454.8,297.6,449,297.6z"/>
					<g>
						<path class="st1" d="M449,297.6c0.2,0,0.5,0,1.1,0.1c0.7,0.1,1.8,0.3,3.2,0.9c1.3,0.6,2.9,1.6,4.1,3.3
							c1.3,1.7,2.2,4.1,2.1,6.9c-0.1,11-0.2,26.9-0.4,46.5c-0.1,9.8-0.2,20.6-0.3,32.1c0,5.8-0.1,11.7-0.2,17.9
							c0,3.1-0.1,6.2-0.1,9.4c0,1.6,0.1,3.2-0.4,4.8c-0.4,1.6-1.1,3.1-2.2,4.3c-1.1,1.2-2.4,2.2-4,2.9c-1.5,0.7-3.2,0.9-4.9,0.8
							c-3.3,0-6.7,0-10.1-0.1c-6.8,0-13.7-0.1-20.8-0.1c-7.1,0-14.2-0.1-21.5-0.1c-3.6,0-7.3-0.1-11-0.1c-1.9,0-3.7,0-5.6-0.1
							c-1.9-0.1-3.7-0.8-5.3-1.9c-1.5-1.1-2.8-2.6-3.6-4.3c-0.8-1.7-1-3.6-1-5.5c0-3.7,0.1-7.4,0.1-11c0.1-7.3,0.1-14.5,0.2-21.5
							c0.1-14.1,0.3-27.7,0.4-40.7c0.1-6.5,0.1-12.8,0.2-19c0-3.1,0.1-6.1,0.1-9.1c0-1.5,0-3,0-4.4c0-1.5,0-2.9,0.3-4.4
							c0.7-2.8,2.6-5.3,5.1-6.6c1.2-0.7,2.6-1.1,3.9-1.3c1.4-0.1,2.7-0.1,4.1-0.1c2.7,0,5.3,0,7.9,0.1c1.3,0,2.6,0,3.8,0
							c0.6,0,1.3,0,1.9,0c0.6,0,1.3,0.1,1.8,0.5c1.1,0.6,1.7,1.9,1.7,3.1c0,0.6,0,1.2,0,1.8c0,0.6,0,1.2,0.2,1.7
							c0.4,1.1,1.3,1.9,2.4,2.1c1.1,0.1,2.2,0,3.3,0.1c4.4,0,8.6,0.1,12.5,0.1c3.9,0,7.5,0.1,10.9,0.1c1.7,0,3-1.5,3.1-3
							c0-0.8,0-1.5,0-2.2c0-0.7,0-1.5,0.4-2.1c0.6-1.3,2-2,3.2-1.9c1.2,0,2.4,0,3.4,0c2.1,0,3.9,0,5.3,0
							C447.4,297.6,448.6,297.6,449,297.6c-0.4,0-1.6,0-4.4,0c-1.4,0-3.2,0-5.3,0c-1.1,0-2.2,0-3.4,0c-1.2-0.1-2.5,0.6-3.1,1.8
							c-0.3,0.6-0.4,1.3-0.3,2c0,0.7,0,1.5,0,2.2c-0.1,1.5-1.5,3.1-3.2,3.1c-3.3,0-7,0-10.9-0.1c-3.9,0-8.1,0-12.5-0.1
							c-1.1,0-2.2,0-3.4-0.1c-1.2-0.2-2.2-1.1-2.5-2.2c-0.2-0.6-0.2-1.2-0.2-1.8c0-0.6,0-1.2,0-1.8c0-1.2-0.6-2.4-1.6-3
							c-0.5-0.3-1.1-0.4-1.7-0.4c-0.6,0-1.2,0-1.9,0c-1.3,0-2.5,0-3.8,0c-2.6,0-5.2,0-7.9-0.1c-1.3,0-2.7-0.1-4,0.1
							c-1.3,0.2-2.7,0.6-3.9,1.3c-2.4,1.4-4.3,3.7-5,6.5c-0.4,1.4-0.3,2.8-0.3,4.3c0,1.5,0,2.9,0,4.4c0,3-0.1,6-0.1,9.1
							c-0.1,6.1-0.1,12.5-0.2,19c-0.1,13-0.2,26.6-0.4,40.7c-0.1,7.1-0.1,14.2-0.2,21.5c0,3.6-0.1,7.3-0.1,11
							c-0.1,1.8,0.1,3.7,0.9,5.4c0.8,1.7,2,3.1,3.5,4.2c1.5,1,3.3,1.7,5.2,1.8c1.8,0.1,3.7,0,5.6,0.1c3.7,0,7.4,0.1,11,0.1
							c7.3,0.1,14.5,0.1,21.5,0.2c7.1,0.1,14,0.1,20.8,0.1c3.4,0,6.8,0,10.1,0.1c1.7,0,3.3-0.2,4.8-0.8c1.5-0.6,2.8-1.6,3.9-2.8
							c1.1-1.2,1.8-2.7,2.2-4.2c0.4-1.5,0.3-3.1,0.3-4.7c0-3.2,0.1-6.3,0.1-9.4c0.1-6.1,0.1-12.1,0.2-17.9
							c0.1-11.5,0.2-22.3,0.3-32.1c0.2-19.6,0.3-35.5,0.5-46.5c0.1-2.7-0.8-5.2-2.1-6.8c-1.2-1.7-2.8-2.7-4.1-3.3
							c-1.3-0.6-2.4-0.8-3.1-0.9C449.5,297.6,449.2,297.6,449,297.6z"/>
					</g>
				</g>
			</g>
		</g>
	</g>
	
		<rect x="377.6" y="328.6" transform="matrix(1 2.397430e-03 -2.397430e-03 1 0.8495 -0.9916)" class="st4" width="72.8" height="50.6"/>
	<g>
		<g>
			
				<ellipse transform="matrix(2.403428e-03 -1 1 2.403428e-03 59.2647 766.9193)" class="st0" cx="414" cy="353.8" rx="10.6" ry="10.6"/>
		</g>
	</g>
	<g>
		<g>
			<polygon class="st6" points="411.4,353.7 411.4,349 415.5,351.4 419.7,353.8 415.5,356.1 411.4,358.5 			"/>
		</g>
	</g>
	<g>
		<g>
			<g>
				<g>
					<path class="st1" d="M385.4,386.6l0-0.8c0-0.1,0.1-0.1,0.1-0.1l0.7,0.4l0.7,0.4c0.1,0,0.1,0.1,0,0.2l-0.7,0.4l-0.7,0.4
						c-0.1,0-0.1,0-0.1-0.1L385.4,386.6z"/>
				</g>
			</g>
			<g>
				<g>
					<path class="st1" d="M392,386l-0.6,0c-0.1,0-0.1,0-0.1,0.1l0,0.5l0,0.5c0,0.1,0,0.1,0.1,0.1l0.6,0l0.9,0.9l0-1.6l0-1.6L392,386
						z"/>
				</g>
			</g>
			<g>
				<g>
					<path class="st1" d="M387.5,387.6L387.5,387.6c-0.1,0-0.2-0.1-0.2-0.2l0-1.6c0-0.1,0.1-0.2,0.2-0.2l0,0c0.1,0,0.2,0.1,0.2,0.2
						l0,1.6C387.7,387.5,387.6,387.6,387.5,387.6z"/>
				</g>
			</g>
		</g>
		<g>
			<g>
				<path class="st1" d="M393.3,385.7l0,0.3l0,1.5l0,0.3c0.4-0.2,0.7-0.5,0.7-1C394,386.2,393.7,385.8,393.3,385.7z"/>
			</g>
		</g>
		<g>
			<g>
				<g>
					<path class="st1" d="M393.3,384.9l0,0.4c0.6,0.2,1,0.7,1,1.3c0,0.6-0.4,1.2-1,1.3l0,0.4c0.8-0.2,1.4-0.9,1.4-1.7
						C394.8,385.8,394.2,385.1,393.3,384.9z"/>
				</g>
			</g>
		</g>
		<g>
			<g>
				<path class="st1" d="M398.5,386l0,1.9h-0.3l0-1.7l-0.4,0V386L398.5,386z"/>
			</g>
			<g>
				<path class="st1" d="M398.9,386.7c0-0.1,0.1-0.2,0.2-0.2c0.1,0,0.2,0.1,0.2,0.2c0,0.1-0.1,0.2-0.2,0.2
					C398.9,386.8,398.9,386.8,398.9,386.7z M398.9,387.8c0-0.1,0.1-0.2,0.2-0.2c0.1,0,0.2,0.1,0.2,0.2c0,0.1-0.1,0.2-0.2,0.2
					C398.9,387.9,398.9,387.9,398.9,387.8z"/>
			</g>
			<g>
				<path class="st1" d="M399.5,387c0-0.6,0.3-1,0.8-1c0.4,0,0.8,0.4,0.8,1c0,0.6-0.3,1-0.8,1C399.8,388,399.5,387.6,399.5,387z
					 M400.8,387c0-0.5-0.2-0.7-0.5-0.7c-0.3,0-0.5,0.2-0.5,0.7c0,0.5,0.2,0.7,0.5,0.7C400.6,387.7,400.8,387.5,400.8,387z"/>
			</g>
			<g>
				<path class="st1" d="M401.9,386l0,1.9l-0.3,0l0-1.7h-0.4l0-0.2L401.9,386z"/>
			</g>
			<g>
				<path class="st1" d="M403.8,385.6l0.2,0l-0.9,2.6h-0.2L403.8,385.6z"/>
			</g>
			<g>
				<path class="st1" d="M406.3,387.4c0,0.3-0.3,0.6-0.8,0.6c-0.5,0-0.8-0.2-0.8-0.6c0-0.2,0.1-0.4,0.3-0.5
					c-0.2-0.1-0.3-0.2-0.3-0.4c0-0.3,0.3-0.5,0.7-0.5c0.4,0,0.7,0.2,0.7,0.5c0,0.2-0.1,0.3-0.3,0.4
					C406.2,387,406.3,387.2,406.3,387.4z M406,387.4c0-0.2-0.2-0.3-0.5-0.3c-0.3,0-0.5,0.1-0.5,0.3c0,0.2,0.2,0.4,0.5,0.4
					C405.8,387.7,406,387.6,406,387.4z M405.1,386.5c0,0.2,0.2,0.3,0.4,0.3c0.3,0,0.4-0.1,0.4-0.3c0-0.2-0.2-0.3-0.4-0.3
					C405.3,386.2,405.1,386.3,405.1,386.5z"/>
			</g>
			<g>
				<path class="st1" d="M406.5,386.7c0-0.1,0.1-0.2,0.2-0.2c0.1,0,0.2,0.1,0.2,0.2c0,0.1-0.1,0.2-0.2,0.2
					C406.6,386.9,406.5,386.8,406.5,386.7z M406.5,387.8c0-0.1,0.1-0.2,0.2-0.2c0.1,0,0.2,0.1,0.2,0.2c0,0.1-0.1,0.2-0.2,0.2
					C406.6,388,406.5,387.9,406.5,387.8z"/>
			</g>
			<g>
				<path class="st1" d="M407.1,387c0-0.6,0.3-1,0.8-1c0.4,0,0.8,0.4,0.8,1c0,0.6-0.3,1-0.8,1C407.5,388,407.1,387.6,407.1,387z
					 M408.4,387c0-0.5-0.2-0.7-0.5-0.7c-0.3,0-0.5,0.2-0.5,0.7c0,0.5,0.2,0.7,0.5,0.7C408.2,387.7,408.4,387.5,408.4,387z"/>
			</g>
			<g>
				<path class="st1" d="M409,387c0-0.6,0.3-1,0.8-1c0.4,0,0.8,0.4,0.8,1c0,0.6-0.3,1-0.8,1C409.3,388,409,387.6,409,387z
					 M410.3,387c0-0.5-0.2-0.7-0.5-0.7c-0.3,0-0.5,0.2-0.5,0.7c0,0.5,0.2,0.7,0.5,0.7C410.1,387.7,410.3,387.5,410.3,387z"/>
			</g>
		</g>
		<g>
			<g>
				<path class="st1" d="M378.4,387.6L378.4,387.6c-0.2,0-0.3-0.1-0.3-0.3l0-1.7c0-0.2,0.1-0.3,0.3-0.3l0,0c0.2,0,0.3,0.1,0.3,0.3
					l0,1.7C378.7,387.5,378.6,387.6,378.4,387.6z"/>
			</g>
		</g>
		<g>
			<g>
				<path class="st1" d="M379.9,387.6L379.9,387.6c-0.2,0-0.3-0.1-0.3-0.3l0-1.7c0-0.2,0.1-0.3,0.3-0.3l0,0c0.2,0,0.3,0.1,0.3,0.3
					l0,1.7C380.2,387.5,380.1,387.6,379.9,387.6z"/>
			</g>
		</g>
	</g>
	<g>
		<g>
			<path class="st3" d="M450,383.7l-71.8-0.2c-0.4,0-0.7-0.3-0.7-0.7l0,0c0-0.4,0.3-0.7,0.7-0.7l71.8,0.2c0.4,0,0.7,0.3,0.7,0.7l0,0
				C450.7,383.4,450.4,383.7,450,383.7z"/>
		</g>
	</g>
	<g>
		<g>
			<path class="st4" d="M404.6,383.6l-26.4-0.1c-0.4,0-0.7-0.3-0.7-0.7l0,0c0-0.4,0.3-0.7,0.7-0.7l26.4,0.1c0.3,0,0.6,0.3,0.6,0.6
				l0,0.2C405.2,383.3,404.9,383.6,404.6,383.6z"/>
		</g>
	</g>
	<g>
		<g>
			
				<ellipse transform="matrix(2.059993e-03 -1 1 2.059993e-03 20.8341 786.7166)" class="st4" cx="404.6" cy="382.9" rx="1.3" ry="1.3"/>
		</g>
	</g>
	<g>
		
			<ellipse transform="matrix(2.390608e-03 -1 1 2.390608e-03 16.9581 809.713)" class="st1" cx="414.3" cy="396.4" rx="0.3" ry="35.8"/>
	</g>
	<g>
		
			<ellipse transform="matrix(2.389025e-03 -1 1 2.389025e-03 9.8587 816.7631)" class="st1" cx="414.3" cy="403.4" rx="0.3" ry="35.8"/>
	</g>
	<g>
		
			<ellipse transform="matrix(2.390645e-03 -1 1 2.390645e-03 2.7579 823.812)" class="st1" cx="414.3" cy="410.5" rx="0.3" ry="35.8"/>
	</g>
	<g>
		<g>
			<g>
				<g>
					<path class="st0" d="M449.5,102.1l-13.4-0.1c-1.8,0-3.3,1.5-3.3,3.4l0,2.4c0,1.9-1.5,3.4-3.3,3.4l-26.1-0.1
						c-1.8,0-3.2-1.5-3.2-3.4l0-2.4c0-1.9-1.4-3.4-3.2-3.4l-4.7,0l-11.7-0.1c-5.8,0-10.6,4.7-10.6,10.5l-0.7,168.5
						c0,5.8,4.7,10.5,10.5,10.6l68.9,0.3c5.8,0,10.6-4.7,10.6-10.5l0.7-168.5C460,106.8,455.3,102.1,449.5,102.1z"/>
					<g>
						<path class="st1" d="M449.5,102.1c0.1,0,0.2,0,0.4,0c0.2,0,0.6,0,1.1,0.1c0.9,0.1,2.3,0.4,3.9,1.4c1.6,0.9,3.3,2.6,4.4,5.1
							c0.5,1.2,0.8,2.7,0.8,4.3c0,1.6,0,3.2,0,5c-0.1,14-0.1,34.3-0.2,59.3c-0.1,25.1-0.2,54.9-0.3,88c0,4.1,0,8.3-0.1,12.6
							c-0.1,2.1,0.2,4.3-0.5,6.4c-0.3,1-0.8,2-1.4,2.9c-0.6,0.9-1.4,1.7-2.2,2.4c-1.7,1.3-3.9,2.2-6.1,2.2c-2.2,0-4.4,0-6.6,0
							c-4.4,0-8.9,0-13.4-0.1c-9,0-18.2-0.1-27.5-0.1c-4.7,0-9.3,0-14.1-0.1c-2.4,0-4.7,0-7.1,0c-2.4,0.1-4.8-0.5-6.8-1.9
							c-2-1.4-3.5-3.4-4.2-5.7c-0.4-1.1-0.4-2.4-0.4-3.6c0-1.2,0-2.4,0-3.5c0-4.7,0-9.4,0.1-14.1c0-9.3,0.1-18.5,0.1-27.5
							c0.1-18,0.2-35.4,0.2-52c0.1-16.6,0.1-32.3,0.2-47c0-7.4,0.1-14.5,0.1-21.3c0-1.7-0.1-3.4,0.3-5.1c0.4-1.6,1.2-3.2,2.3-4.4
							c1.1-1.2,2.4-2.2,3.9-2.8c1.5-0.6,3.1-0.8,4.7-0.8c3.1,0,6.2,0,9.2,0c1.5,0,3,0,4.4,0c0.7,0,1.4,0,2.2,0c0.7,0,1.5,0.2,2,0.6
							c0.6,0.4,1,1,1.2,1.7c0.2,0.7,0.2,1.4,0.2,2.1c0,0.7,0,1.4,0,2c0.1,0.7,0.4,1.3,0.8,1.8c0.4,0.5,1,0.8,1.6,1
							c0.6,0.1,1.3,0.1,1.9,0.1c1.3,0,2.6,0,3.8,0c5,0,9.6,0.1,13.9,0.1c2.1,0,4.2,0,6.1,0c0.5,0,1,0,1.4,0c0.5-0.1,0.9-0.2,1.3-0.5
							c0.8-0.5,1.3-1.3,1.5-2.1c0.1-0.8,0.1-1.7,0.1-2.5c0-0.8,0.1-1.7,0.5-2.3c0.4-0.7,1-1.2,1.7-1.5c0.7-0.3,1.4-0.2,2.1-0.2
							c2.7,0,5,0,6.8,0C447.4,102.1,449.1,102.1,449.5,102.1c-0.4,0-2.1,0-5.6,0c-1.8,0-4.1,0-6.8,0c-0.7,0-1.4-0.1-2.1,0.2
							c-0.7,0.3-1.3,0.8-1.6,1.4c-0.4,0.7-0.5,1.5-0.5,2.3c0,0.8,0.1,1.7-0.1,2.6c-0.2,0.9-0.7,1.7-1.5,2.2
							c-0.4,0.3-0.9,0.4-1.3,0.5c-0.5,0-1,0-1.4,0c-1.9,0-4,0-6.1,0c-4.3,0-8.9,0-13.9-0.1c-1.2,0-2.5,0-3.8,0c-0.6,0-1.3,0-2-0.1
							c-0.7-0.1-1.3-0.5-1.7-1c-0.5-0.5-0.8-1.1-0.9-1.8c-0.1-0.7,0-1.4,0-2c0-0.7,0.1-1.4-0.2-2c-0.2-0.6-0.6-1.2-1.2-1.6
							c-1.1-0.9-2.7-0.5-4.1-0.6c-1.4,0-2.9,0-4.4,0c-3,0-6,0-9.2,0c-1.6,0-3.1,0.2-4.6,0.8c-1.5,0.6-2.8,1.6-3.9,2.8
							c-1.1,1.2-1.8,2.7-2.2,4.3c-0.4,1.6-0.3,3.3-0.3,5c0,6.8-0.1,13.9-0.1,21.3c-0.1,14.7-0.1,30.5-0.2,47
							c-0.1,16.6-0.1,33.9-0.2,52c0,9-0.1,18.2-0.1,27.5c0,4.7,0,9.3-0.1,14.1c0,1.2,0,2.4,0,3.5c0,1.2,0.1,2.4,0.4,3.5
							c0.7,2.2,2.1,4.3,4.1,5.6c2,1.4,4.3,2,6.7,1.9c2.4,0,4.7,0,7.1,0c4.7,0,9.4,0,14.1,0.1c9.3,0,18.5,0.1,27.5,0.1
							c4.5,0,9,0,13.4,0.1c2.2,0,4.4,0,6.6,0c2.2-0.1,4.3-0.9,6-2.2c0.8-0.7,1.6-1.5,2.2-2.3c0.6-0.9,1-1.9,1.4-2.9
							c0.6-2,0.4-4.2,0.5-6.3c0-4.2,0-8.4,0.1-12.6c0.2-33.1,0.3-62.9,0.4-88c0.1-25,0.2-45.3,0.3-59.3c-0.1-3.5,0.4-6.7-0.7-9.2
							c-1-2.5-2.8-4.1-4.3-5.1c-1.6-1-3-1.3-3.9-1.4c-0.5-0.1-0.8-0.1-1.1-0.1C449.6,102.1,449.5,102.1,449.5,102.1z"/>
					</g>
				</g>
			</g>
		</g>
		<g>
			<g>
				<ellipse class="st1" cx="415.7" cy="126.5" rx="32.5" ry="0.3"/>
			</g>
		</g>
	</g>
	<rect x="386.2" y="235" class="st4" width="59.1" height="41"/>
	<g>
		<g>
			<g>
				<g>
					<g>
						<g>
							<g>
								<g>
									<path class="st0" d="M326.6,143.3l-20.1,0c-2.7,0-4.9,2.3-4.9,5.1l0,3.6c0,2.8-2.2,5.1-4.9,5.1l-39.1,0
										c-2.7,0-4.9-2.3-4.9-5.1l0-3.6c0-2.8-2.2-5.1-4.9-5.1l-7.1,0l-17.6,0c-8.7,0-15.8,7.1-15.8,15.8l-0.1,253.2
										c0,8.7,7.1,15.8,15.8,15.8l103.3,0.1c8.7,0,15.8-7.1,15.8-15.8l0-253.2C342.4,150.4,335.3,143.3,326.6,143.3z"/>
								</g>
								<g>
									<g>
										<path class="st1" d="M326.6,143.3c0,0,0.2,0,0.5,0c0.4,0,0.9,0,1.6,0.1c1.4,0.2,3.5,0.6,5.9,2c1.2,0.7,2.4,1.7,3.6,2.9
											c1.2,1.3,2.2,2.8,3,4.7c0.8,1.9,1.2,4.1,1.2,6.4c0,2.3,0,4.8,0,7.4c0,21,0,51.5,0.1,89.1c0,37.6,0,82.4,0,132.1
											c0,6.2,0,12.5,0,18.9c0,1.6,0,3.2,0,4.8c0,1.6-0.1,3.3-0.6,4.8c-0.5,1.6-1.1,3.1-2,4.4c-0.9,1.4-2,2.6-3.3,3.6
											c-2.6,2.1-5.8,3.4-9.1,3.5c-3.3,0.1-6.6,0-9.9,0c-6.6,0-13.3,0-20.1,0c-13.5,0-27.3,0-41.3,0c-7,0-14,0-21.1,0
											c-3.5,0-7.1,0-10.7,0c-3.6,0.2-7.3-0.8-10.3-2.8c-3-2.1-5.2-5.2-6.3-8.6c-0.6-1.7-0.7-3.6-0.7-5.3c0-1.8,0-3.6,0-5.3
											c0-7.1,0-14.1,0-21.1c0-14,0-27.7,0-41.3c0-27.1,0-53.2,0-78c0-24.9,0-48.5,0-70.6c0-11.1,0-21.7,0-32c0-1.3,0-2.6,0-3.8
											c0-0.6,0.1-1.3,0.1-1.9c0.1-0.6,0.2-1.3,0.3-1.9c0.6-2.5,1.7-4.8,3.3-6.7c1.6-1.9,3.6-3.4,5.9-4.4c2.2-1,4.7-1.4,7-1.3
											c4.7,0,9.3,0,13.8,0c2.2,0,4.4,0,6.6,0c1.1,0,2.2,0,3.2,0c1.1-0.1,2.2,0.2,3.1,0.9c0.9,0.6,1.6,1.5,1.9,2.5
											c0.4,1,0.3,2.1,0.3,3.1c0,0.5,0,1,0,1.5c0,0.5,0,1,0,1.5c0.1,1,0.5,1.9,1.2,2.6c0.6,0.7,1.5,1.3,2.4,1.5
											c0.5,0.1,0.9,0.1,1.4,0.1c0.5,0,1,0,1.5,0c1.9,0,3.8,0,5.7,0c7.5,0,14.4,0,20.8,0c3.2,0,6.3,0,9.2,0c0.7,0,1.5,0,2.1,0
											c0.7-0.1,1.4-0.3,1.9-0.7c1.2-0.7,1.9-1.9,2.2-3.2c0.1-0.6,0.1-1.3,0.1-1.9c0-0.6,0-1.3,0-1.9c0-0.6,0-1.2,0.1-1.8
											c0.1-0.6,0.3-1.2,0.6-1.7c0.6-1,1.5-1.8,2.5-2.2c1-0.5,2.1-0.3,3.1-0.3c4,0,7.5,0,10.2,0c2.8,0,4.9,0,6.3,0
											C325.9,143.3,326.6,143.3,326.6,143.3s-0.7,0-2.1,0c-1.4,0-3.5,0-6.3,0c-2.8,0-6.2,0-10.2,0c-1,0-2.1-0.1-3.1,0.3
											c-1,0.4-1.9,1.2-2.4,2.2c-0.3,0.5-0.5,1.1-0.6,1.6c-0.1,0.6-0.1,1.2-0.1,1.8c0,0.6,0,1.2,0,1.9c0,0.6,0,1.3-0.1,2
											c-0.3,1.3-1.1,2.5-2.3,3.3c-0.6,0.4-1.3,0.6-2,0.7c-0.7,0.1-1.4,0-2.2,0c-2.9,0-6,0-9.2,0c-6.4,0-13.3,0-20.8,0
											c-1.9,0-3.8,0-5.7,0c-0.5,0-1,0-1.5,0c-0.5,0-1,0-1.5-0.1c-1-0.2-1.9-0.8-2.6-1.6c-0.7-0.8-1.1-1.8-1.2-2.8
											c-0.1-0.5-0.1-1-0.1-1.5c0-0.5,0-1,0-1.5c0-1,0.1-2.1-0.3-3c-0.3-1-1-1.8-1.8-2.4c-0.9-0.6-1.9-0.9-2.9-0.8
											c-1.1,0-2.2,0-3.2,0c-2.2,0-4.4,0-6.6,0c-4.5,0-9.1,0-13.8,0c-2.3,0-4.7,0.3-6.9,1.3c-2.2,1-4.2,2.4-5.7,4.3
											c-1.6,1.9-2.7,4.1-3.2,6.6c-0.2,0.6-0.2,1.2-0.3,1.8c0,0.6-0.1,1.2-0.1,1.9c0,1.3,0,2.5,0,3.8c0,10.3,0,20.9,0,32
											c0,22.1,0,45.7,0,70.6c0,24.9,0,51,0,78c0,13.5,0,27.3,0,41.3c0,7,0,14,0,21.1c0,1.8,0,3.5,0,5.3c0,1.8,0.1,3.5,0.6,5.2
											c1,3.4,3.2,6.4,6.1,8.4c2.9,2,6.5,2.9,10,2.8c3.6,0,7.1,0,10.7,0c7.1,0,14.1,0,21.1,0c14,0,27.7,0,41.3,0
											c6.8,0,13.5,0,20.1,0c3.3,0,6.6,0.1,9.9,0c3.2-0.2,6.4-1.4,8.9-3.4c1.2-1,2.3-2.2,3.2-3.6c0.9-1.3,1.5-2.8,2-4.3
											c0.5-1.5,0.6-3.1,0.6-4.7c0-1.6,0-3.2,0-4.8c0-6.4,0-12.7,0-18.9c0-49.7,0.1-94.5,0.1-132.1c0-37.6,0.1-68,0.1-89.1
											c0-2.6,0-5.1,0-7.4c0-2.3-0.4-4.5-1.2-6.4c-0.8-1.9-1.8-3.4-3-4.7c-1.2-1.3-2.4-2.2-3.6-2.9c-2.4-1.4-4.5-1.9-5.9-2.1
											c-0.7-0.1-1.2-0.1-1.6-0.1C326.8,143.3,326.6,143.3,326.6,143.3z"/>
									</g>
								</g>
							</g>
						</g>
					</g>
				</g>
			</g>
		</g>
		<g>
			<g>
				<g>
					<g>
						<g>
							
								<ellipse transform="matrix(1 -8.253108e-03 8.253108e-03 1 -1.3969 2.6798)" class="st1" cx="324" cy="170.6" rx="5.8" ry="0.1"/>
						</g>
					</g>
				</g>
			</g>
			<g>
				<g>
					<g>
						<g>
							
								<ellipse transform="matrix(1 -8.340393e-03 8.340393e-03 1 -1.4364 2.7085)" class="st1" cx="324" cy="173.6" rx="5.8" ry="0.1"/>
						</g>
					</g>
				</g>
			</g>
			<g>
				<g>
					<g>
						<g>
							
								<ellipse transform="matrix(1 -8.350196e-03 8.350196e-03 1 -1.463 2.712)" class="st1" cx="324" cy="176.6" rx="5.8" ry="0.1"/>
						</g>
					</g>
				</g>
			</g>
		</g>
		<g>
			<g>
				<g>
					<g>
						<path class="st1" d="M218.9,178.4c0,0,0.1,0,0.2,0c0.2,0,0.4,0,0.7,0c0.6,0,1.5,0,2.5-0.1l-0.1,0.1c0-0.6,0-1.2,0-1.8
							c0-0.3,0-0.7,0-1c0.1-0.4,0.4-0.7,0.8-0.8c0.4,0,0.8,0,1.2,0c0.4,0.1,0.8,0.5,0.8,1c0,0.8,0,1.7,0,2.6l-0.1-0.1
							c1,0,2.1,0,3.1,0l-0.1,0.1c0-1.3,0-2.6,0-3.9c0-0.3,0-0.7,0-1c0-0.3-0.2-0.5-0.4-0.7c-0.5-0.5-0.9-0.9-1.4-1.4
							c-0.4-0.4-0.9-0.9-1.3-1.3c-0.2-0.2-0.4-0.4-0.6-0.6c-0.2-0.2-0.4-0.4-0.6-0.5c-0.2-0.1-0.5,0-0.7,0.1
							c-0.2,0.2-0.4,0.4-0.6,0.6c-0.4,0.4-0.8,0.8-1.1,1.1c-0.7,0.7-1.4,1.4-2,2c-0.2,0.4-0.1,0.8-0.2,1.2c0,0.4,0,0.8,0,1.1
							c0,0.7,0,1.3,0,1.8c0,0.5,0,0.8,0,1.1C219,178.3,219,178.4,218.9,178.4c0,0,0-0.1,0-0.4c0-0.3,0-0.7,0-1.1c0-0.5,0-1.1,0-1.8
							c0-0.4,0-0.7,0-1.1c0-0.2,0-0.4,0-0.6c0-0.2,0.1-0.5,0.2-0.7c0.6-0.7,1.3-1.3,2-2.1c0.4-0.4,0.7-0.8,1.1-1.1
							c0.2-0.2,0.4-0.4,0.6-0.6c0.2-0.2,0.6-0.3,0.9-0.2c0.3,0.1,0.6,0.3,0.8,0.5c0.2,0.2,0.4,0.4,0.6,0.6c0.4,0.4,0.9,0.9,1.3,1.3
							c0.5,0.4,0.9,0.9,1.4,1.4c0.1,0.1,0.2,0.2,0.4,0.4c0.1,0.2,0.2,0.3,0.2,0.5c0,0.3,0,0.7,0,1c0,1.3,0,2.6,0,3.9v0.1h-0.1
							c-1.1,0-2.1,0-3.1,0l-0.1,0v-0.1c0-0.9,0-1.8,0-2.6c0-0.4-0.3-0.7-0.6-0.8c-0.4,0-0.8,0-1.1,0c-0.3,0-0.6,0.3-0.7,0.6
							c0,0.3,0,0.7,0,1c0,0.7,0,1.3,0,1.8v0.1h-0.1c-1,0-1.9,0-2.5,0c-0.3,0-0.5,0-0.7,0C219,178.4,218.9,178.4,218.9,178.4z"/>
					</g>
				</g>
			</g>
		</g>
	</g>
	<g>
		<g>
			<g>
				<rect x="225.4" y="340" class="st5" width="24.1" height="24.1"/>
			</g>
		</g>
	</g>
	<g>
		<g>
			<g>
				<g>
					<ellipse class="st4" cx="277.8" cy="342.6" rx="18" ry="0.2"/>
				</g>
			</g>
		</g>
	</g>
	<g>
		<g>
			<g>
				<g>
					<ellipse class="st1" cx="292.2" cy="350" rx="32.3" ry="0.2"/>
				</g>
			</g>
		</g>
	</g>
	<g>
		<g>
			<g>
				<g>
					<ellipse class="st1" cx="291.8" cy="355.2" rx="32" ry="0.2"/>
				</g>
			</g>
		</g>
	</g>
	<g>
		<g>
			<g>
				<g>
					<ellipse class="st1" cx="278.7" cy="360.3" rx="18.9" ry="0.2"/>
				</g>
			</g>
		</g>
	</g>
	<g>
		<g>
			<g>
				<rect x="225.4" y="340" class="st4" width="24.1" height="24.1"/>
			</g>
		</g>
	</g>
	<g>
		<g>
			<g>
				<rect x="225.4" y="379.2" class="st5" width="24.1" height="24.1"/>
			</g>
		</g>
	</g>
	<g>
		<g>
			<g>
				<g>
					<ellipse class="st4" cx="277.8" cy="381.8" rx="18" ry="0.2"/>
				</g>
			</g>
		</g>
	</g>
	<g>
		<g>
			<g>
				<g>
					<ellipse class="st1" cx="292.2" cy="389.2" rx="32.3" ry="0.2"/>
				</g>
			</g>
		</g>
	</g>
	<g>
		<g>
			<g>
				<g>
					<ellipse class="st1" cx="291.8" cy="394.5" rx="32" ry="0.2"/>
				</g>
			</g>
		</g>
	</g>
	<g>
		<g>
			<g>
				<g>
					<ellipse class="st1" cx="278.7" cy="399.5" rx="18.9" ry="0.2"/>
				</g>
			</g>
		</g>
	</g>
	<g>
		<g>
			<g>
				<rect x="225.4" y="379.2" class="st4" width="24.1" height="24.1"/>
			</g>
		</g>
	</g>
	<g class="st10">
		<g>
			
				<rect x="248" y="203.6" transform="matrix(5.570040e-03 -1 1 5.570040e-03 33.6803 515.2079)" class="st4" width="55.8" height="74.2"/>
		</g>
	</g>
	<g>
		<g>
			<polygon class="st4" points="237.7,268.4 263.8,233.8 279.7,255.6 290.7,244.1 311.9,268.8 			"/>
		</g>
	</g>
	<g>
		<g>
			<g>
				<g>
					
						<ellipse transform="matrix(5.480643e-03 -1 1 5.480643e-03 49.618 509.2366)" class="st4" cx="280.8" cy="229.7" rx="5.8" ry="5.8"/>
				</g>
			</g>
		</g>
	</g>
	<g class="st11">
		<g>
			<polygon class="st4" points="237.7,268.4 263.8,233.8 279.7,255.6 290.7,244.1 311.9,268.8 			"/>
		</g>
	</g>
	<g class="st11">
		<g>
			<g>
				<g>
					
						<ellipse transform="matrix(5.480643e-03 -1 1 5.480643e-03 49.618 509.2366)" class="st4" cx="280.8" cy="229.7" rx="5.8" ry="5.8"/>
				</g>
			</g>
		</g>
	</g>
	<g>
		<path class="st1" d="M323.1,279.4c0,0.2-21.6,0.3-48.1,0.3c-26.6,0-48.1-0.1-48.1-0.3c0-0.2,21.5-0.3,48.1-0.3
			C301.5,279.1,323.1,279.2,323.1,279.4z"/>
	</g>
	<g>
		<path class="st1" d="M323.1,285.6c0,0.2-21.6,0.3-48.1,0.3c-26.6,0-48.1-0.1-48.1-0.3c0-0.2,21.5-0.3,48.1-0.3
			C301.5,285.3,323.1,285.5,323.1,285.6z"/>
	</g>
	<path class="st4" d="M290.6,315.7h-31.4c-4.5,0-8.2-3.7-8.2-8.2l0,0c0-4.5,3.7-8.2,8.2-8.2h31.4c4.5,0,8.2,3.7,8.2,8.2l0,0
		C298.8,312,295.2,315.7,290.6,315.7z"/>
	<g>
		<path class="st3" d="M341,323.8c0,0.2-29.7,0.3-66.3,0.3c-36.6,0-66.3-0.1-66.3-0.3c0-0.2,29.7-0.3,66.3-0.3
			C311.4,323.5,341,323.7,341,323.8z"/>
	</g>
	<g>
		<ellipse class="st4" cx="274.9" cy="199" rx="27.3" ry="0.3"/>
	</g>
	<circle class="st4" cx="305.9" cy="307.4" r="1.8"/>
	<g>
		<path class="st12" d="M380.1,189.5c0,0-0.1,0-0.4,0c-0.3,0-0.7,0-1.3,0c-1.2,0-2.8,0-5,0.1c-4.4,0-10.7,0.1-18.5,0.1l0.2-0.2
			c0,17.3,0,42.6,0,70.8c0,17.2-0.1,33.4-0.1,47.2v0.3l-0.3,0c-14.6,0-26.8-0.1-35.3-0.1c-4.2,0-7.6-0.1-9.9-0.1c-1.1,0-2,0-2.6,0
			c-0.3,0-0.5,0-0.7,0c-0.2,0-0.2,0-0.2,0c0,0,0.1,0,0.2,0c0.2,0,0.4,0,0.7,0c0.6,0,1.5,0,2.6,0c2.3,0,5.7,0,9.9-0.1
			c8.6,0,20.8-0.1,35.3-0.1l-0.3,0.3c0-13.8,0-29.9,0.1-47.2c0.1-28.1,0.2-53.4,0.2-70.8v-0.2l0.2,0c7.9,0,14.1,0.1,18.5,0.1
			c2.1,0,3.8,0,5,0.1c0.5,0,1,0,1.3,0C380,189.5,380.1,189.5,380.1,189.5z"/>
	</g>
	<g>
		<g>
			<circle class="st0" cx="415.7" cy="255.4" r="8.6"/>
		</g>
	</g>
	<g>
		<g>
			<polygon class="st6" points="413.6,255.4 413.6,251.6 417,253.5 420.3,255.4 417,257.4 413.6,259.3 			"/>
		</g>
	</g>
	<g class="st10">
		<g>
			
				<rect x="392.7" y="129" transform="matrix(5.564537e-03 -1 1 5.564537e-03 254.1289 572.1269)" class="st4" width="44" height="58.6"/>
		</g>
	</g>
	<g>
		<g>
			<polygon class="st4" points="384.6,180.1 405.2,152.9 417.7,170.1 426.4,161 443.1,180.5 			"/>
		</g>
	</g>
	<g>
		<g>
			<g>
				<g>
					
						<ellipse transform="matrix(5.506889e-03 -1 1 5.506889e-03 266.7162 567.4059)" class="st4" cx="418.6" cy="149.6" rx="4.6" ry="4.6"/>
				</g>
			</g>
		</g>
	</g>
	<g>
		<rect x="392.1" y="188.9" class="st7" width="45.4" height="3"/>
	</g>
	<g>
		<g>
			<ellipse class="st1" cx="414.8" cy="200.6" rx="32.5" ry="0.3"/>
		</g>
	</g>
	<g>
		<g>
			<ellipse class="st1" cx="414.8" cy="208.9" rx="32.5" ry="0.3"/>
		</g>
	</g>
	<g>
		<g>
			<ellipse class="st1" cx="414.8" cy="217.2" rx="32.5" ry="0.3"/>
		</g>
	</g>
	<g>
		<g>
			<ellipse class="st1" cx="414.8" cy="225.5" rx="32.5" ry="0.3"/>
		</g>
	</g>
	<circle class="st4" cx="380.1" cy="189.5" r="1.8"/>
	<g>
		<ellipse class="st4" cx="415.7" cy="281.6" rx="1.7" ry="1.5"/>
		<ellipse class="st4" cx="415.7" cy="322" rx="1.7" ry="1.5"/>
		<g>
			<ellipse class="st4" cx="415.7" cy="301.8" rx="0.3" ry="20.2"/>
		</g>
	</g>
	<g>
		<path class="st12" d="M274.8,184.8c0,0,0-0.1,0-0.3c0-0.2,0-0.5,0-0.9c0-0.8,0-2,0-3.5c0-3.1,0-7.5-0.1-13
			c0-11.1-0.1-26.7-0.1-44.6l0.3,0.3c-6.3,0-12.9,0-19.7,0c-22.6,0-43.1-0.1-58-0.1c-7.4,0-13.4-0.1-17.6-0.1c-2,0-3.7,0-4.8-0.1
			c-0.5,0-0.9,0-1.2,0c-0.3,0-0.4,0-0.4,0c0,0,0.1,0,0.4,0c0.3,0,0.7,0,1.2,0c1.1,0,2.7,0,4.8-0.1c4.2,0,10.2-0.1,17.6-0.1
			c14.9,0,35.4-0.1,58-0.1c6.8,0,13.5,0,19.7,0h0.3v0.3c0,17.9-0.1,33.4-0.1,44.6c0,5.5-0.1,9.9-0.1,13c0,1.5,0,2.7,0,3.5
			c0,0.4,0,0.7,0,0.9C274.8,184.7,274.8,184.8,274.8,184.8z"/>
	</g>
	<circle class="st4" cx="274.8" cy="184.8" r="1.8"/>
	<circle class="st4" cx="173" cy="122.6" r="1.8"/>
	<g>
		<g>
			<g>
				<path class="st13" d="M139.8,125.5l5.6,7.3c0,0,2.7,4.2,0.6,5.1c-1.9,0.8-3.1-1.6-3.1-1.6s-1.2-5.4-3.5-4.1
					c-0.3,0.2,0.2,4,0.6,5.9c0.1,0.7,0.5,1.3,1.1,1.8l6.2,4.8c1.2,0.9,2.5,1.4,4,1.6l2.2,0.3l1.8,3.6l10-4.1l-8-10.3l-4.3-6.6
					c-0.6-0.6-1.5-0.8-2.3-0.6l-1,0.3l-0.7-0.7c-0.4-0.4-1.1-0.6-1.7-0.4l-0.6,0.2l-1.7-1.7c-0.6-0.6-4.4-4.1-5.1-3.8
					C139.8,122.6,138.4,123.7,139.8,125.5z"/>
			</g>
		</g>
		<g>
			<g>
				<g>
					<path class="st14" d="M151.1,132.5c0,0-0.2-0.4-0.6-0.8c-0.4-0.5-1.1-0.9-2.1-1.1c-0.8-0.7-1.3-1.3-1.7-1.8
						c-0.4-0.5-0.5-0.9-0.5-0.9c0,0,0.2,0.3,0.6,0.8c0.4,0.5,1,1.2,1.6,1.8c0.2,0.1,0.4,0.1,0.7,0.2c0.2,0.1,0.4,0.2,0.6,0.3
						c0.4,0.2,0.6,0.5,0.8,0.7c0.2,0.2,0.3,0.5,0.4,0.6C151.1,132.4,151.1,132.5,151.1,132.5z"/>
				</g>
			</g>
		</g>
		<g>
			<g>
				<g>
					<path class="st14" d="M152.3,131c0,0-0.1-0.2-0.3-0.4c-0.2-0.2-0.7-0.4-1.2-0.2l-0.1,0l0,0c0,0-0.1-0.1-0.1-0.1
						c-0.8-0.8-1.4-1.5-1.3-1.6c0,0,0.7,0.6,1.5,1.4c0,0,0.1,0.1,0.1,0.1l-0.1,0c0.5-0.2,1.1,0,1.3,0.3
						C152.3,130.8,152.3,131,152.3,131z"/>
				</g>
			</g>
		</g>
	</g>
	<g>
		<g>
			<g>
				<polygon class="st0" points="140.8,445.5 137.3,478 154.7,480.3 158.4,447.7 				"/>
			</g>
		</g>
	</g>
	<g>
		<g>
			<g>
				<polygon class="st4" points="137.5,475.8 155,478 154.7,480.3 137.3,478 				"/>
			</g>
		</g>
	</g>
	<g>
		<g>
			<g>
				<g>
					<path class="st4" d="M155.9,469.9c0,0-0.1-0.3-0.4-0.8c-0.3-0.5-0.7-1.1-1.4-1.8c-0.7-0.7-1.5-1.5-2.6-2.2
						c-1.1-0.7-2.5-1.2-4-1.4c-3-0.3-5.7,0.9-7.1,2.2c-0.7,0.7-1.2,1.3-1.5,1.8c-0.3,0.5-0.4,0.7-0.4,0.8c0.1,0.1,0.6-1,2.1-2.2
						c1.4-1.2,4-2.3,6.8-2c2.9,0.3,5.1,2,6.4,3.3C155.2,468.9,155.8,469.9,155.9,469.9z"/>
				</g>
			</g>
		</g>
	</g>
	<g>
		<g>
			<g>
				<g>
					<path class="st4" d="M135,469.9c0,0-0.1-0.3-0.4-0.8c-0.3-0.5-0.7-1.1-1.4-1.8c-0.7-0.7-1.5-1.5-2.6-2.2
						c-1.1-0.7-2.5-1.2-4-1.4c-3-0.3-5.7,0.9-7.1,2.2c-0.7,0.7-1.2,1.3-1.5,1.8c-0.3,0.5-0.4,0.7-0.4,0.8c0.1,0.1,0.6-1,2.1-2.2
						c1.4-1.2,4-2.3,6.8-2c2.9,0.3,5.1,2,6.4,3.3C134.3,468.9,134.9,469.9,135,469.9z"/>
				</g>
			</g>
		</g>
	</g>
	<g class="st15">
		<g>
			<g>
				<polygon class="st4" points="157.3,457 156.9,460.6 139.4,458.2 139.7,455.5 				"/>
			</g>
		</g>
	</g>
	<g>
		<g>
			<g>
				<polygon class="st4" points="117,478.1 134.6,477.6 134.7,479.9 117.1,480.3 				"/>
			</g>
		</g>
	</g>
	<g class="st15">
		<g>
			<g>
				<polygon class="st4" points="133.7,456.5 133.9,460.1 116.2,460.4 116.1,457.7 				"/>
			</g>
		</g>
	</g>
	<path class="st6" d="M135.4,376l-0.7-89.3H100c0,0-2.7,22.2-1.4,31.1c1.3,8.9,10.5,58.3,10.5,58.3s3,65.6,4.5,82.4l21.7-2
		L135.4,376z"/>
	<path class="st6" d="M156.6,267.8c0,0,10.8,9.2,13.2,24.8c2.4,15.5-4.9,77.7-4.9,77.7l-6.1,86.2h-21.4l0.7-83l-3.7-61.8l-2.4-19.6
		L156.6,267.8z"/>
	<g>
		<path class="st7" d="M137.6,369.1c0,0-0.1-0.2-0.1-0.5c0-0.4-0.1-0.9-0.1-1.5c-0.1-1.4-0.2-3.4-0.4-5.7c-0.3-4.8-0.7-11.4-1-18.8
			c-0.3-7.3-0.6-14-0.6-18.8c0-2.4,0-4.3,0-5.7c0-0.6,0-1.1,0-1.5c0-0.4,0-0.5,0.1-0.5s0,0.2,0.1,0.5c0,0.4,0,0.9,0.1,1.5
			c0.1,1.4,0.1,3.4,0.2,5.7c0.2,4.9,0.5,11.5,0.8,18.8c0.3,7.3,0.6,13.9,0.9,18.8c0.1,2.3,0.2,4.3,0.2,5.7c0,0.6,0,1.1,0,1.5
			C137.7,368.9,137.6,369.1,137.6,369.1z"/>
	</g>
	<g>
		<path class="st7" d="M163.8,374.1c0,0.1-1.2-0.1-3.1-0.2c-1.9-0.1-4.6-0.2-7.5,0.1c-2.9,0.3-5.5,0.8-7.4,1.3c-1.9,0.5-3,0.9-3,0.8
			c0-0.1,1.1-0.6,2.9-1.2c1.9-0.6,4.5-1.2,7.5-1.5c3-0.3,5.7-0.2,7.6,0.1C162.7,373.7,163.8,374,163.8,374.1z"/>
	</g>
	<g>
		<path class="st7" d="M129.5,374.9c0,0.1-1-0.2-2.7-0.5c-1.7-0.3-4-0.4-6.5,0.1c-2.5,0.4-4.7,1.3-6.2,2.1c-1.5,0.8-2.3,1.4-2.4,1.3
			c0,0,0.7-0.8,2.2-1.7c1.5-0.9,3.7-1.9,6.3-2.3c2.6-0.4,5-0.3,6.7,0.1C128.6,374.4,129.5,374.9,129.5,374.9z"/>
	</g>
	<g>
		<path class="st7" d="M129.7,376.1c0.1,0.1-2.7,1.5-6.4,2.4c-3.7,0.9-6.7,1.1-6.7,0.9c0-0.2,3-0.6,6.6-1.5
			C126.8,377,129.7,375.9,129.7,376.1z"/>
	</g>
	<g>
		<path class="st7" d="M136.5,315.2c0,0-0.3,0.3-0.8,0.9c-0.3,0.3-0.6,0.6-1,1c-0.4,0.4-0.9,0.8-1.4,1.2c-1.1,0.9-2.4,1.8-4.1,2.7
			c-1.6,0.9-3.5,1.7-5.7,2.1l0,0c-0.3,0.1-0.7,0.2-1,0.2c-4.5,1-8.7,0.6-11.6,0c-1.5-0.3-2.6-0.7-3.4-1c-0.8-0.3-1.2-0.5-1.2-0.6
			c0-0.1,1.7,0.6,4.6,1.2c2.9,0.6,7,0.8,11.4-0.1c0.3-0.1,0.7-0.2,1-0.2l0,0l0,0c2-0.3,3.9-1.2,5.5-2c1.6-0.8,3-1.8,4.1-2.6
			C135.2,316.3,136.4,315.1,136.5,315.2z"/>
	</g>
	<g>
		<path class="st7" d="M143.8,293.2c0,0,0.1,0.4,0.2,1c0.1,0.7,0.3,1.6,0.5,2.7c0.4,2.4,1,5.6,1.8,9.5l-0.2-0.2
			c2.8,1.1,5.9,2.2,9.3,3.5l-0.3,0.1c1.5-1.9,3.1-4,4.7-6.1c0.4-0.5,0.8-1,1.1-1.5l-0.1,0.2c-0.5-4.6-1-8.9-1.4-12.7l0.4,0.2
			c-2.2,1.2-4.5,1.6-6.4,2.1c-2,0.4-3.7,0.7-5.1,0.8c-1.4,0.2-2.6,0.3-3.3,0.3C144.2,293.2,143.8,293.2,143.8,293.2
			c0,0,0.4-0.1,1.2-0.2c0.8-0.1,1.9-0.3,3.3-0.5c1.4-0.2,3.1-0.5,5.1-0.9c1.9-0.5,4.2-1,6.3-2.1l0.3-0.2l0,0.4
			c0.5,3.8,1,8.1,1.5,12.7l0,0.1l-0.1,0.1c-0.4,0.5-0.8,1-1.1,1.5c-1.6,2.1-3.2,4.2-4.7,6.1l-0.1,0.2l-0.2-0.1
			c-3.4-1.3-6.5-2.5-9.3-3.6l-0.1-0.1l0-0.1c-0.6-4-1.2-7.3-1.5-9.7c-0.2-1.1-0.3-2-0.4-2.6C143.8,293.4,143.8,293.1,143.8,293.2z"
			/>
	</g>
	<g>
		<path class="st7" d="M124.7,296.2c0,0,0,0.3,0,0.9c0,0.7-0.1,1.6-0.1,2.7c-0.1,2.4-0.3,5.8-0.5,9.8l0,0.1l-0.1,0.1
			c-2.6,1.4-5.6,2.9-8.8,4.6l-0.2,0.1l-0.1-0.2c-1.7-1.7-3.5-3.6-5.3-5.5c-0.4-0.4-0.9-0.9-1.3-1.3l-0.1-0.1l0-0.1
			c0-4.6,0.1-9,0.1-12.8l0-0.4l0.4,0.1c2.2,0.9,4.5,1.2,6.4,1.4c2,0.2,3.7,0.3,5.1,0.4c1.4,0.1,2.5,0.1,3.3,0.1
			C124.3,296.2,124.8,296.2,124.7,296.2c0,0-0.4,0.1-1.2,0.1c-0.8,0-1.9,0-3.3,0c-1.4,0-3.2-0.1-5.2-0.3c-2-0.2-4.3-0.4-6.6-1.3
			l0.4-0.2c0,3.8,0,8.2,0,12.8l-0.1-0.2c0.4,0.4,0.9,0.9,1.3,1.3c1.9,1.9,3.6,3.8,5.3,5.5L115,314c3.2-1.6,6.2-3.2,8.9-4.5l-0.1,0.2
			c0.3-4,0.5-7.3,0.7-9.6c0.1-1.1,0.2-2,0.2-2.7C124.7,296.6,124.7,296.3,124.7,296.2z"/>
	</g>
	<g>
		<path class="st7" d="M134.8,311.5c-0.1,0-0.4-0.9-0.7-2.5c-0.3-1.6-0.6-3.8-0.8-6.2c-0.1-2.4-0.1-4.7,0-6.2
			c0.1-1.6,0.3-2.6,0.4-2.6c0.2,0-0.1,3.9,0.2,8.8C134.2,307.6,135,311.4,134.8,311.5z"/>
	</g>
	<g>
		<path class="st7" d="M163.8,316.8c0,0-0.3,0.2-0.9,0.4c-0.6,0.2-1.4,0.5-2.5,0.8c-2.1,0.6-5.1,1.2-8.5,1.2c-3.4,0-6.4-0.6-8.5-1.2
			c-1.1-0.3-1.9-0.6-2.5-0.8c-0.6-0.2-0.9-0.4-0.9-0.4c0-0.1,1.3,0.4,3.4,0.9c2.1,0.5,5.1,1,8.4,1c3.3,0,6.3-0.5,8.4-1
			C162.5,317.2,163.8,316.7,163.8,316.8z"/>
	</g>
	<path class="st4" d="M109.8,175.5c0,0-15.6,8.5-20.2,10.5l6.2,29.8l9.8,35.8l-6.6,37.8c0,0,23.2,4.1,34.5,2.6
		c15.5-2,35.3-7.7,35.3-7.7l-15.4-46l3.9-31.8l-6.6-26.8l-16.1-1.9L109.8,175.5z"/>
	<g class="st15">
		<path d="M102.4,205.3c1.1,2.1,3.5,3.1,5.7,3.7c2.3,0.6,4.7,1.1,6.5,2.6c3.1,2.7,3.1,7.9,6,10.9c1.9,1.9,4.9,2.7,7.4,1.8
			c1.6-0.5,3-1.7,4.7-1.8c1.2-0.1,2.3,0.3,3.5,0.2c3.3-0.2,5.2-3.7,6.5-6.8c1.4-3.1,2.8-6.5,2.4-9.9c-0.5-5.1-4.7-9.2-5.4-14.3
			c-0.2-1.9,0-3.8-0.2-5.7c-0.2-1.9-1-3.9-2.8-4.7"/>
	</g>
	<path class="st4" d="M164.7,171.8l-12.1-24.2l9.7-6.2c0,0,12.1,12.5,14.4,15c0,0,14,12.9,10.3,19.1c-3.1,5.3-8,9.4-8,9.4
		L164.7,171.8z"/>
	<path class="st4" d="M89.6,186c-0.2,0.6-32.5,45.3-34.2,50c-0.1,0.3-0.2,0.5-0.3,0.8c-1.9,6.2-0.3,12.9,4.1,17.7l26.6,29.7
		l11.6-13.5l-18.5-32.6l17.7-19.5L89.6,186z"/>
	<path class="st13" d="M109.8,272.8c-1.1,0.1-3,1.6-3.9,2.3c-0.3,0.2-0.7,0.3-1,0.3l0,0c-0.6,0-1.1-0.5-1.3-1l-1.2-3.9
		c-1.2,0.1-2.2,0.8-2.8,1.8l-1.3,2.2l-2.2-2.1l-10.4,11.8c0,0,4.1,4.4,6.7,4.5c2.6,0.1,14.7-9.9,14.7-9.9l3.2-2.8
		C110.4,275.8,113,272.6,109.8,272.8z"/>
	<path class="st4" d="M143.4,178.8l9.2,0.4l13-10l18.5,10.1c0,0-8.3,8.9-16.1,18c-6.3,7.4-10.8,12-10.8,12L143.4,178.8z"/>
	<g>
		<path class="st1" d="M152,257.4c0,0-0.4,0.5-1.3,1.4c-0.9,0.9-2.2,2.1-3.8,3.5c-3.3,2.9-8.2,6.6-13.9,10.1
			c-5.8,3.4-11.3,5.9-15.5,7.5c-2.1,0.8-3.7,1.4-4.9,1.7c-1.2,0.4-1.8,0.5-1.8,0.5c0,0,0.6-0.3,1.8-0.7c1.2-0.4,2.8-1,4.8-1.9
			c4.1-1.6,9.6-4.2,15.3-7.6c5.7-3.4,10.6-7.1,14-9.9c1.7-1.4,3-2.6,3.9-3.4C151.4,257.8,151.9,257.4,152,257.4z"/>
	</g>
	<g>
		
			<ellipse transform="matrix(0.5429 -0.8398 0.8398 0.5429 -170.1311 214.9489)" class="st1" cx="112.4" cy="263.8" rx="13.8" ry="0.3"/>
	</g>
	<g>
		<path class="st1" d="M156,206.9c-0.1,0-0.1-1.3-0.2-3.4c-0.1-2.1-0.3-5-0.5-8.2c-0.3-3.2-0.7-6.1-1.1-8.2
			c-0.4-2.1-0.8-3.3-0.7-3.3c0.1,0,0.7,1.2,1.1,3.3c0.5,2.1,0.9,5,1.3,8.2c0.3,3.2,0.4,6.2,0.4,8.3C156.2,205.6,156,206.9,156,206.9
			z"/>
	</g>
	<g>
		<path class="st1" d="M178.2,170.2c0,0.1-0.8-0.3-2.1-0.9c-1.3-0.5-3.2-1.1-5.3-1.2c-2.1-0.1-4,0.5-5.2,1.2
			c-1.2,0.7-1.8,1.4-1.9,1.3c0,0,0.4-0.8,1.6-1.7c1.2-0.9,3.2-1.5,5.4-1.5c2.2,0,4.2,0.7,5.5,1.4
			C177.5,169.5,178.2,170.1,178.2,170.2z"/>
	</g>
	<g>
		<path class="st1" d="M172.3,165c0,0.2-2.6-0.1-5.1,1.6c-2.5,1.6-3.3,4.1-3.5,4c-0.1,0,0.1-0.6,0.5-1.5c0.5-0.9,1.3-2.1,2.7-2.9
			c1.3-0.9,2.8-1.2,3.8-1.2C171.7,164.8,172.3,164.9,172.3,165z"/>
	</g>
	<g class="st15">
		<path d="M120.9,246.7c-0.2-1.1-0.9-2.2-1.9-2.2c-1.2-0.1-2,1.3-2.5,2.4c-3.8,8.9-7.5,17.9-11.3,26.8l-0.4,1.7
			c4.5-7.2,9.1-14.1,13.6-21.3C119.9,251.8,121.4,249.3,120.9,246.7z"/>
	</g>
	<g class="st15">
		<path d="M163.7,170.2c1.4-2,2.6-4.4,5-4.9c2.4-0.5,5,0,7.2,1.3c0.5,0.3,1,0.8,0.8,1.3c-0.1,0.4-0.6,0.6-1,0.7
			c-2.1,0.5-4.4-0.1-6.5-0.4c-2.2-0.3-3.9,0.7-5.3,2.3"/>
	</g>
	<g>
		<path class="st1" d="M94.7,213.9c-0.1,0-0.6-1.1-1.3-3.1c-0.7-2-1.6-4.7-2.3-7.8c-0.7-3.1-1.2-6-1.4-8c-0.2-2.1-0.3-3.4-0.2-3.4
			c0.1,0,0.3,1.3,0.6,3.3c0.3,2.1,0.9,4.9,1.6,8c0.7,3.1,1.5,5.8,2.2,7.8C94.4,212.6,94.8,213.9,94.7,213.9z"/>
	</g>
	<g>
		<g>
			<g>
				<g>
					<g>
						<g>
							<g>
								<g>
									<g>
										<path class="st13" d="M111.6,184.5l22.9,0.3l-2.1-20.7c0,0,1.7,0.8,2-7.6c0.3-8.5,1.1-22.9,1.1-22.9l0,0
											c-9.7-4.5-21.1-3.4-29.7,2.9l-1.3,0.9L111.6,184.5z"/>
									</g>
								</g>
							</g>
						</g>
					</g>
				</g>
			</g>
		</g>
		<g>
			<g>
				<g>
					<g>
						<g>
							<g>
								<path class="st13" d="M106.9,148c-0.1-0.1-5.8-1.9-5.8,3.9c0,5.8,5.8,4.6,5.9,4.4C107,156.1,106.9,148,106.9,148z"/>
							</g>
						</g>
					</g>
				</g>
			</g>
		</g>
		<g>
			<g>
				<g>
					<g>
						<g>
							<g>
								<path class="st13" d="M134.1,147.5c0.1-0.1,5.4-1.3,5,4.5c-0.3,5.8-6.1,4.3-6.1,4.1C133.1,155.9,134.1,147.5,134.1,147.5z"
									/>
							</g>
						</g>
					</g>
				</g>
			</g>
		</g>
	</g>
	<linearGradient id="SVGID_2_" gradientUnits="userSpaceOnUse" x1="101.3793" y1="148.4661" x2="137.518" y2="148.4661">
		<stop  offset="0" style="stop-color:#704091"/>
		<stop  offset="1" style="stop-color:#45277C"/>
	</linearGradient>
	<path class="st16" d="M120.5,123.4c0,0-7.9-0.3-10.7,1.2c-4.7,2.4-8.3,9.1-8.4,17.4c-0.1,8.3,3.7,19.5,9.7,25
		c6.1,5.5,10.9,6.6,10.9,6.6s12.8-7,14.3-17.3c1.4-10.2,2.4-20.1-1.6-25.1C130.7,126.2,123.4,123.6,120.5,123.4z"/>
	<linearGradient id="SVGID_3_" gradientUnits="userSpaceOnUse" x1="102.0266" y1="135.7011" x2="138.5987" y2="135.7011">
		<stop  offset="0" style="stop-color:#704091"/>
		<stop  offset="1" style="stop-color:#45277C"/>
	</linearGradient>
	<path class="st17" d="M102.5,147.3c-0.5-5.3-0.9-10.7,0.7-15.7c1.6-5,6-9.5,11.2-9.7c1.7-0.1,3.4,0.3,5.1,0c1.4-0.2,2.7-1,4.1-1.5
		c2.3-0.9,5-1.3,7.3-0.5c2.4,0.8,4.3,3,4.4,5.5c0,1-0.2,2.1,0.1,3c0.4,1,1.3,1.6,2,2.4c1,1.3,1.3,3.1,1.2,4.7
		c-0.2,1.7-0.8,3.2-1.3,4.8c-1.4,3.8-2.9,7.7-4.3,11.5"/>
	<linearGradient id="SVGID_4_" gradientUnits="userSpaceOnUse" x1="113.3032" y1="165.6049" x2="148.4685" y2="165.6049">
		<stop  offset="0" style="stop-color:#704091"/>
		<stop  offset="1" style="stop-color:#45277C"/>
	</linearGradient>
	<path class="st18" d="M115.7,150.2c3-1.5,6.7-1.4,9.6,0.2c2.9,1.6,5,4.7,5.3,8c0.4,3.4,0.4,4,2.6,6.6c1.4,1.6,2.7,1.5,4.3,2.9
		c2.1,1.8,2.7,5.1,1.5,7.5c4.2-0.2,8-0.5,9.5,3.4c-6.2-1.3-12.4,4.5-18.6,3.2c-2-0.4-4-0.8-5.6-2c-1.8-1.4-2.8-3.6-3.8-5.7
		c-1.7-3.8-3.3-7.6-5-11.3c-1.1-2.5-2.3-5.2-2.2-8c0.1-2.8,1.7-5.7,4.3-6.4"/>
	<path class="st4" d="M113.2,154c-1.1-3.6,0.1-7.6,3-9.7c2.9-2,7.2-1.9,10.2,0.4c2.2,1.7,3.7,4.5,3.5,7.2c-0.2,2.7-2.4,5-5.1,5.1"/>
	<linearGradient id="SVGID_5_" gradientUnits="userSpaceOnUse" x1="111.9222" y1="183.6895" x2="144.2157" y2="183.6895">
		<stop  offset="0" style="stop-color:#704091"/>
		<stop  offset="1" style="stop-color:#45277C"/>
	</linearGradient>
	<path class="st19" d="M126.8,148.4c-3.7-3-9.1-2.4-12.1,0.6c-3,3-3.3,9.1-2.4,13.2c1,4.4,3.7,8.7,2.8,13.1c-0.5,2.7-2.4,5.4-1.3,8
		c0.9,2,3.3,2.9,4.6,4.7c1.9,2.6,1,6.3-0.3,9.3c-1.3,3-2.9,6.2-2,9.4c0.7,2.4,2.8,4.2,4.4,6.1c1.6,1.9,2.9,4.7,1.9,6.9
		c2.1,1.6,5.2,1.7,7.4,0.3c2.2-1.4,3.4-4.2,2.9-6.8c1.3,1.3,2.1,3.1,2.2,5c3.5-0.3,6.9-2.6,8.4-5.8c1.6-3.2,1.4-7.2-0.6-10.2
		c-1.4-2.2-3.7-4-4.1-6.5c-0.6-3,1.6-6,1.4-9.1c-0.3-2.8-2.4-5-4.7-6.6c-2.2-1.7-4.7-3.1-6.2-5.5c-2.3-3.8-1.3-8.8-0.3-13.2
		C129.5,156.8,130,151.6,126.8,148.4"/>
	<linearGradient id="SVGID_6_" gradientUnits="userSpaceOnUse" x1="100.9939" y1="179.3636" x2="124.8405" y2="179.3636">
		<stop  offset="0" style="stop-color:#704091"/>
		<stop  offset="1" style="stop-color:#45277C"/>
	</linearGradient>
	<path class="st20" d="M113.4,151.1c-3.1,2.1-3.3,6.6-2.9,10.4c0.4,3.8,1,8-1.3,11c-1.6,2-4.3,3.2-5.1,5.6c-1,3,1.5,5.9,1.7,9
		c0.2,2.2-0.7,4.4-1.8,6.4c-1.1,2-2.3,3.9-2.9,6.1c-0.5,2.2-0.1,4.8,1.6,6.2c1.1,0.9,2.5,1.2,3.9,1.4c5,0.8,10.1,0.8,15.1,0
		c1.5-6.1,3-12.4,3-18.7c0-12.6-5.9-24.5-6.1-37.1"/>
	<g>
		<path class="st7" d="M122.2,215.5c0,0-0.2-0.2-0.5-0.6c-0.4-0.4-0.8-1-1.4-1.7c-1.2-1.5-3-3.5-4.9-6.4c-0.9-1.4-1.9-3.1-2.4-5.1
			c-0.6-1.9-0.7-4.3,0.1-6.4c0.7-2.2,2-4.2,3.2-6.3c1.1-2.1,2.3-4.5,2-7c-0.2-2.5-1.9-4.6-2.7-7c-0.2-0.6-0.3-1.2-0.3-1.9
			c0-0.6,0.1-1.3,0.3-1.9c0.4-1.2,1.2-2.1,2-2.9c0.7-0.8,1.5-1.6,2-2.5c0.5-0.9,0.8-1.9,0.8-2.8c0.1-2-0.5-3.7-1-5.4
			c-0.5-1.6-0.9-3.1-1-4.5c-0.1-1.4,0.3-2.6,0.7-3.4c0.4-0.9,1-1.4,1.4-1.7c0.4-0.3,0.7-0.4,0.7-0.4c0.1,0.1-1.1,0.4-1.9,2.1
			c-0.4,0.8-0.7,2-0.6,3.3c0.1,1.3,0.5,2.8,1,4.4c0.5,1.6,1.1,3.4,1.1,5.5c0,1-0.3,2.1-0.9,3.1c-0.5,1-1.3,1.8-2.1,2.6
			c-0.7,0.8-1.5,1.7-1.8,2.8c-0.2,0.5-0.3,1.1-0.3,1.6c0,0.6,0.1,1.1,0.3,1.7c0.7,2.3,2.4,4.4,2.7,7.1c0.1,1.3-0.1,2.7-0.5,3.9
			c-0.4,1.2-1,2.4-1.6,3.4c-1.2,2.1-2.5,4.1-3.2,6.2c-0.8,2.1-0.7,4.2-0.2,6.1c0.5,1.9,1.4,3.5,2.3,5c1.8,2.8,3.6,5,4.8,6.5
			c0.6,0.8,1,1.3,1.3,1.8C122.1,215.2,122.2,215.5,122.2,215.5z"/>
	</g>
	<g>
		<path class="st7" d="M109.9,171.8c-0.1,0,0.8-1.5,1.2-4.2c0.2-1.3,0.2-3,0.2-4.8c0-1.8-0.2-3.8-0.1-5.9c0.1-2.1,0.6-4.2,1.5-5.8
			c0.9-1.6,2.2-2.8,3.4-3.5c1.2-0.7,2.4-0.9,3.2-0.8c0.4,0,0.7,0.1,0.9,0.1c0.2,0.1,0.3,0.1,0.3,0.1c0,0.1-0.4,0-1.2,0
			c-0.8,0-1.8,0.2-3,0.9c-1.1,0.7-2.3,1.8-3.2,3.4c-0.8,1.6-1.2,3.5-1.3,5.6c-0.1,2.1,0,4.1,0,5.9c0,1.8-0.1,3.5-0.3,4.9
			c-0.2,1.4-0.6,2.4-1,3.1C110.2,171.5,109.9,171.8,109.9,171.8z"/>
	</g>
	<g>
		<path class="st7" d="M143.2,212.4c0,0,0-0.3,0.1-0.7c0.1-0.5,0.1-1.2,0-2.1c-0.2-1.8-0.6-4.4-1.8-7.4c-0.6-1.4-1.7-2.9-2.4-4.7
			c-0.4-0.9-0.7-1.8-0.9-2.9c-0.2-1-0.1-2.1,0-3.2c0.2-1.1,0.4-2.1,0.5-3.2c0.2-1.1,0.1-2.2-0.1-3.3c-0.4-2.2-1.5-4.4-3.3-6.1
			c-1.7-1.7-4.1-2.4-5.9-4.1c-1.8-1.7-2.7-3.9-3.1-6.1c-0.4-2.1-0.3-4.2-0.2-6.1c0.2-1.9,0.4-3.7,0.5-5.3c0.1-1.6,0.1-3.1-0.1-4.3
			c-0.2-1.3-0.6-2.3-1.2-2.9c-1.2-1.4-2.4-1.3-2.3-1.4c0,0,0.3,0,0.7,0.1c0.5,0.1,1.1,0.5,1.8,1.2c0.6,0.7,1.1,1.8,1.4,3
			c0.2,1.3,0.2,2.8,0.1,4.4c-0.1,1.6-0.3,3.4-0.4,5.3c-0.1,1.9-0.2,3.9,0.2,6c0.4,2,1.3,4.2,2.9,5.7c1.6,1.6,4.1,2.3,5.9,4.1
			c1.8,1.8,3,4.1,3.4,6.4c0.2,1.2,0.2,2.4,0.1,3.5c-0.2,1.1-0.4,2.2-0.6,3.2c-0.2,1-0.2,2.1-0.1,3c0.1,1,0.4,1.9,0.8,2.8
			c0.7,1.7,1.7,3.2,2.4,4.7c1.2,3.1,1.5,5.7,1.6,7.5c0,0.9,0,1.6-0.1,2.1c0,0.2-0.1,0.4-0.1,0.5
			C143.2,212.3,143.2,212.4,143.2,212.4z"/>
	</g>
	<g>
		<path class="st7" d="M138.7,180.4c0,0,0.3-0.5,0.5-1.4c0.2-0.9,0.3-2.4-0.2-4c-0.6-1.6-1.9-3.3-3.9-4.3c-1-0.4-2.2-1-3.1-2
			c-0.9-1-1.3-2.2-1.9-3.4c-1.1-2.6-0.9-5.2-0.9-7.5c0-2.3-0.1-4.4-0.7-5.9c-0.6-1.6-1.5-2.7-2.3-3.3c-0.8-0.6-1.3-0.7-1.3-0.8
			c0,0,0.1,0,0.4,0.1c0.2,0.1,0.6,0.2,1,0.5c0.8,0.5,1.9,1.6,2.5,3.3c0.7,1.7,0.9,3.8,0.9,6.1c0,2.3-0.1,4.9,0.9,7.3
			c0.6,1.2,1.1,2.4,1.8,3.3c0.4,0.5,0.8,0.8,1.3,1.1c0.5,0.3,1,0.5,1.6,0.8c2.1,1.1,3.5,2.9,4,4.6c0.5,1.7,0.3,3.2,0.1,4.2
			c-0.1,0.5-0.3,0.8-0.5,1C138.8,180.3,138.7,180.4,138.7,180.4z"/>
	</g>
	<g>
		<path class="st7" d="M111.6,149.8c0,0.1-1-0.4-2.3-1.4c-1.3-1-2.9-2.8-4.1-5.1c-1.2-2.3-1.6-4.7-1.7-6.3c-0.1-1.7,0.2-2.7,0.2-2.7
			c0.1,0,0,1,0.2,2.7c0.2,1.6,0.7,3.9,1.8,6.1c1.1,2.2,2.6,4,3.9,5C110.8,149.1,111.6,149.7,111.6,149.8z"/>
	</g>
	<g>
		<path class="st7" d="M110.5,151.3c-0.1,0.1-1.9-0.6-4-2.1c-2-1.4-3.4-2.9-3.3-3c0.1-0.1,1.7,1.1,3.7,2.5
			C108.9,150.1,110.6,151.1,110.5,151.3z"/>
	</g>
	<g>
		<path class="st7" d="M135.3,136.4c0.1,0-0.1,3.2-2,6.7c-1.9,3.5-4.5,5.4-4.6,5.3c-0.1-0.1,2.2-2.2,4.1-5.6
			C134.6,139.5,135.1,136.4,135.3,136.4z"/>
	</g>
	<g>
		<path class="st7" d="M137.2,140.9c0.1,0-0.4,2.6-1.7,5.5c-1.3,2.9-2.9,4.9-3.1,4.8c-0.1-0.1,1.2-2.3,2.5-5.1
			C136.2,143.3,137,140.9,137.2,140.9z"/>
	</g>
	<g>
		<path class="st7" d="M134.5,126.3c-0.1,0-0.4-0.8-1.1-2.2c-0.3-0.6-0.8-1.4-1.5-2c-0.7-0.6-1.7-1.1-2.7-1c-2.2,0-3.9,1.4-4.9,2.4
			c-1.1,1-1.7,1.7-1.8,1.7c-0.1,0,0.5-0.8,1.5-2c0.5-0.6,1.2-1.2,2-1.7c0.9-0.5,2-1,3.2-1c1.2,0,2.4,0.5,3.1,1.2
			c0.8,0.7,1.2,1.5,1.5,2.2C134.4,125.3,134.6,126.3,134.5,126.3z"/>
	</g>
	<g>
		<path class="st7" d="M132.2,214.7c0,0-0.2-0.1-0.5-0.5c-0.3-0.3-0.8-0.8-1.4-1.5c-0.6-0.7-1.3-1.5-2-2.6c-0.7-1.1-1.3-2.4-1.4-4.1
			c0-0.8,0.1-1.7,0.3-2.5c0.3-0.8,0.7-1.7,1.2-2.5c0.9-1.6,2.1-3.3,2.1-5.3c0.1-2-0.7-4.1-1.8-6c-1.1-1.9-2.7-3.7-4-5.7
			c-1.4-2-2.4-4.3-2.7-6.6c-0.4-2.3-0.3-4.5-0.1-6.6c0.4-4.2,1.2-7.9,1.4-11c0.2-3.1-0.2-5.7-0.7-7.3c-0.5-1.7-1.1-2.5-1-2.5
			c0,0,0.2,0.2,0.4,0.6c0.2,0.4,0.5,1,0.8,1.9c0.6,1.7,1.1,4.3,0.9,7.4c-0.1,3.2-0.9,6.9-1.2,11c-0.2,2.1-0.2,4.2,0.1,6.5
			c0.3,2.2,1.3,4.4,2.6,6.3c1.3,2,2.9,3.8,4,5.8c1.1,2,1.9,4.2,1.8,6.4c-0.1,2.2-1.3,4-2.2,5.5c-0.5,0.8-0.9,1.6-1.2,2.4
			c-0.3,0.8-0.4,1.6-0.3,2.4c0.1,1.5,0.7,2.9,1.3,3.9c0.6,1.1,1.3,1.9,1.9,2.6c0.6,0.7,1,1.2,1.3,1.5
			C132.1,214.5,132.2,214.7,132.2,214.7z"/>
	</g>
</g>
</svg>
